<?xml version="1.0" encoding="UTF-8" standalone="no"?>
<svg
   xmlns:dc="http://purl.org/dc/elements/1.1/"
   xmlns:cc="http://creativecommons.org/ns#"
   xmlns:rdf="http://www.w3.org/1999/02/22-rdf-syntax-ns#"
   xmlns:svg="http://www.w3.org/2000/svg"
   xmlns="http://www.w3.org/2000/svg"
   id="svg6988"
   version="1.1"
   viewBox="0 0 285.75 53.864285"
   height="53.864285mm"
   width="285.75mm">
  <defs
     id="defs6982" />
  <metadata
     id="metadata6985">
    <rdf:RDF>
      <cc:Work
         rdf:about="">
        <dc:format>image/svg+xml</dc:format>
        <dc:type
           rdf:resource="http://purl.org/dc/dcmitype/StillImage" />
        <dc:title></dc:title>
      </cc:Work>
    </rdf:RDF>
  </metadata>
  <g
     transform="translate(88.314199,-99.481852)"
     id="layer1">
    <rect
       style="display:inline;opacity:1;fill:#333333;fill-opacity:1;stroke:#000000;stroke-width:0.26458332;stroke-linecap:round;stroke-linejoin:miter;stroke-miterlimit:4;stroke-dasharray:none;stroke-dashoffset:0;stroke-opacity:1;paint-order:markers fill stroke"
       id="rect14626"
       width="285.48541"
       height="53.599701"
       x="-88.181908"
       y="99.614143"
       rx="0.52916676"
       ry="0.52916658" />
    <path
       id="text6920"
       d="m -57.910387,104.2674 c -0.232833,0 -0.423047,0.0402 -0.570508,0.12041 -0.14746,0.0802 -0.221175,0.21628 -0.221175,0.40772 0,0.0336 0.0011,0.0594 0.0036,0.0775 l 0.08165,0.74517 c 0.0026,0.0181 0.0041,0.0423 0.0041,0.0734 0,0.11383 -0.04278,0.19785 -0.128156,0.25218 -0.08537,0.0517 -0.240533,0.078 -0.465606,0.078 v 0.26355 c 0.225073,0 0.380233,0.0273 0.465606,0.0816 0.08537,0.0543 0.128156,0.13835 0.128156,0.25218 0,0.0336 -0.0016,0.0594 -0.0041,0.0775 l -0.08165,0.73742 c -0.0026,0.0181 -0.0036,0.0439 -0.0036,0.0775 0,0.19144 0.07371,0.32753 0.221175,0.40773 0.147461,0.0802 0.337675,0.11989 0.570508,0.11989 v -0.25993 c -0.157811,0 -0.281011,-0.0232 -0.368969,-0.0698 -0.08796,-0.0466 -0.126622,-0.12647 -0.116274,-0.2403 l 0.07752,-0.79582 c 0.0026,-0.0259 0.0041,-0.0609 0.0041,-0.1049 0,-0.12677 -0.0299,-0.2211 -0.0894,-0.28319 -0.05691,-0.0647 -0.148672,-0.10849 -0.275436,-0.13177 0.124179,-0.0233 0.215934,-0.0671 0.275436,-0.13178 0.0595,-0.0673 0.0894,-0.16314 0.0894,-0.28732 0,-0.044 -0.0016,-0.0775 -0.0041,-0.10077 l -0.07752,-0.79581 c -0.02069,-0.20697 0.141166,-0.31006 0.485243,-0.31006 z m 2.062922,9.7994 c -0.227658,0.18368 -0.413747,0.36462 -0.55862,0.54312 -0.142288,0.17851 -0.252603,0.37748 -0.330213,0.59738 -0.07503,0.2199 -0.112655,0.47352 -0.112655,0.76068 0,0.28716 0.03763,0.54077 0.112655,0.76068 0.07761,0.21989 0.187925,0.41938 0.330213,0.59789 0.144873,0.17851 0.330962,0.35944 0.55862,0.54312 l 0.166915,-0.1788 c -0.196614,-0.17592 -0.354351,-0.34242 -0.473355,-0.50023 -0.116417,-0.16039 -0.204566,-0.33772 -0.264068,-0.53175 -0.0595,-0.19661 -0.0894,-0.42704 -0.0894,-0.69091 0,-0.26647 0.02887,-0.49637 0.08578,-0.6904 0.0595,-0.19661 0.147135,-0.37394 0.263552,-0.53175 0.119002,-0.15781 0.278286,-0.32483 0.477488,-0.50074 z m 13.3165,0 -0.166915,0.17829 c 0.199203,0.17591 0.357458,0.34293 0.473874,0.50074 0.119005,0.15781 0.206635,0.33514 0.263549,0.53175 0.0595,0.19403 0.0894,0.42393 0.0894,0.6904 0,0.26387 -0.0299,0.4943 -0.0894,0.69091 -0.0595,0.19403 -0.14868,0.37136 -0.267684,0.53175 -0.116417,0.15781 -0.273124,0.32431 -0.469739,0.50023 l 0.166915,0.1788 c 0.227661,-0.18368 0.412719,-0.36461 0.555006,-0.54312 0.144873,-0.17851 0.254672,-0.378 0.329695,-0.59789 0.07761,-0.21991 0.11679,-0.47352 0.11679,-0.76068 0,-0.28716 -0.03918,-0.54078 -0.11679,-0.76068 -0.07502,-0.2199 -0.184822,-0.41887 -0.329695,-0.59738 -0.142287,-0.1785 -0.327345,-0.35944 -0.555006,-0.54312 z m 7.131865,0.8692 -0.24443,0.20929 0.24443,0.26407 c 0.07244,0.0802 0.152853,0.1472 0.240813,0.20153 h -3.069582 v 0.27957 h 3.267501 l 0.205674,0.22893 -0.205674,0.22893 h -3.267501 v 0.27957 h 3.069582 c -0.09313,0.0569 -0.17355,0.12289 -0.240813,0.19791 l -0.24443,0.26769 0.24443,0.20929 1.051616,-1.18339 z m -20.448365,13.90923 c -0.227658,0.18368 -0.413747,0.36461 -0.55862,0.54312 -0.142288,0.1785 -0.252603,0.37748 -0.330213,0.59737 -0.07503,0.2199 -0.112655,0.47352 -0.112655,0.76068 0,0.28716 0.03763,0.54078 0.112655,0.76068 0.07761,0.2199 0.187925,0.41939 0.330213,0.5979 0.144873,0.1785 0.330962,0.35943 0.55862,0.54311 l 0.166915,-0.1788 c -0.196614,-0.17591 -0.354351,-0.34241 -0.473355,-0.50022 -0.116417,-0.1604 -0.204566,-0.33772 -0.264068,-0.53175 -0.0595,-0.19662 -0.0894,-0.42704 -0.0894,-0.69092 0,-0.26646 0.02887,-0.49637 0.08578,-0.69039 0.0595,-0.19662 0.147135,-0.37395 0.263552,-0.53176 0.119002,-0.1578 0.278286,-0.32482 0.477488,-0.50074 z m 43.5653,0 -0.166913,0.17828 c 0.1992,0.17592 0.356939,0.34294 0.473356,0.50074 0.119004,0.15781 0.20715,0.33514 0.264064,0.53176 0.0595,0.19402 0.0894,0.42393 0.0894,0.69039 0,0.26388 -0.0299,0.4943 -0.0894,0.69092 -0.0595,0.19403 -0.14868,0.37135 -0.267681,0.53175 -0.116417,0.15781 -0.273124,0.32431 -0.469739,0.50022 l 0.166913,0.1788 c 0.22766,-0.18368 0.412718,-0.36461 0.555005,-0.54311 0.144876,-0.17851 0.254672,-0.378 0.329695,-0.5979 0.07761,-0.2199 0.116274,-0.47352 0.116274,-0.76068 0,-0.28716 -0.03866,-0.54078 -0.116274,-0.76068 -0.07502,-0.21989 -0.184819,-0.41887 -0.329695,-0.59737 -0.142287,-0.17851 -0.327345,-0.35944 -0.555005,-0.54312 z m 15.6786309,0.3917 v 0.25994 h 0.628386 v 2.08772 c 0,0.17333 0.05464,0.31045 0.163295,0.41135 0.111244,0.10089 0.258673,0.15141 0.442352,0.15141 0.194027,0 0.355372,-0.035 0.484724,-0.1049 l -0.08526,-0.23668 c -0.121592,0.0466 -0.235514,0.0703 -0.341583,0.0703 -0.225073,0 -0.337447,-0.0923 -0.337447,-0.27595 v -2.36317 z m 32.5752741,0 v 0.25994 h 0.6289 v 2.08772 c 0,0.17333 0.0541,0.31045 0.16278,0.41135 0.11124,0.10089 0.25867,0.15141 0.44235,0.15141 0.19403,0 0.35589,-0.035 0.48524,-0.1049 l -0.0858,-0.23668 c -0.12159,0.0466 -0.235,0.0703 -0.34107,0.0703 -0.22507,0 -0.33796,-0.0923 -0.33796,-0.27595 v -2.36317 z m 5.52266,0.32195 -0.32556,0.0393 v 0.46147 H 40.6991 v 0.25631 h 0.46974 v 1.21853 c 0,0.18368 0.0608,0.33214 0.18241,0.44597 0.12159,0.11124 0.28964,0.16692 0.50437,0.16692 0.0983,0 0.19676,-0.0129 0.29507,-0.0388 0.10089,-0.0259 0.18595,-0.0619 0.2558,-0.10852 l -0.12816,-0.22118 c -0.12159,0.0647 -0.25201,0.0971 -0.39171,0.0971 -0.13711,0 -0.2366,-0.0289 -0.29869,-0.0858 -0.0621,-0.0569 -0.0935,-0.14351 -0.0935,-0.25993 v -1.2144 h 0.66766 l 0.0429,-0.25631 h -0.71055 z m -46.6447011,0.15554 -0.24443,0.20929 0.24443,0.26407 c 0.07244,0.0802 0.152337,0.14721 0.240298,0.20154 h -3.069064 v 0.27957 h 3.266983 l 0.205673,0.22892 -0.205673,0.22893 h -3.266983 v 0.27957 h 3.069064 c -0.09313,0.0569 -0.173035,0.1229 -0.240298,0.19792 l -0.24443,0.26768 0.24443,0.20981 1.051616,-1.18391 z m 7.077605,0.30283 c -0.206963,0 -0.430681,0.0423 -0.671277,0.12764 l 0.08888,0.24856 c 0.199202,-0.0699 0.376528,-0.1049 0.531751,-0.1049 0.157808,0 0.277916,0.0325 0.360702,0.0972 0.08279,0.0621 0.124539,0.1657 0.124539,0.31058 v 0.16691 h -0.302824 c -0.307858,0 -0.544465,0.0567 -0.710033,0.17053 -0.162983,0.11383 -0.24443,0.2757 -0.24443,0.48525 0,0.19144 0.05825,0.34402 0.174665,0.45785 0.119004,0.11383 0.28035,0.17053 0.484724,0.17053 0.134528,0 0.256181,-0.0242 0.364837,-0.0734 0.111244,-0.0491 0.202999,-0.12029 0.275437,-0.21342 0.04915,0.16816 0.173384,0.26507 0.372586,0.29094 l 0.08165,-0.23306 c -0.0595,-0.0181 -0.102286,-0.0454 -0.128157,-0.0816 -0.02588,-0.0388 -0.03876,-0.0981 -0.03876,-0.17829 v -0.98185 c 0,-0.20696 -0.06598,-0.36883 -0.197919,-0.48524 -0.129352,-0.11642 -0.318019,-0.17415 -0.566375,-0.17415 z m 7.08484,0 c -0.178506,0 -0.334698,0.0464 -0.469223,0.13952 -0.134527,0.0906 -0.238138,0.21736 -0.310575,0.38034 -0.07244,0.1604 -0.108522,0.34288 -0.108522,0.54726 0,0.32338 0.08145,0.58215 0.24443,0.77618 0.165571,0.19144 0.395476,0.2868 0.690399,0.2868 0.124177,0 0.247377,-0.0206 0.368969,-0.062 0.124177,-0.0414 0.233974,-0.0996 0.329695,-0.17467 l -0.151411,-0.21704 c -0.09572,0.0621 -0.18593,0.10849 -0.271301,0.13953 -0.08279,0.0285 -0.175059,0.0429 -0.275952,0.0429 -0.168159,0 -0.307854,-0.0572 -0.419098,-0.17105 -0.108654,-0.11383 -0.166388,-0.28342 -0.174148,-0.50849 h 1.37356 c 0.0052,-0.0569 0.0078,-0.11517 0.0078,-0.17467 0,-0.31044 -0.07526,-0.55478 -0.225308,-0.73329 -0.14746,-0.18109 -0.350563,-0.2713 -0.609264,-0.2713 z m 3.8669461,0 v 0.28319 h 6.16242 v -0.28319 z m 9.98957,0 c -0.20696,0 -0.4312,0.0423 -0.67179,0.12764 l 0.0894,0.24856 c 0.1992,-0.0699 0.37653,-0.1049 0.53175,-0.1049 0.15781,0 0.27792,0.0325 0.3607,0.0972 0.0828,0.0621 0.12454,0.1657 0.12454,0.31058 v 0.16691 h -0.30282 c -0.30786,0 -0.54447,0.0567 -0.71004,0.17053 -0.16298,0.11383 -0.24443,0.2757 -0.24443,0.48525 0,0.19144 0.0583,0.34402 0.17467,0.45785 0.119,0.11383 0.28035,0.17053 0.48472,0.17053 0.13453,0 0.25618,-0.0242 0.36484,-0.0734 0.11124,-0.0491 0.203,-0.12029 0.27543,-0.21342 0.0492,0.16816 0.17339,0.26507 0.37259,0.29094 l 0.0816,-0.23306 c -0.0595,-0.0181 -0.10229,-0.0454 -0.12816,-0.0816 -0.0259,-0.0388 -0.0388,-0.0981 -0.0388,-0.17829 v -0.98185 c 0,-0.20696 -0.066,-0.36883 -0.19792,-0.48524 -0.12936,-0.11642 -0.31802,-0.17415 -0.56638,-0.17415 z m 2.55178,0 c -0.1992,0 -0.37137,0.0464 -0.51624,0.13952 -0.14488,0.0931 -0.25622,0.22098 -0.33383,0.38396 -0.075,0.16298 -0.11214,0.34701 -0.11214,0.55139 0,0.32338 0.084,0.5806 0.25218,0.77204 0.17074,0.18886 0.40735,0.28319 0.71003,0.28319 0.11901,0 0.24169,-0.0216 0.36846,-0.0656 0.12676,-0.044 0.23295,-0.10378 0.31832,-0.1788 L 25.9522,131.6895 c -0.17592,0.119 -0.35325,0.1788 -0.53176,0.1788 -0.18626,0 -0.33524,-0.0634 -0.44648,-0.19017 -0.10866,-0.12935 -0.16278,-0.32472 -0.16278,-0.58601 0,-0.26129 0.0541,-0.45924 0.16278,-0.59377 0.11124,-0.13711 0.25867,-0.20567 0.44235,-0.20567 0.17333,0 0.34963,0.0593 0.52813,0.17829 l 0.15865,-0.21343 c -0.19144,-0.16039 -0.41877,-0.24029 -0.68265,-0.24029 z m 2.32648,0 c -0.19921,0 -0.37086,0.0464 -0.51573,0.13952 -0.14488,0.0931 -0.25622,0.22098 -0.33383,0.38396 -0.075,0.16298 -0.11266,0.34701 -0.11266,0.55139 0,0.32338 0.084,0.5806 0.25218,0.77204 0.17075,0.18886 0.40735,0.28319 0.71004,0.28319 0.119,0 0.2422,-0.0216 0.36897,-0.0656 0.12676,-0.044 0.23295,-0.10378 0.31832,-0.1788 l -0.15554,-0.21342 c -0.17592,0.119 -0.35325,0.1788 -0.53175,0.1788 -0.18627,0 -0.33473,-0.0634 -0.44597,-0.19017 -0.10866,-0.12935 -0.16278,-0.32472 -0.16278,-0.58601 0,-0.26129 0.0541,-0.45924 0.16278,-0.59377 0.11124,-0.13711 0.25867,-0.20567 0.44235,-0.20567 0.17333,0 0.34911,0.0593 0.52762,0.17829 l 0.15916,-0.21343 c -0.19144,-0.16039 -0.41929,-0.24029 -0.68316,-0.24029 z m 4.254,0 c -0.0957,0 -0.17819,0.0242 -0.24804,0.0734 -0.0673,0.0491 -0.13222,0.11926 -0.19431,0.20981 l -0.0233,-0.24082 h -0.25218 v 2.04536 h 0.29869 v -1.5875 c 0.10607,-0.16299 0.22515,-0.24443 0.35709,-0.24443 0.0698,0 0.11418,0.0258 0.13229,0.0775 0.0181,0.0491 0.0269,0.14503 0.0269,0.28732 v 1.46709 h 0.30282 v -1.5875 c 0.10607,-0.16298 0.22515,-0.24443 0.35709,-0.24443 0.0699,0 0.11366,0.0258 0.13177,0.0775 0.0181,0.0491 0.0274,0.14504 0.0274,0.28732 v 1.4671 h 0.29869 v -1.52136 c 0,-0.21472 -0.0376,-0.36215 -0.11265,-0.44235 -0.0724,-0.0828 -0.16677,-0.12402 -0.28319,-0.12402 -0.0983,0 -0.18233,0.0232 -0.25218,0.0698 -0.0698,0.0466 -0.13583,0.11358 -0.19792,0.20154 -0.0543,-0.18109 -0.17753,-0.2713 -0.36897,-0.2713 z m 7.15512,0 c -0.20696,0 -0.43068,0.0423 -0.67128,0.12764 l 0.0894,0.24856 c 0.1992,-0.0699 0.37653,-0.1049 0.53175,-0.1049 0.15781,0 0.27792,0.0325 0.3607,0.0972 0.0828,0.0621 0.12403,0.1657 0.12403,0.31058 v 0.16691 h -0.30231 c -0.30786,0 -0.54498,0.0567 -0.71055,0.17053 -0.16298,0.11383 -0.24443,0.2757 -0.24443,0.48525 0,0.19144 0.0583,0.34402 0.17467,0.45785 0.119,0.11383 0.28086,0.17053 0.48524,0.17053 0.13452,0 0.25618,-0.0242 0.36484,-0.0734 0.11124,-0.0491 0.20299,-0.12029 0.27543,-0.21342 0.0491,0.16816 0.17339,0.26507 0.37259,0.29094 l 0.0816,-0.23306 c -0.0595,-0.0181 -0.10229,-0.0454 -0.12816,-0.0816 -0.0259,-0.0388 -0.0388,-0.0981 -0.0388,-0.17829 v -0.98185 c 0,-0.20696 -0.066,-0.36883 -0.19792,-0.48524 -0.12935,-0.11642 -0.31853,-0.17415 -0.56689,-0.17415 z m 4.73149,0 c -0.28198,0 -0.50055,0.0969 -0.65577,0.29094 -0.15264,0.19402 -0.22893,0.4528 -0.22893,0.77618 0,0.32855 0.0763,0.58835 0.22893,0.77979 0.15264,0.18886 0.36965,0.28319 0.65164,0.28319 0.2794,0 0.49539,-0.0969 0.64802,-0.29094 0.15523,-0.19661 0.23306,-0.45538 0.23306,-0.77618 0,-0.32855 -0.0763,-0.58732 -0.22892,-0.77618 -0.15005,-0.19144 -0.36604,-0.2868 -0.64803,-0.2868 z m 2.92799,0 c -0.17592,0 -0.3218,0.0438 -0.43822,0.13177 -0.11383,0.088 -0.21228,0.21993 -0.29507,0.39585 l -0.062,-0.48525 h -0.56637 v 0.25218 h 0.32194 v 1.54048 h -0.32194 v 0.2527 h 1.06298 v -0.2527 h -0.41496 v -0.86145 c 0.13194,-0.45014 0.35566,-0.67489 0.67128,-0.67489 h 0.0191 v 0.43821 h 0.26406 l 0.0465,-0.69453 c -0.10865,-0.0285 -0.20453,-0.0424 -0.28732,-0.0424 z m -48.0730351,0.0424 0.74155799,2.04535 h 0.376203 l 0.745175,-2.04535 h -0.341582 l -0.581877,1.75028 -0.590142,-1.75028 z m 7.136,0 v 1.48621 c 0,0.19403 0.04897,0.34301 0.147278,0.44649 0.100894,0.10348 0.248322,0.15503 0.442349,0.15503 0.121592,0 0.240668,-0.0273 0.357084,-0.0816 0.119005,-0.0569 0.218493,-0.13579 0.298691,-0.23668 l 0.02739,0.27595 h 0.279053 v -2.04535 h -0.325561 v 1.50585 c -0.0595,0.0931 -0.139917,0.17046 -0.240811,0.23254 -0.100896,0.0621 -0.205539,0.0935 -0.314193,0.0935 -0.119004,0 -0.207153,-0.0299 -0.264067,-0.0894 -0.05433,-0.0621 -0.08113,-0.159 -0.08113,-0.29094 v -1.45159 z m 23.2678251,0 v 1.48621 c 0,0.19403 0.0495,0.34301 0.1478,0.44649 0.10089,0.10348 0.24832,0.15503 0.44235,0.15503 0.12159,0 0.24067,-0.0273 0.35708,-0.0816 0.11901,-0.0569 0.2185,-0.13579 0.29869,-0.23668 l 0.0269,0.27595 h 0.27956 v -2.04535 h -0.32607 v 1.50585 c -0.0595,0.0931 -0.1394,0.17046 -0.2403,0.23254 -0.10089,0.0621 -0.20554,0.0935 -0.31419,0.0935 -0.119,0 -0.20715,-0.0299 -0.26407,-0.0894 -0.0543,-0.0621 -0.0816,-0.159 -0.0816,-0.29094 v -1.45159 z m 4.65399,0 v 1.48621 c 0,0.19403 0.049,0.34301 0.14727,0.44649 0.1009,0.10348 0.24832,0.15503 0.44235,0.15503 0.12159,0 0.24067,-0.0273 0.35709,-0.0816 0.119,-0.0569 0.21849,-0.13579 0.29869,-0.23668 l 0.0274,0.27595 h 0.27906 V 130.0597 H 35.0266 v 1.50585 c -0.0595,0.0931 -0.13992,0.17046 -0.24082,0.23254 -0.10089,0.0621 -0.20553,0.0935 -0.31419,0.0935 -0.119,0 -0.20715,-0.0299 -0.26407,-0.0894 -0.0543,-0.0621 -0.0811,-0.159 -0.0811,-0.29094 v -1.45159 z m -24.7840231,0.22531 c 0.157811,0 0.28204,0.0567 0.372586,0.17053 0.09055,0.11383 0.136941,0.27827 0.139528,0.493 h -1.062984 c 0.01294,-0.21732 0.06809,-0.38176 0.166399,-0.493 0.09831,-0.11383 0.226663,-0.17053 0.384471,-0.17053 z m 34.8712531,0 c 0.17592,0 0.30634,0.066 0.39171,0.19792 0.088,0.12935 0.13229,0.32833 0.13229,0.59738 0,0.27164 -0.0443,0.47371 -0.13229,0.60565 -0.0854,0.12935 -0.21733,0.19378 -0.39584,0.19378 -0.17851,0 -0.3115,-0.0644 -0.39946,-0.19378 -0.0854,-0.13194 -0.12816,-0.33246 -0.12816,-0.60152 0,-0.26905 0.0438,-0.46957 0.13178,-0.60151 0.088,-0.13194 0.22147,-0.19792 0.39997,-0.19792 z m -31.00844,0.46922 v 0.27957 h 6.16242 v -0.27957 z m -10.8122581,0.33383 h 0.295071 v 0.524 c -0.0595,0.0905 -0.135792,0.16168 -0.228926,0.21343 -0.09055,0.0517 -0.186428,0.0775 -0.287321,0.0775 -0.261292,0 -0.392224,-0.12939 -0.392224,-0.38809 0,-0.1397 0.04794,-0.24589 0.143661,-0.31833 0.09572,-0.0724 0.252426,-0.10852 0.469739,-0.10852 z m 20.9413581,0 h 0.29507 v 0.524 c -0.0595,0.0905 -0.13579,0.16168 -0.22893,0.21343 -0.0905,0.0517 -0.18642,0.0775 -0.28732,0.0775 -0.26129,0 -0.39222,-0.12939 -0.39222,-0.38809 0,-0.1397 0.0479,-0.24589 0.14366,-0.31833 0.0957,-0.0724 0.25243,-0.10852 0.46974,-0.10852 z m 16.28789,0 h 0.29456 v 0.524 c -0.0595,0.0905 -0.13579,0.16168 -0.22893,0.21343 -0.0905,0.0517 -0.18591,0.0775 -0.2868,0.0775 -0.26129,0 -0.39223,-0.12939 -0.39223,-0.38809 0,-0.1397 0.0479,-0.24589 0.14366,-0.31833 0.0957,-0.0724 0.25243,-0.10852 0.46974,-0.10852 z m -81.504584,0.37673 c -0.08796,0 -0.161673,0.0309 -0.221173,0.093 -0.0595,0.0595 -0.0894,0.13321 -0.0894,0.22117 0,0.0491 0.01135,0.0971 0.03462,0.14366 0.02328,0.0466 0.05318,0.0837 0.0894,0.11214 l -0.182417,0.76481 h 0.295074 l 0.314193,-0.71779 c 0.04915,-0.10865 0.0739,-0.21123 0.0739,-0.30695 0,-0.0854 -0.03093,-0.15754 -0.09302,-0.21704 -0.0595,-0.0621 -0.133215,-0.093 -0.221177,-0.093 z m 55.087594,0.0269 v 0.27956 h 6.16242 v -0.27956 z m -88.249393,7.18354 v 0.25993 c 0.344075,0 0.505936,0.10361 0.48524,0.31057 l -0.07752,0.7953 c -0.0026,0.0233 -0.0041,0.0558 -0.0041,0.0971 0,0.12677 0.03247,0.22368 0.09715,0.29094 0.06727,0.0647 0.170876,0.11004 0.310576,0.13591 -0.144873,0.0207 -0.249516,0.0619 -0.314193,0.12403 -0.06467,0.0621 -0.09715,0.15796 -0.09715,0.28732 0,0.0181 0.0026,0.0532 0.0078,0.1049 l 0.07752,0.7953 c 0.01035,0.11383 -0.02831,0.19425 -0.116271,0.24081 -0.08796,0.0466 -0.211162,0.0698 -0.36897,0.0698 v 0.25993 c 0.232834,0 0.423045,-0.0402 0.570505,-0.1204 0.147463,-0.0802 0.221176,-0.21577 0.221176,-0.40721 0,-0.0336 -0.0011,-0.0594 -0.0036,-0.0775 l -0.08165,-0.73742 c -0.0026,-0.0155 -0.0036,-0.0361 -0.0036,-0.062 0,-0.11901 0.04485,-0.20716 0.135392,-0.26407 0.09055,-0.0569 0.243131,-0.0853 0.457854,-0.0853 V 140.429 c -0.212138,0 -0.36472,-0.0283 -0.457854,-0.0853 -0.09055,-0.0569 -0.135392,-0.14351 -0.135392,-0.25993 0,-0.0259 0.0011,-0.0455 0.0036,-0.0584 l 0.08165,-0.74466 c 0.0026,-0.0181 0.0036,-0.0444 0.0036,-0.078 0,-0.19144 -0.07371,-0.32701 -0.221176,-0.40721 -0.14746,-0.0802 -0.337671,-0.1204 -0.570505,-0.1204 z"
       style="font-style:normal;font-variant:normal;font-weight:300;font-stretch:normal;font-size:3.88055563px;line-height:1.25;font-family:Titillium;-inkscape-font-specification:'Titillium Light';text-align:start;letter-spacing:0px;word-spacing:0px;text-anchor:start;display:inline;opacity:1;fill:#ffffff;fill-opacity:1;stroke:none;stroke-width:0.15033114" />
    <path
       style="display:inline;opacity:1;fill:#4d4d4d;fill-opacity:1;stroke:none;stroke-width:0.26458332;stroke-linecap:round;stroke-linejoin:miter;stroke-miterlimit:4;stroke-dasharray:none;stroke-dashoffset:0;stroke-opacity:1;paint-order:markers fill stroke"
       d="m -87.652759,99.614029 c -0.29315,0 -0.52916,0.11892 -0.52916,0.26664 v 53.041591 c 0,0.14771 0.23666,0.28614 0.52916,0.26664 h 7.9375 V 99.614029 Z"
       id="path14692" />
    <path
       id="text14740"
       transform="matrix(0.26458333,0,0,0.26458333,-88.314199,99.481852)"
       d="M 21.740234 22.082031 L 19.279297 23.617188 L 19.724609 24.324219 L 21.607422 23.185547 L 21.607422 29.533203 L 19.580078 29.533203 L 19.580078 30.349609 L 24.34375 30.349609 L 24.34375 29.533203 L 22.628906 29.533203 L 22.628906 22.082031 L 21.740234 22.082031 z M 21.367188 40.576172 C 20.823188 40.576172 20.347453 40.671281 19.939453 40.863281 C 19.539453 41.055281 19.175656 41.355672 18.847656 41.763672 L 19.544922 42.304688 C 19.816922 41.984688 20.079938 41.760812 20.335938 41.632812 C 20.599937 41.496813 20.928313 41.427734 21.320312 41.427734 C 21.784312 41.427734 22.148109 41.560219 22.412109 41.824219 C 22.676109 42.088219 22.808594 42.452016 22.808594 42.916016 C 22.808594 43.380016 22.707812 43.820328 22.507812 44.236328 C 22.307813 44.652328 21.944016 45.152328 21.416016 45.736328 C 20.896016 46.320328 20.095625 47.128156 19.015625 48.160156 L 19.015625 48.976562 L 23.935547 48.976562 L 24.056641 48.111328 L 20.167969 48.111328 C 21.119969 47.239328 21.856953 46.519172 22.376953 45.951172 C 22.896953 45.375172 23.271906 44.847187 23.503906 44.367188 C 23.743906 43.887188 23.863281 43.390906 23.863281 42.878906 C 23.863281 42.438906 23.764453 42.047125 23.564453 41.703125 C 23.364453 41.351125 23.0715 41.075 22.6875 40.875 C 22.3115 40.675 21.871187 40.576172 21.367188 40.576172 z M 21.367188 59.203125 C 20.471188 59.203125 19.687625 59.522109 19.015625 60.162109 L 19.568359 60.775391 C 19.856359 60.511391 20.132484 60.319219 20.396484 60.199219 C 20.668484 60.079219 20.976313 60.017578 21.320312 60.017578 C 21.776312 60.017578 22.147547 60.142625 22.435547 60.390625 C 22.731547 60.630625 22.880859 60.970156 22.880859 61.410156 C 22.880859 61.882156 22.727828 62.242234 22.423828 62.490234 C 22.119828 62.730234 21.752312 62.849609 21.320312 62.849609 L 20.828125 62.849609 L 20.708984 63.654297 L 21.392578 63.654297 C 22.536578 63.654297 23.107422 64.178563 23.107422 65.226562 C 23.107422 65.746562 22.943234 66.158891 22.615234 66.462891 C 22.295234 66.758891 21.847484 66.90625 21.271484 66.90625 C 20.919484 66.90625 20.579953 66.839125 20.251953 66.703125 C 19.931953 66.559125 19.659547 66.353844 19.435547 66.089844 L 18.763672 66.642578 C 19.059672 67.002578 19.432859 67.274984 19.880859 67.458984 C 20.336859 67.642984 20.808875 67.734375 21.296875 67.734375 C 21.856875 67.734375 22.351203 67.626156 22.783203 67.410156 C 23.223203 67.194156 23.564688 66.893766 23.804688 66.509766 C 24.044687 66.125766 24.164062 65.698562 24.164062 65.226562 C 24.164062 64.618563 23.979328 64.139109 23.611328 63.787109 C 23.251328 63.435109 22.812969 63.239219 22.292969 63.199219 C 22.740969 63.111219 23.119641 62.891062 23.431641 62.539062 C 23.743641 62.179063 23.900391 61.759297 23.900391 61.279297 C 23.900391 60.903297 23.795891 60.558094 23.587891 60.246094 C 23.379891 59.926094 23.083219 59.674234 22.699219 59.490234 C 22.315219 59.298234 21.871187 59.203125 21.367188 59.203125 z M 21.427734 77.830078 L 19.003906 83.480469 L 19.003906 84.224609 L 22.435547 84.224609 L 22.435547 86.228516 L 23.408203 86.228516 L 23.408203 84.224609 L 24.476562 84.224609 L 24.476562 83.410156 L 23.408203 83.410156 L 23.408203 81.068359 L 22.53125 81.068359 L 22.447266 83.410156 L 20.072266 83.410156 L 22.267578 78.189453 L 21.427734 77.830078 z M 19.603516 96.587891 L 19.603516 100.7168 L 20.419922 100.7168 C 20.707922 100.6128 20.939234 100.54 21.115234 100.5 C 21.291234 100.46 21.487125 100.43945 21.703125 100.43945 C 22.159125 100.43945 22.524875 100.57938 22.796875 100.85938 C 23.068875 101.13137 23.203125 101.57913 23.203125 102.20312 C 23.203125 102.83512 23.052047 103.32025 22.748047 103.65625 C 22.444047 103.99225 22.016844 104.16016 21.464844 104.16016 C 20.784844 104.16016 20.1915 103.90458 19.6875 103.39258 L 19.064453 104.00391 C 19.744453 104.65991 20.544844 104.98828 21.464844 104.98828 C 22.024844 104.98828 22.515453 104.87634 22.939453 104.65234 C 23.363453 104.42034 23.688109 104.09569 23.912109 103.67969 C 24.144109 103.26369 24.259766 102.78423 24.259766 102.24023 C 24.259766 101.42423 24.052719 100.78803 23.636719 100.33203 C 23.228719 99.876031 22.680187 99.648438 21.992188 99.648438 C 21.736188 99.648438 21.491766 99.676422 21.259766 99.732422 C 21.035766 99.780422 20.808172 99.871813 20.576172 100.00781 L 20.576172 97.404297 L 23.839844 97.404297 L 23.984375 96.587891 L 19.603516 96.587891 z M 22.160156 115.08203 C 21.520156 115.08203 20.967906 115.26677 20.503906 115.63477 C 20.047906 116.00277 19.695266 116.52703 19.447266 117.20703 C 19.207266 117.87903 19.087891 118.67003 19.087891 119.58203 C 19.087891 120.87803 19.304328 121.87431 19.736328 122.57031 C 20.176328 123.26631 20.875938 123.61523 21.835938 123.61523 C 22.323937 123.61523 22.76425 123.49762 23.15625 123.26562 C 23.54825 123.03363 23.859797 122.69781 24.091797 122.25781 C 24.323797 121.80981 24.439453 121.29122 24.439453 120.69922 C 24.439453 120.13122 24.336906 119.65548 24.128906 119.27148 C 23.920906 118.87948 23.635391 118.58653 23.275391 118.39453 C 22.923391 118.20253 22.531609 118.10742 22.099609 118.10742 C 21.683609 118.10742 21.312375 118.19509 20.984375 118.37109 C 20.656375 118.54709 20.363422 118.82694 20.107422 119.21094 C 20.123422 118.19494 20.311875 117.39083 20.671875 116.79883 C 21.031875 116.19883 21.524438 115.89844 22.148438 115.89844 C 22.596437 115.89844 23.016203 116.01409 23.408203 116.24609 L 23.804688 115.57422 C 23.308688 115.24622 22.760156 115.08203 22.160156 115.08203 z M 21.943359 118.92188 C 22.919359 118.92188 23.408203 119.52638 23.408203 120.73438 C 23.408203 121.38237 23.272 121.88981 23 122.25781 C 22.736 122.61781 22.347937 122.79883 21.835938 122.79883 C 21.251938 122.79883 20.824734 122.58239 20.552734 122.15039 C 20.280734 121.71839 20.135141 121.02994 20.119141 120.08594 C 20.335141 119.72594 20.596391 119.44237 20.900391 119.23438 C 21.212391 119.02638 21.559359 118.92188 21.943359 118.92188 z M 19.304688 133.8418 L 19.304688 134.68164 L 23.179688 134.68164 L 19.964844 141.94141 L 20.900391 142.2168 L 24.199219 134.62109 L 24.199219 133.8418 L 19.304688 133.8418 z M 21.740234 152.33594 C 21.348234 152.33594 20.960172 152.41617 20.576172 152.57617 C 20.200172 152.72817 19.888625 152.96692 19.640625 153.29492 C 19.392625 153.62292 19.267578 154.02409 19.267578 154.49609 C 19.267578 154.95209 19.372078 155.32705 19.580078 155.62305 C 19.796078 155.91105 20.131891 156.16291 20.587891 156.37891 C 19.475891 156.89891 18.919922 157.61906 18.919922 158.53906 C 18.919922 158.97906 19.028141 159.37652 19.244141 159.72852 C 19.468141 160.08052 19.792797 160.36036 20.216797 160.56836 C 20.640797 160.76836 21.140797 160.86719 21.716797 160.86719 C 22.284797 160.86719 22.784797 160.76836 23.216797 160.56836 C 23.648797 160.36836 23.980891 160.08852 24.212891 159.72852 C 24.444891 159.36852 24.560547 158.96362 24.560547 158.51562 C 24.560547 158.02763 24.403797 157.5967 24.091797 157.2207 C 23.779797 156.8447 23.343203 156.54059 22.783203 156.30859 C 23.255203 156.04459 23.611563 155.76475 23.851562 155.46875 C 24.091562 155.17275 24.212891 154.82755 24.212891 154.43555 C 24.212891 153.97155 24.091562 153.58348 23.851562 153.27148 C 23.619563 152.95148 23.315453 152.71645 22.939453 152.56445 C 22.563453 152.41245 22.164234 152.33594 21.740234 152.33594 z M 21.740234 153.12695 C 22.212234 153.12695 22.576031 153.252 22.832031 153.5 C 23.096031 153.74 23.228516 154.06838 23.228516 154.48438 C 23.228516 154.83637 23.135172 155.12738 22.951172 155.35938 C 22.775172 155.58337 22.484172 155.81664 22.076172 156.05664 C 21.604172 155.90464 21.251531 155.77587 21.019531 155.67188 C 20.787531 155.55988 20.601031 155.41623 20.457031 155.24023 C 20.321031 155.05623 20.251953 154.81181 20.251953 154.50781 C 20.251953 154.06781 20.380719 153.72828 20.636719 153.48828 C 20.900719 153.24828 21.268234 153.12695 21.740234 153.12695 z M 21.271484 156.66797 C 21.831484 156.86797 22.25125 157.03216 22.53125 157.16016 C 22.81925 157.28816 23.052516 157.4635 23.228516 157.6875 C 23.404516 157.9035 23.492188 158.18706 23.492188 158.53906 C 23.492187 158.98706 23.335437 159.35281 23.023438 159.63281 C 22.711438 159.91281 22.276797 160.05273 21.716797 160.05273 C 21.156797 160.05273 20.727641 159.92025 20.431641 159.65625 C 20.135641 159.38425 19.988281 159.01106 19.988281 158.53906 C 19.988281 157.69106 20.415484 157.06797 21.271484 156.66797 z M 21.607422 170.97461 C 21.103422 170.97461 20.648234 171.08283 20.240234 171.29883 C 19.840234 171.50683 19.519297 171.81466 19.279297 172.22266 C 19.047297 172.63066 18.931641 173.12322 18.931641 173.69922 C 18.931641 174.23522 19.032422 174.70156 19.232422 175.10156 C 19.432422 175.49356 19.708547 175.79767 20.060547 176.01367 C 20.420547 176.22967 20.827203 176.33789 21.283203 176.33789 C 21.715203 176.33789 22.099547 176.24278 22.435547 176.05078 C 22.771547 175.85878 23.040234 175.61436 23.240234 175.31836 C 23.224234 176.27836 22.916406 177.03022 22.316406 177.57422 C 21.724406 178.11822 20.840062 178.5417 19.664062 178.8457 L 19.904297 179.61523 C 21.000297 179.31123 21.856656 178.96231 22.472656 178.57031 C 23.096656 178.17031 23.555563 177.62745 23.851562 176.93945 C 24.155562 176.25145 24.308594 175.32602 24.308594 174.16602 C 24.308594 173.15802 24.084719 172.37445 23.636719 171.81445 C 23.188719 171.25445 22.511422 170.97461 21.607422 170.97461 z M 21.607422 171.79102 C 22.199422 171.79102 22.628578 171.99063 22.892578 172.39062 C 23.156578 172.78262 23.279672 173.46169 23.263672 174.42969 C 22.775672 175.15769 22.171172 175.52344 21.451172 175.52344 C 20.979172 175.52344 20.615375 175.37784 20.359375 175.08984 C 20.111375 174.79384 19.988281 174.34237 19.988281 173.73438 C 19.988281 173.09438 20.124484 172.6112 20.396484 172.2832 C 20.668484 171.9552 21.071422 171.79102 21.607422 171.79102 z "
       style="font-style:normal;font-variant:normal;font-weight:300;font-stretch:normal;font-size:3.88055563px;line-height:1.26999998;font-family:Titillium;-inkscape-font-specification:'Titillium Light';text-align:start;letter-spacing:0px;word-spacing:0px;text-anchor:start;display:inline;opacity:1;fill:#999999;fill-opacity:1;stroke:none;stroke-width:0.56818068" />
    <rect
       ry="0.52916658"
       rx="0.52916676"
       y="99.614143"
       x="-88.181908"
       height="53.599701"
       width="285.48541"
       id="rect14742"
       style="display:inline;opacity:1;fill:none;fill-opacity:1;stroke:#000000;stroke-width:0.26458332;stroke-linecap:round;stroke-linejoin:miter;stroke-miterlimit:4;stroke-dasharray:none;stroke-dashoffset:0;stroke-opacity:1;paint-order:markers fill stroke" />
    <path
       id="text6727"
       d="m -72.519315,104.96606 -0.32608,0.0388 v 0.46199 h -0.469739 v 0.2558 h 0.469739 v 1.21853 c 0,0.18368 0.06081,0.33266 0.18242,0.44648 0.121589,0.11125 0.289631,0.16692 0.504362,0.16692 0.0983,0 0.196762,-0.0129 0.295071,-0.0388 0.100891,-0.0259 0.186465,-0.0625 0.256315,-0.10904 l -0.128156,-0.22117 c -0.121592,0.0647 -0.252526,0.0971 -0.392226,0.0971 -0.13711,0 -0.236599,-0.0283 -0.298689,-0.0853 -0.0621,-0.0569 -0.09302,-0.14351 -0.09302,-0.25993 v -1.21491 h 0.667142 l 0.04289,-0.2558 h -0.710034 z m 2.326471,0 -0.325559,0.0388 v 0.46199 h -0.469739 v 0.2558 h 0.469739 v 1.21853 c 0,0.18368 0.06081,0.33266 0.182417,0.44648 0.121589,0.11125 0.289631,0.16692 0.504362,0.16692 0.0983,0 0.196763,-0.0129 0.295071,-0.0388 0.100891,-0.0259 0.185949,-0.0625 0.255799,-0.10904 l -0.128159,-0.22117 c -0.121589,0.0647 -0.252005,0.0971 -0.391705,0.0971 -0.137109,0 -0.236601,-0.0283 -0.29869,-0.0853 -0.0621,-0.0569 -0.09354,-0.14351 -0.09354,-0.25993 v -1.21491 h 0.66766 l 0.04289,-0.2558 h -0.710552 z m 6.980455,0 -0.325562,0.0388 v 0.46199 h -0.469739 v 0.2558 h 0.469739 v 1.21853 c 0,0.18368 0.0608,0.33266 0.182417,0.44648 0.121589,0.11125 0.289642,0.16692 0.504362,0.16692 0.0983,0 0.196762,-0.0129 0.295074,-0.0388 0.100898,-0.0259 0.185946,-0.0625 0.255796,-0.10904 l -0.128156,-0.22117 c -0.121592,0.0647 -0.252008,0.0971 -0.391708,0.0971 -0.137109,0 -0.236601,-0.0283 -0.298691,-0.0853 -0.0621,-0.0569 -0.09353,-0.14351 -0.09353,-0.25993 v -1.21491 h 0.667657 l 0.04289,-0.2558 h -0.710549 z m -11.645284,0.45786 c -0.20697,0 -0.431194,0.0428 -0.671796,0.12816 l 0.0894,0.24856 c 0.199202,-0.0699 0.376531,-0.1049 0.531751,-0.1049 0.157811,0 0.277921,0.0326 0.360701,0.0971 0.0828,0.0621 0.12454,0.16518 0.12454,0.31006 v 0.16691 H -74.7259 c -0.307858,0 -0.544465,0.0572 -0.710033,0.17105 -0.162991,0.11383 -0.24443,0.27517 -0.24443,0.48472 0,0.19145 0.05831,0.34403 0.174667,0.45786 0.11901,0.11383 0.280345,0.17105 0.484725,0.17105 0.134519,0 0.256185,-0.0247 0.364834,-0.0739 0.111252,-0.0492 0.202996,-0.12029 0.275436,-0.21342 0.0492,0.16816 0.173377,0.26506 0.372587,0.29093 l 0.08165,-0.23254 c -0.0595,-0.0181 -0.102288,-0.0455 -0.128159,-0.0816 -0.0259,-0.0388 -0.03876,-0.0981 -0.03876,-0.17828 v -0.98186 c 0,-0.20697 -0.066,-0.36883 -0.197922,-0.48524 -0.129345,-0.11642 -0.318019,-0.17466 -0.566368,-0.17466 z m 7.084838,0 c -0.178509,0 -0.334693,0.0469 -0.469223,0.14004 -0.134519,0.0906 -0.238146,0.21683 -0.310576,0.37982 -0.0724,0.16039 -0.108518,0.34288 -0.108518,0.54726 0,0.32338 0.0814,0.58215 0.244427,0.77618 0.165571,0.19143 0.395478,0.28732 0.690398,0.28732 0.12418,0 0.247381,-0.0206 0.36897,-0.062 0.124179,-0.0414 0.233976,-0.0996 0.329694,-0.17466 l -0.15141,-0.21756 c -0.0957,0.0621 -0.185931,0.10899 -0.271301,0.14004 -0.0828,0.0284 -0.175054,0.0424 -0.275953,0.0424 -0.16815,0 -0.307856,-0.0567 -0.419094,-0.17053 -0.108662,-0.11383 -0.166391,-0.28343 -0.174152,-0.5085 h 1.373561 c 0.005,-0.0569 0.0078,-0.11517 0.0078,-0.17467 0,-0.31045 -0.0753,-0.55479 -0.225311,-0.73328 -0.14746,-0.18111 -0.350565,-0.27182 -0.609264,-0.27182 z m 2.307352,0 c -0.232839,0 -0.419949,0.0505 -0.56224,0.15141 -0.14229,0.1009 -0.213423,0.23698 -0.213423,0.40773 0,0.16557 0.05669,0.29083 0.170532,0.3762 0.113831,0.0828 0.289618,0.15391 0.527616,0.21342 0.14229,0.0362 0.248478,0.0723 0.318328,0.10853 0.0699,0.0336 0.116237,0.0723 0.139525,0.11627 0.02331,0.0414 0.03514,0.096 0.03514,0.1633 0,0.0983 -0.0454,0.17716 -0.135909,0.23667 -0.0906,0.0595 -0.213222,0.0894 -0.368453,0.0894 -0.116409,0 -0.227769,-0.0196 -0.333828,-0.0584 -0.106071,-0.0414 -0.200408,-0.0955 -0.283189,-0.16278 l -0.182417,0.21342 c 0.212141,0.18368 0.478645,0.27544 0.799434,0.27544 0.240601,0 0.443695,-0.0505 0.609266,-0.15142 0.165571,-0.1009 0.248047,-0.25347 0.248047,-0.45785 0,-0.17592 -0.0557,-0.30942 -0.166915,-0.39998 -0.108651,-0.0931 -0.274121,-0.16942 -0.49661,-0.22892 -0.14746,-0.0414 -0.25881,-0.0759 -0.33383,-0.10439 -0.0724,-0.031 -0.125007,-0.0661 -0.158646,-0.1049 -0.031,-0.0388 -0.04703,-0.0893 -0.04703,-0.15141 0,-0.17851 0.147947,-0.26769 0.442867,-0.26769 0.121589,0 0.228814,0.0165 0.321945,0.0501 0.0931,0.031 0.182314,0.0764 0.267684,0.13591 l 0.147281,-0.22479 c -0.21214,-0.15005 -0.460605,-0.22531 -0.745175,-0.22531 z m -2.303219,0.26768 c 0.15781,0 0.282038,0.0572 0.372589,0.17105 0.0905,0.11383 0.136935,0.27776 0.139525,0.49248 h -1.062985 c 0.01291,-0.21731 0.0681,-0.38123 0.166399,-0.49248 0.0983,-0.11383 0.226664,-0.17105 0.384472,-0.17105 z m -6.949446,0.80357 h 0.295072 v 0.524 c -0.0595,0.0906 -0.135795,0.16169 -0.228926,0.21342 -0.0905,0.0517 -0.18643,0.0775 -0.287321,0.0775 -0.26129,0 -0.392224,-0.12939 -0.392224,-0.38809 0,-0.1397 0.0479,-0.24589 0.143661,-0.31833 0.0957,-0.0724 0.252428,-0.10852 0.469738,-0.10852 z m 6.914306,7.83156 c -0.0699,0 -0.126552,0.0216 -0.170531,0.0656 -0.0414,0.0414 -0.06201,0.096 -0.06201,0.1633 1e-5,0.0673 0.02061,0.12293 0.06201,0.16691 0.044,0.0414 0.100681,0.062 0.170531,0.062 0.0724,0 0.130686,-0.0206 0.174668,-0.062 0.044,-0.044 0.06615,-0.0997 0.06615,-0.16691 0,-0.0673 -0.02225,-0.12191 -0.06615,-0.1633 -0.044,-0.044 -0.102227,-0.0656 -0.174668,-0.0656 z m -1.896006,0.093 c -0.21472,0 -0.393079,0.0567 -0.535369,0.17054 -0.1397,0.11125 -0.209807,0.25918 -0.209807,0.44286 v 0.40721 h -0.484724 v 0.25994 h 0.484724 v 1.62625 h 0.330214 v -1.62626 h 0.655772 l 0.03462,-0.25993 h -0.690392 v -0.41496 c 0,-0.22507 0.142266,-0.33797 0.426847,-0.33797 0.162978,0 0.308866,0.0283 0.438216,0.0853 l 0.104902,-0.24443 c -0.175919,-0.0724 -0.360974,-0.10852 -0.555003,-0.10852 z m 3.291787,0.0388 v 0.25994 h 0.628385 v 2.08772 c 0,0.17333 0.0546,0.31046 0.163298,0.41135 0.111239,0.1009 0.25867,0.15141 0.442349,0.15141 0.194032,0 0.355375,-0.0351 0.484728,-0.1049 l -0.08527,-0.23668 c -0.121589,0.0466 -0.235511,0.0698 -0.341582,0.0698 -0.225068,0 -0.337447,-0.0918 -0.337447,-0.27543 v -2.36317 z m 3.195672,0.32195 -0.325562,0.0393 v 0.46147 h -0.469739 v 0.25631 h 0.469739 v 1.21853 c 0,0.18368 0.0608,0.33214 0.182417,0.44597 0.121589,0.11124 0.289642,0.16692 0.504362,0.16692 0.0983,0 0.196762,-0.0129 0.295074,-0.0388 0.100898,-0.0259 0.185946,-0.0619 0.255796,-0.10852 l -0.128156,-0.22118 c -0.121592,0.0647 -0.252008,0.0966 -0.391708,0.0966 -0.137109,0 -0.236601,-0.0284 -0.298691,-0.0853 -0.0621,-0.0569 -0.09353,-0.14351 -0.09353,-0.25993 v -1.2144 h 0.667657 l 0.04289,-0.25631 h -0.710549 z m 2.420007,0.45837 c -0.178509,0 -0.334693,0.0464 -0.469223,0.13952 -0.134519,0.0906 -0.238135,0.21736 -0.310573,0.38034 -0.0724,0.1604 -0.108521,0.34289 -0.108521,0.54726 0,0.32337 0.0814,0.58163 0.24443,0.77566 0.165568,0.19144 0.395475,0.28732 0.690396,0.28732 0.124179,0 0.24738,-0.0206 0.368969,-0.062 0.124172,-0.0414 0.233976,-0.0996 0.329697,-0.17466 l -0.151413,-0.21706 c -0.0957,0.0621 -0.185931,0.10848 -0.271301,0.13953 -0.0828,0.0284 -0.175062,0.0424 -0.275952,0.0424 -0.168159,0 -0.307856,-0.0567 -0.419095,-0.17053 -0.108662,-0.11383 -0.166391,-0.28342 -0.174152,-0.50849 h 1.373561 c 0.005,-0.0569 0.0078,-0.11516 0.0078,-0.17467 0,-0.31044 -0.0753,-0.55479 -0.225308,-0.73329 -0.147509,-0.1811 -0.350613,-0.2713 -0.609315,-0.2713 z m 2.901117,0 c -0.175911,0 -0.321808,0.0438 -0.438219,0.13177 -0.113829,0.088 -0.212281,0.21992 -0.295071,0.39584 l -0.06201,-0.48524 h -0.566375 v 0.25218 h 0.321945 v 1.54048 h -0.321945 v 0.25269 h 1.062985 v -0.25269 h -0.414962 v -0.86145 c 0.13194,-0.45015 0.355656,-0.67489 0.671277,-0.67489 h 0.01913 v 0.43821 h 0.264068 l 0.04651,-0.69453 c -0.108648,-0.0285 -0.204531,-0.0424 -0.287319,-0.0424 z m -10.58747,0.0424 v 0.25993 h 0.609264 v 1.52497 h -0.628902 v 0.26045 h 1.529107 v -0.26045 h -0.574644 v -1.7849 z m 7.690489,0.22531 c 0.157808,0 0.282035,0.0567 0.372586,0.17053 0.0905,0.11383 0.136945,0.27827 0.139525,0.49299 h -1.062985 c 0.01291,-0.21731 0.0681,-0.38175 0.1664,-0.49299 0.0983,-0.11383 0.226663,-0.17053 0.384474,-0.17053 z m -4.238505,13.69167 v 1.0635 c -0.142288,-0.16298 -0.3258,-0.24443 -0.550871,-0.24443 -0.162978,0 -0.305255,0.0464 -0.426847,0.13953 -0.118999,0.0905 -0.210764,0.21734 -0.275433,0.38034 -0.0647,0.16039 -0.09715,0.34287 -0.09715,0.54725 0,0.33114 0.06441,0.59094 0.193786,0.77979 0.13194,0.18886 0.327311,0.28319 0.586013,0.28319 0.113829,0 0.220014,-0.0258 0.318325,-0.0775 0.0983,-0.0517 0.184912,-0.12958 0.259932,-0.23306 l 0.03101,0.2682 h 0.287321 V 129.237 Z m -4.498433,0.81907 c -0.175918,0 -0.321797,0.0438 -0.438216,0.13177 -0.113829,0.088 -0.212291,0.21993 -0.295071,0.39585 l -0.06201,-0.48525 h -0.566891 v 0.25219 h 0.322461 v 1.54047 h -0.322461 v 0.2527 h 1.063503 v -0.2527 h -0.41548 v -0.86145 c 0.131939,-0.45013 0.355658,-0.67489 0.671277,-0.67489 h 0.01963 v 0.43821 h 0.264067 l 0.04651,-0.69453 c -0.108651,-0.0285 -0.204531,-0.0424 -0.287322,-0.0424 z m 1.752349,0 c -0.178509,0 -0.334693,0.0464 -0.469223,0.13953 -0.134519,0.0905 -0.238146,0.21734 -0.310576,0.38034 -0.0724,0.16039 -0.108518,0.34287 -0.108518,0.54725 0,0.32338 0.0814,0.58215 0.244427,0.77618 0.165571,0.19144 0.395478,0.2868 0.690398,0.2868 0.12418,0 0.247381,-0.0206 0.36897,-0.062 0.124179,-0.0414 0.233976,-0.0996 0.329694,-0.17466 l -0.15141,-0.21704 c -0.0957,0.0621 -0.185931,0.10848 -0.271301,0.13952 -0.0828,0.0285 -0.175054,0.0429 -0.275953,0.0429 -0.16815,0 -0.307856,-0.0572 -0.419094,-0.17105 -0.108662,-0.11383 -0.166391,-0.28342 -0.174152,-0.50849 h 1.373561 c 0.005,-0.0569 0.0078,-0.11517 0.0078,-0.17467 0,-0.31044 -0.0753,-0.55478 -0.225311,-0.73329 -0.14746,-0.18109 -0.350565,-0.2713 -0.609264,-0.2713 z m 7.10086,0 c -0.1992,0 -0.371377,0.0464 -0.516247,0.13953 -0.144881,0.0931 -0.255694,0.22097 -0.333315,0.38395 -0.075,0.16299 -0.112654,0.34702 -0.112654,0.55139 0,0.32338 0.084,0.58061 0.252182,0.77204 0.170739,0.18886 0.407353,0.28319 0.710034,0.28319 0.119009,0 0.24221,-0.0216 0.368969,-0.0656 0.12677,-0.044 0.232439,-0.10377 0.31781,-0.1788 l -0.155028,-0.21342 c -0.175921,0.11901 -0.353242,0.1788 -0.531751,0.1788 -0.186262,0 -0.334727,-0.0634 -0.445969,-0.19017 -0.108659,-0.12935 -0.163295,-0.32472 -0.163295,-0.58601 0,-0.26129 0.0546,-0.45923 0.163295,-0.59376 0.111242,-0.13711 0.25867,-0.20567 0.442352,-0.20567 0.173328,0 0.349115,0.0593 0.527616,0.17828 l 0.159163,-0.21342 c -0.191439,-0.16041 -0.419283,-0.2403 -0.683162,-0.2403 z m 2.206582,0 c -0.178509,0 -0.335208,0.0464 -0.469738,0.13953 -0.13453,0.0905 -0.237617,0.21734 -0.310058,0.38034 -0.0724,0.16039 -0.109037,0.34287 -0.109037,0.54725 0,0.32338 0.0814,0.58215 0.24443,0.77618 0.165568,0.19144 0.395983,0.2868 0.690912,0.2868 0.124171,0 0.24738,-0.0206 0.368972,-0.062 0.124169,-0.0414 0.233974,-0.0996 0.329694,-0.17466 l -0.151413,-0.21704 c -0.0957,0.0621 -0.186446,0.10848 -0.271817,0.13952 -0.0828,0.0285 -0.174545,0.0429 -0.275436,0.0429 -0.168159,0 -0.307856,-0.0572 -0.419095,-0.17105 -0.108659,-0.11383 -0.166896,-0.28342 -0.174667,-0.50849 h 1.374076 c 0.005,-0.0569 0.0078,-0.11517 0.0078,-0.17467 0,-0.31044 -0.0753,-0.55478 -0.225309,-0.73329 -0.14746,-0.18109 -0.350565,-0.2713 -0.609267,-0.2713 z m -5.460649,0.0424 v 1.48622 c 0,0.19403 0.049,0.343 0.147278,0.44648 0.100891,0.10349 0.248322,0.15503 0.442351,0.15503 0.121589,0 0.240673,-0.0273 0.357084,-0.0816 0.118999,-0.0569 0.218488,-0.13579 0.298689,-0.23668 l 0.02739,0.27595 h 0.279054 v -2.04535 h -0.325562 v 1.50585 c -0.0595,0.0931 -0.139922,0.17046 -0.240813,0.23255 -0.100899,0.0621 -0.205542,0.0935 -0.314193,0.0935 -0.11901,0 -0.207156,-0.0299 -0.264067,-0.0894 -0.0543,-0.0621 -0.08113,-0.159 -0.08113,-0.29094 v -1.45159 z m -1.566312,0.22118 c 0.0931,0 0.179731,0.0231 0.259932,0.0698 0.0802,0.044 0.148751,0.10893 0.205671,0.1943 v 1.01648 c -0.142288,0.21732 -0.31033,0.32607 -0.504359,0.32607 -0.160401,0 -0.283602,-0.067 -0.368972,-0.20153 -0.0828,-0.13711 -0.124024,-0.33764 -0.124024,-0.60152 0,-0.26646 0.04539,-0.46699 0.135911,-0.60151 0.0931,-0.13453 0.225092,-0.20205 0.395841,-0.20205 z m -2.276348,0.004 c 0.15781,0 0.282038,0.0567 0.372589,0.17053 0.0905,0.11383 0.136935,0.27826 0.139525,0.49299 h -1.062985 c 0.01291,-0.21732 0.0681,-0.38175 0.166399,-0.49299 0.0983,-0.11383 0.226664,-0.17053 0.384472,-0.17053 z m 9.307445,0 c 0.157811,0 0.28153,0.0567 0.37207,0.17053 0.0905,0.11383 0.137462,0.27826 0.140041,0.49299 h -1.0635 c 0.01291,-0.21732 0.0686,-0.38175 0.166915,-0.49299 0.0983,-0.11383 0.226663,-0.17053 0.384474,-0.17053 z"
       style="font-style:normal;font-variant:normal;font-weight:300;font-stretch:normal;font-size:3.88055563px;line-height:1.25;font-family:Titillium;-inkscape-font-specification:'Titillium Light';text-align:start;letter-spacing:0px;word-spacing:0px;text-anchor:start;display:inline;opacity:1;fill:#c683d6;fill-opacity:1;stroke:none;stroke-width:0.15033114" />
    <path
       id="text6825"
       d="m -50.12068,114.45851 v 0.25993 h 0.628901 v 2.08773 c 0,0.17333 0.05413,0.31045 0.16278,0.41134 0.111244,0.1009 0.258672,0.15142 0.442351,0.15142 0.194027,0 0.355889,-0.0351 0.485241,-0.10491 l -0.08526,-0.23668 c -0.121592,0.0466 -0.235513,0.0698 -0.341582,0.0698 -0.225073,0 -0.337447,-0.0917 -0.337447,-0.27543 v -2.36316 z m 23.268347,0 v 0.25993 h 0.628901 v 2.08773 c 0,0.17333 0.05413,0.31045 0.16278,0.41134 0.111244,0.1009 0.258672,0.15142 0.442351,0.15142 0.194027,0 0.355889,-0.0351 0.485241,-0.10491 l -0.08578,-0.23668 c -0.121589,0.0466 -0.234995,0.0698 -0.341064,0.0698 -0.225073,0 -0.337963,-0.0917 -0.337963,-0.27543 v -2.36316 z m -24.73751,0.78031 c -0.206962,0 -0.430681,0.0423 -0.671277,0.12764 l 0.0894,0.24857 c 0.199202,-0.0699 0.376529,-0.10491 0.531752,-0.10491 0.157808,0 0.277916,0.0325 0.360701,0.0971 0.08279,0.0621 0.124023,0.16571 0.124023,0.31058 v 0.16692 h -0.302307 c -0.307856,0 -0.544981,0.0567 -0.710552,0.17053 -0.162983,0.11383 -0.244427,0.27569 -0.244427,0.48524 0,0.19144 0.05825,0.34402 0.174664,0.45785 0.119005,0.11383 0.280866,0.17054 0.485244,0.17054 0.134524,0 0.25618,-0.0247 0.364834,-0.0739 0.111244,-0.0491 0.202998,-0.12029 0.275436,-0.21343 0.04915,0.16816 0.173384,0.26559 0.372586,0.29146 l 0.08165,-0.23306 c -0.0595,-0.0181 -0.102288,-0.0454 -0.128159,-0.0816 -0.02588,-0.0388 -0.03876,-0.0981 -0.03876,-0.17829 v -0.98185 c 0,-0.20696 -0.06598,-0.36883 -0.197922,-0.48524 -0.129352,-0.11642 -0.318534,-0.17415 -0.566891,-0.17415 z m 7.085357,0 c -0.178507,0 -0.335214,0.0464 -0.469739,0.13953 -0.134527,0.0906 -0.237622,0.21735 -0.31006,0.38034 -0.07244,0.16039 -0.109037,0.34287 -0.109037,0.54725 0,0.32338 0.08145,0.58164 0.24443,0.77566 0.165571,0.19145 0.395991,0.28733 0.690914,0.28733 0.124177,0 0.24738,-0.0206 0.368969,-0.062 0.124177,-0.0414 0.233977,-0.0996 0.329695,-0.17467 l -0.15141,-0.21704 c -0.09572,0.0621 -0.186447,0.10848 -0.271817,0.13953 -0.08279,0.0285 -0.174543,0.0424 -0.275437,0.0424 -0.168158,0 -0.307853,-0.0567 -0.419095,-0.17054 -0.108656,-0.11383 -0.166907,-0.28342 -0.174667,-0.50849 h 1.374077 c 0.0052,-0.0569 0.0078,-0.11517 0.0078,-0.17467 0,-0.31044 -0.07526,-0.55478 -0.225311,-0.73329 -0.147461,-0.18109 -0.35056,-0.2713 -0.609264,-0.2713 z m 16.18299,0 c -0.206962,0 -0.430683,0.0423 -0.671277,0.12764 l 0.0894,0.24857 c 0.199202,-0.0699 0.376012,-0.10491 0.531233,-0.10491 0.15781,0 0.278434,0.0325 0.361219,0.0971 0.08279,0.0621 0.124024,0.16571 0.124024,0.31058 v 0.16692 h -0.302823 c -0.307858,0 -0.544465,0.0567 -0.710036,0.17053 -0.162983,0.11383 -0.244427,0.27569 -0.244427,0.48524 0,0.19144 0.05825,0.34402 0.174665,0.45785 0.119004,0.11383 0.280865,0.17054 0.485243,0.17054 0.134525,0 0.255661,-0.0247 0.364318,-0.0739 0.111241,-0.0491 0.203515,-0.12029 0.275952,-0.21343 0.04916,0.16816 0.172869,0.26559 0.372071,0.29146 l 0.08165,-0.23306 c -0.0595,-0.0181 -0.102287,-0.0454 -0.128156,-0.0816 -0.02588,-0.0388 -0.03876,-0.0981 -0.03876,-0.17829 v -0.98185 c 0,-0.20696 -0.06598,-0.36883 -0.197918,-0.48524 -0.129353,-0.11642 -0.318019,-0.17415 -0.566376,-0.17415 z m 7.085357,0 c -0.178506,0 -0.335214,0.0464 -0.469739,0.13953 -0.134527,0.0906 -0.238138,0.21735 -0.310575,0.38034 -0.07244,0.16039 -0.108522,0.34287 -0.108522,0.54725 0,0.32338 0.08145,0.58164 0.24443,0.77566 0.165571,0.19145 0.395991,0.28733 0.690914,0.28733 0.124177,0 0.246862,-0.0206 0.368454,-0.062 0.124177,-0.0414 0.233974,-0.0996 0.329695,-0.17467 l -0.150895,-0.21704 c -0.09572,0.0621 -0.186447,0.10848 -0.27182,0.13953 -0.08278,0.0285 -0.17454,0.0424 -0.275434,0.0424 -0.168158,0 -0.307853,-0.0567 -0.419097,-0.17054 -0.108654,-0.11383 -0.166904,-0.28342 -0.174665,-0.50849 h 1.373558 c 0.0052,-0.0569 0.0078,-0.11517 0.0078,-0.17467 0,-0.31044 -0.07475,-0.55478 -0.224793,-0.73329 -0.14746,-0.18109 -0.35056,-0.2713 -0.609264,-0.2713 z m -33.538007,0.0424 0.741043,2.04536 h 0.376719 l 0.745175,-2.04536 h -0.341582 l -0.582393,1.75029 -0.589627,-1.75029 z m 7.135485,0 v 1.48622 c 0,0.19403 0.04948,0.343 0.147793,0.44648 0.100894,0.10348 0.248322,0.15503 0.442349,0.15503 0.121592,0 0.240668,-0.0273 0.357085,-0.0816 0.119004,-0.0569 0.218493,-0.13578 0.29869,-0.23668 l 0.02687,0.27596 h 0.279569 v -2.04536 h -0.326078 v 1.50586 c -0.0595,0.0931 -0.139401,0.17045 -0.240294,0.23254 -0.100897,0.0621 -0.205539,0.0935 -0.314193,0.0935 -0.119004,0 -0.207153,-0.0299 -0.264068,-0.0894 -0.05433,-0.0621 -0.08165,-0.159 -0.08165,-0.29094 v -1.45159 z m 16.132863,0 0.741042,2.04536 h 0.376203 l 0.745175,-2.04536 h -0.341582 l -0.581877,1.75029 -0.589627,-1.75029 z m 7.135482,0 v 1.48622 c 0,0.19403 0.04897,0.343 0.14728,0.44648 0.100893,0.10348 0.248838,0.15503 0.442865,0.15503 0.121592,0 0.240151,-0.0273 0.356568,-0.0816 0.119004,-0.0569 0.219009,-0.13578 0.299207,-0.23668 l 0.02687,0.27596 h 0.279569 v -2.04536 h -0.326078 v 1.50586 c -0.0595,0.0931 -0.139917,0.17045 -0.240813,0.23254 -0.100893,0.0621 -0.205536,0.0935 -0.314192,0.0935 -0.119002,0 -0.206635,-0.0299 -0.263549,-0.0894 -0.05433,-0.0621 -0.08165,-0.159 -0.08165,-0.29094 v -1.45159 z m -20.130038,0.22531 c 0.157811,0 0.281525,0.0567 0.372071,0.17054 0.09055,0.11383 0.137456,0.27826 0.140044,0.49299 h -1.063501 c 0.01294,-0.21731 0.06861,-0.38175 0.166915,-0.49299 0.09831,-0.11384 0.226663,-0.17054 0.384471,-0.17054 z m 23.267832,0 c 0.157808,0 0.28204,0.0567 0.372586,0.17054 0.09055,0.11383 0.13694,0.27826 0.139528,0.49299 h -1.062985 c 0.01294,-0.21731 0.06861,-0.38175 0.166915,-0.49299 0.09831,-0.11384 0.226145,-0.17054 0.383956,-0.17054 z m -30.217277,0.80305 h 0.294555 v 0.524 c -0.0595,0.0905 -0.135792,0.16169 -0.228928,0.21343 -0.09054,0.0517 -0.185909,0.0775 -0.286803,0.0775 -0.261289,0 -0.392223,-0.12939 -0.392223,-0.38809 0,-0.1397 0.04794,-0.24589 0.143661,-0.31833 0.09572,-0.0724 0.252425,-0.10852 0.469738,-0.10852 z m 23.267829,0 h 0.295074 v 0.524 c -0.0595,0.0905 -0.135795,0.16169 -0.228928,0.21343 -0.09055,0.0517 -0.186426,0.0775 -0.287319,0.0775 -0.261292,0 -0.391708,-0.12939 -0.391708,-0.38809 0,-0.1397 0.04794,-0.24589 0.143661,-0.31833 0.09572,-0.0724 0.25191,-0.10852 0.46922,-0.10852 z m -21.93871,12.92738 v 0.25994 h 0.628901 v 2.08772 c 0,0.17333 0.05413,0.31045 0.16278,0.41135 0.111244,0.10089 0.258672,0.15141 0.442351,0.15141 0.194027,0 0.355889,-0.035 0.485241,-0.1049 l -0.08526,-0.23668 c -0.121592,0.0466 -0.235513,0.0703 -0.341582,0.0703 -0.225073,0 -0.337447,-0.0923 -0.337447,-0.27595 v -2.36317 z m 25.595336,0 v 0.25994 h 0.628386 v 2.08772 c 0,0.17333 0.05464,0.31045 0.163295,0.41135 0.111244,0.10089 0.258673,0.15141 0.442352,0.15141 0.194027,0 0.355372,-0.035 0.484724,-0.1049 l -0.08527,-0.23668 c -0.121589,0.0466 -0.235511,0.0703 -0.34158,0.0703 -0.225073,0 -0.337447,-0.0923 -0.337447,-0.27595 v -2.36317 z m 5.522659,0.32195 -0.326078,0.0393 v 0.46147 h -0.469223 v 0.25631 h 0.469223 v 1.21853 c 0,0.18368 0.06083,0.33214 0.18242,0.44597 0.121589,0.11124 0.290152,0.16692 0.504877,0.16692 0.09831,0 0.196247,-0.0129 0.294556,-0.0388 0.100893,-0.0259 0.186465,-0.0619 0.256315,-0.10852 l -0.128159,-0.22118 c -0.121589,0.0647 -0.252005,0.0971 -0.391705,0.0971 -0.137115,0 -0.23712,-0.0289 -0.299207,-0.0858 -0.06209,-0.0569 -0.09302,-0.14351 -0.09302,-0.25993 v -1.2144 h 0.66766 l 0.04238,-0.25631 h -0.710036 z m -32.587158,0.45837 c -0.206962,0 -0.430681,0.0423 -0.671277,0.12764 l 0.0894,0.24856 c 0.199202,-0.0699 0.376529,-0.1049 0.531752,-0.1049 0.157808,0 0.277916,0.0325 0.360701,0.0972 0.08279,0.0621 0.124023,0.1657 0.124023,0.31058 v 0.16691 h -0.302307 c -0.307856,0 -0.544981,0.0567 -0.710552,0.17053 -0.162983,0.11383 -0.244427,0.2757 -0.244427,0.48525 0,0.19144 0.05825,0.34402 0.174664,0.45785 0.119005,0.11383 0.280866,0.17053 0.485244,0.17053 0.134524,0 0.25618,-0.0242 0.364834,-0.0734 0.111244,-0.0491 0.202998,-0.12029 0.275436,-0.21342 0.04915,0.16816 0.173384,0.26507 0.372586,0.29094 l 0.08165,-0.23306 c -0.0595,-0.0181 -0.102288,-0.0454 -0.128159,-0.0816 -0.02588,-0.0388 -0.03876,-0.0981 -0.03876,-0.17829 v -0.98185 c 0,-0.20696 -0.06598,-0.36883 -0.197922,-0.48524 -0.129352,-0.11642 -0.318534,-0.17415 -0.566891,-0.17415 z m 7.085357,0 c -0.178507,0 -0.335214,0.0464 -0.469739,0.13952 -0.134527,0.0906 -0.237622,0.21736 -0.31006,0.38034 -0.07244,0.1604 -0.109037,0.34288 -0.109037,0.54726 0,0.32338 0.08145,0.58215 0.24443,0.77618 0.165571,0.19144 0.395991,0.2868 0.690914,0.2868 0.124177,0 0.24738,-0.0206 0.368969,-0.062 0.124177,-0.0414 0.233977,-0.0996 0.329695,-0.17467 l -0.15141,-0.21704 c -0.09572,0.0621 -0.186447,0.10849 -0.271817,0.13953 -0.08279,0.0285 -0.174543,0.0429 -0.275437,0.0429 -0.168158,0 -0.307853,-0.0572 -0.419095,-0.17105 -0.108656,-0.11383 -0.166907,-0.28342 -0.174667,-0.50849 h 1.374077 c 0.0052,-0.0569 0.0078,-0.11517 0.0078,-0.17467 0,-0.31044 -0.07526,-0.55478 -0.225311,-0.73329 -0.147461,-0.18109 -0.35056,-0.2713 -0.609264,-0.2713 z m 6.875549,0 c -0.206965,0 -0.430683,0.0423 -0.671277,0.12764 l 0.0894,0.24856 c 0.199203,-0.0699 0.376529,-0.1049 0.531749,-0.1049 0.157811,0 0.277919,0.0325 0.360702,0.0972 0.08279,0.0621 0.124023,0.1657 0.124023,0.31058 v 0.16691 h -0.302305 c -0.307858,0 -0.544981,0.0567 -0.710552,0.17053 -0.162983,0.11383 -0.24443,0.2757 -0.24443,0.48525 0,0.19144 0.05825,0.34402 0.174668,0.45785 0.119004,0.11383 0.280865,0.17053 0.48524,0.17053 0.134528,0 0.25618,-0.0242 0.364837,-0.0734 0.111241,-0.0491 0.202999,-0.12029 0.275434,-0.21342 0.04915,0.16816 0.173386,0.26507 0.372589,0.29094 l 0.08165,-0.23306 c -0.0595,-0.0181 -0.102288,-0.0454 -0.128156,-0.0816 -0.02588,-0.0388 -0.03876,-0.0981 -0.03876,-0.17829 v -0.98185 c 0,-0.20696 -0.06598,-0.36883 -0.197921,-0.48524 -0.12935,-0.11642 -0.318535,-0.17415 -0.566889,-0.17415 z m 2.551782,0 c -0.199202,0 -0.370858,0.0464 -0.515731,0.13952 -0.144875,0.0931 -0.25622,0.22098 -0.33383,0.38396 -0.07503,0.16298 -0.112654,0.34701 -0.112654,0.55139 0,0.32338 0.08402,0.5806 0.25218,0.77204 0.170746,0.18886 0.407352,0.28319 0.710035,0.28319 0.119005,0 0.242205,-0.0216 0.36897,-0.0656 0.126764,-0.044 0.232955,-0.10378 0.318325,-0.1788 l -0.155546,-0.21342 c -0.175918,0.119 -0.353245,0.1788 -0.531749,0.1788 -0.186266,0 -0.334724,-0.0634 -0.445968,-0.19017 -0.108657,-0.12935 -0.16278,-0.32472 -0.16278,-0.58601 0,-0.26129 0.05412,-0.45924 0.16278,-0.59377 0.111244,-0.13711 0.25867,-0.20567 0.442351,-0.20567 0.173332,0 0.34911,0.0593 0.527617,0.17829 l 0.159162,-0.21343 c -0.191441,-0.16039 -0.419285,-0.24029 -0.683162,-0.24029 z m 2.32699,0 c -0.199203,0 -0.371375,0.0464 -0.516247,0.13952 -0.144876,0.0931 -0.255702,0.22098 -0.333315,0.38396 -0.07502,0.16298 -0.112654,0.34701 -0.112654,0.55139 0,0.32338 0.08402,0.5806 0.252182,0.77204 0.170744,0.18886 0.40735,0.28319 0.710034,0.28319 0.119004,0 0.242204,-0.0216 0.368969,-0.0656 0.126764,-0.044 0.232439,-0.10378 0.31781,-0.1788 l -0.15503,-0.21342 c -0.175917,0.119 -0.353243,0.1788 -0.531749,0.1788 -0.186267,0 -0.334725,-0.0634 -0.445969,-0.19017 -0.108654,-0.12935 -0.163298,-0.32472 -0.163298,-0.58601 3e-6,-0.26129 0.05464,-0.45924 0.163298,-0.59377 0.111244,-0.13711 0.258673,-0.20567 0.442352,-0.20567 0.173331,0 0.349109,0.0593 0.527616,0.17829 l 0.159163,-0.21343 c -0.19144,-0.16039 -0.419286,-0.24029 -0.683162,-0.24029 z m 4.254002,0 c -0.09572,0 -0.178713,0.0242 -0.248563,0.0734 -0.06726,0.0491 -0.131696,0.11926 -0.193786,0.20981 l -0.02326,-0.24082 h -0.252182 v 2.04536 h 0.298693 v -1.5875 c 0.106069,-0.16299 0.225145,-0.24443 0.357085,-0.24443 0.06985,0 0.113665,0.0258 0.131776,0.0775 0.0181,0.0491 0.02739,0.14503 0.02739,0.28732 v 1.46709 h 0.302307 v -1.5875 c 0.106069,-0.16298 0.225145,-0.24443 0.357084,-0.24443 0.06985,0 0.114181,0.0258 0.132292,0.0775 0.0181,0.0491 0.02687,0.14504 0.02687,0.28732 v 1.4671 h 0.298691 v -1.52136 c 0,-0.21472 -0.03711,-0.36215 -0.112138,-0.44235 -0.07244,-0.0828 -0.167288,-0.12402 -0.283705,-0.12402 -0.09831,0 -0.18233,0.0232 -0.25218,0.0698 -0.06985,0.0466 -0.135832,0.11358 -0.197921,0.20154 -0.05433,-0.18109 -0.177012,-0.2713 -0.368454,-0.2713 z m 7.155119,0 c -0.206962,0 -0.430681,0.0423 -0.671277,0.12764 l 0.0894,0.24856 c 0.199202,-0.0699 0.376013,-0.1049 0.531236,-0.1049 0.157808,0 0.278432,0.0325 0.361217,0.0972 0.08279,0.0621 0.124024,0.1657 0.124024,0.31058 v 0.16691 h -0.302824 c -0.307859,0 -0.544465,0.0567 -0.710033,0.17053 -0.162983,0.11383 -0.24443,0.2757 -0.24443,0.48525 0,0.19144 0.05825,0.34402 0.174665,0.45785 0.119004,0.11383 0.280865,0.17053 0.485243,0.17053 0.134524,0 0.255664,-0.0242 0.364318,-0.0734 0.111244,-0.0491 0.203515,-0.12029 0.275952,-0.21342 0.04915,0.16816 0.172868,0.26507 0.372071,0.29094 l 0.08165,-0.23306 c -0.0595,-0.0181 -0.102285,-0.0454 -0.128156,-0.0816 -0.02588,-0.0388 -0.03876,-0.0981 -0.03876,-0.17829 v -0.98185 c 3e-6,-0.20696 -0.06598,-0.36883 -0.197919,-0.48524 -0.129352,-0.11642 -0.318018,-0.17415 -0.566375,-0.17415 z m 4.730978,0 c -0.281988,0 -0.500552,0.0969 -0.655773,0.29094 -0.152635,0.19402 -0.228928,0.4528 -0.228928,0.77618 0,0.32855 0.07629,0.58835 0.228928,0.77979 0.152636,0.18886 0.370168,0.28319 0.652156,0.28319 0.2794,0 0.495387,-0.0969 0.648023,-0.29094 0.155223,-0.19661 0.233061,-0.45538 0.233061,-0.77618 0,-0.32855 -0.07629,-0.58732 -0.228928,-0.77618 -0.150048,-0.19144 -0.366552,-0.2868 -0.648539,-0.2868 z m 2.928503,0 c -0.175918,0 -0.321799,0.0438 -0.438216,0.13177 -0.113829,0.088 -0.212286,0.21993 -0.295071,0.39585 l -0.06201,-0.48525 h -0.566891 v 0.25218 h 0.322461 v 1.54048 h -0.322461 v 0.2527 h 1.063503 v -0.2527 h -0.41548 v -0.86145 c 0.13194,-0.45014 0.355658,-0.67489 0.671277,-0.67489 h 0.01963 v 0.43821 h 0.264067 l 0.04651,-0.69453 c -0.108657,-0.0285 -0.204536,-0.0424 -0.287322,-0.0424 z m -41.092583,0.0424 0.741043,2.04535 h 0.376719 l 0.745175,-2.04535 h -0.341582 l -0.582393,1.75028 -0.589627,-1.75028 z m 7.135485,0 v 1.48621 c 0,0.19403 0.04948,0.34301 0.147793,0.44649 0.100894,0.10348 0.248322,0.15503 0.442349,0.15503 0.121592,0 0.240668,-0.0273 0.357085,-0.0816 0.119004,-0.0569 0.218493,-0.13579 0.29869,-0.23668 l 0.02687,0.27595 h 0.279569 v -2.04535 h -0.326078 v 1.50585 c -0.0595,0.0931 -0.139401,0.17046 -0.240294,0.23254 -0.100897,0.0621 -0.205539,0.0935 -0.314193,0.0935 -0.119004,0 -0.207153,-0.0299 -0.264068,-0.0894 -0.05433,-0.0621 -0.08165,-0.159 -0.08165,-0.29094 v -1.45159 z m 16.287893,0 v 1.48621 c 0,0.19403 0.04897,0.34301 0.147277,0.44649 0.100897,0.10348 0.248841,0.15503 0.442868,0.15503 0.121592,0 0.240152,-0.0273 0.356568,-0.0816 0.119002,-0.0569 0.219009,-0.13579 0.299207,-0.23668 l 0.02687,0.27595 h 0.279569 v -2.04535 h -0.326077 v 1.50585 c -0.0595,0.0931 -0.13992,0.17046 -0.240814,0.23254 -0.100893,0.0621 -0.205536,0.0935 -0.314192,0.0935 -0.119005,0 -0.206635,-0.0299 -0.263549,-0.0894 -0.05433,-0.0621 -0.08165,-0.159 -0.08165,-0.29094 v -1.45159 z m 4.653462,0 v 1.48621 c 0,0.19403 0.04949,0.34301 0.147797,0.44649 0.100893,0.10348 0.248322,0.15503 0.442348,0.15503 0.121592,0 0.240668,-0.0273 0.357085,-0.0816 0.119004,-0.0569 0.218493,-0.13579 0.298691,-0.23668 l 0.02687,0.27595 h 0.279569 v -2.04535 h -0.326078 v 1.50585 c -0.0595,0.0931 -0.139401,0.17046 -0.240294,0.23254 -0.100897,0.0621 -0.205539,0.0935 -0.314193,0.0935 -0.119004,0 -0.207153,-0.0299 -0.264068,-0.0894 -0.05433,-0.0621 -0.08165,-0.159 -0.08165,-0.29094 v -1.45159 z m -17.803048,0.22531 c 0.157811,0 0.281525,0.0567 0.372071,0.17053 0.09055,0.11383 0.137456,0.27827 0.140044,0.493 h -1.063501 c 0.01294,-0.21732 0.06861,-0.38176 0.166915,-0.493 0.09831,-0.11383 0.226663,-0.17053 0.384471,-0.17053 z m 27.890288,0 c 0.175919,0 0.306853,0.066 0.392223,0.19792 0.08796,0.12935 0.131776,0.32833 0.131776,0.59738 0,0.27164 -0.04381,0.47371 -0.131776,0.60565 -0.08537,0.12935 -0.217334,0.19378 -0.39584,0.19378 -0.178506,0 -0.312015,-0.0644 -0.399976,-0.19378 -0.08537,-0.13194 -0.12764,-0.33246 -0.12764,-0.60152 0,-0.26905 0.04382,-0.46957 0.131776,-0.60151 0.08796,-0.13194 0.220953,-0.19792 0.399457,-0.19792 z m -34.839733,0.80305 h 0.294555 v 0.524 c -0.0595,0.0905 -0.135792,0.16168 -0.228928,0.21343 -0.09054,0.0517 -0.185909,0.0775 -0.286803,0.0775 -0.261289,0 -0.392223,-0.12939 -0.392223,-0.38809 0,-0.1397 0.04794,-0.24589 0.143661,-0.31833 0.09572,-0.0724 0.252425,-0.10852 0.469738,-0.10852 z m 13.960904,0 h 0.294555 v 0.524 c -0.0595,0.0905 -0.135792,0.16168 -0.228925,0.21343 -0.09055,0.0517 -0.18591,0.0775 -0.286803,0.0775 -0.261292,0 -0.392227,-0.12939 -0.392227,-0.38809 0,-0.1397 0.04794,-0.24589 0.143661,-0.31833 0.09572,-0.0724 0.252429,-0.10852 0.469739,-0.10852 z m 16.287379,0 h 0.295072 v 0.524 c -0.0595,0.0905 -0.135792,0.16168 -0.228926,0.21343 -0.09055,0.0517 -0.186428,0.0775 -0.287321,0.0775 -0.261292,0 -0.391708,-0.12939 -0.391708,-0.38809 0,-0.1397 0.04794,-0.24589 0.143661,-0.31833 0.09572,-0.0724 0.251909,-0.10852 0.469222,-0.10852 z"
       style="font-style:normal;font-variant:normal;font-weight:300;font-stretch:normal;font-size:3.88055563px;line-height:1.25;font-family:Titillium;-inkscape-font-specification:'Titillium Light';text-align:start;letter-spacing:0px;word-spacing:0px;text-anchor:start;display:inline;opacity:1;fill:#55ddff;fill-opacity:1;stroke:none;stroke-width:0.15033114" />
    <path
       id="text6879"
       d="m -69.239413,124.0016 -1.657262,3.42252 0.264065,0.11628 1.653129,-3.41478 z m 1.940449,0 -1.657262,3.42252 0.264067,0.11628 1.65313,-3.41478 z m 18.110009,0.13952 c -0.06985,0 -0.127069,0.0222 -0.171048,0.0661 -0.04139,0.0414 -0.06201,0.0955 -0.06201,0.16278 0,0.0673 0.02061,0.12294 0.06201,0.16692 0.04398,0.0414 0.101198,0.062 0.171048,0.062 0.07244,0 0.130685,-0.0206 0.174667,-0.062 0.04398,-0.044 0.06563,-0.0996 0.06563,-0.16692 0,-0.0673 -0.02164,-0.12138 -0.06563,-0.16278 -0.04398,-0.044 -0.10223,-0.0661 -0.174667,-0.0661 z m 20.941358,0 c -0.06985,0 -0.127069,0.0222 -0.171051,0.0661 -0.04139,0.0414 -0.06201,0.0955 -0.06201,0.16278 0,0.0673 0.02061,0.12294 0.06201,0.16692 0.04398,0.0414 0.101201,0.062 0.171051,0.062 0.07244,0 0.130685,-0.0206 0.174664,-0.062 0.04398,-0.044 0.06563,-0.0996 0.06563,-0.16692 0,-0.0673 -0.02164,-0.12138 -0.06563,-0.16278 -0.04398,-0.044 -0.102227,-0.0661 -0.174664,-0.0661 z m -26.022184,0.093 -0.32608,0.0393 v 2.86753 h 0.32608 z m 7.838281,0 c -0.214725,0 -0.393081,0.0572 -0.535368,0.17105 -0.1397,0.11124 -0.209807,0.25867 -0.209807,0.44235 v 0.40721 h -0.485243 v 0.25993 h 0.485243 v 1.62626 h 0.329695 v -1.62626 h 0.655775 l 0.03514,-0.25993 h -0.690915 v -0.41496 c 0,-0.22507 0.142274,-0.33745 0.426847,-0.33745 0.162983,0 0.309382,0.0284 0.438735,0.0853 l 0.104902,-0.24443 c -0.175919,-0.0724 -0.360977,-0.10904 -0.555004,-0.10904 z m -14.84199,0.008 -0.326077,0.0351 v 2.86391 h 0.326077 v -1.49035 c 0.06209,-0.0905 0.142505,-0.16941 0.240814,-0.23668 0.0983,-0.0673 0.200371,-0.10076 0.30644,-0.10076 0.124177,0 0.214902,0.0284 0.27182,0.0853 0.05691,0.0543 0.08526,0.14247 0.08526,0.26406 v 1.47846 h 0.326078 v -1.48259 c 0,-0.40358 -0.191759,-0.60513 -0.574641,-0.60513 -0.124179,0 -0.244284,0.0284 -0.360701,0.0853 -0.116416,0.0569 -0.214876,0.13733 -0.295074,0.24081 z m 41.882717,0 -0.326081,0.0351 v 2.86391 h 0.326081 v -1.49035 c 0.06209,-0.0905 0.142504,-0.16941 0.24081,-0.23668 0.09831,-0.0673 0.200374,-0.10076 0.306443,-0.10076 0.124177,0 0.214903,0.0284 0.271817,0.0853 0.05692,0.0543 0.08527,0.14247 0.08527,0.26406 v 1.47846 h 0.326078 v -1.48259 c 0,-0.40358 -0.191762,-0.60513 -0.574643,-0.60513 -0.124177,0 -0.244285,0.0284 -0.360701,0.0853 -0.116417,0.0569 -0.214874,0.13733 -0.295071,0.24081 z m -19.095477,0.0315 v 0.25993 h 0.628385 v 2.08773 c 0,0.17333 0.05464,0.31045 0.163299,0.41134 0.111241,0.1009 0.258669,0.15142 0.442348,0.15142 0.19403,0 0.355376,-0.035 0.484728,-0.1049 l -0.08527,-0.23668 c -0.121591,0.0466 -0.235513,0.0698 -0.341582,0.0698 -0.22507,0 -0.337447,-0.0918 -0.337447,-0.27544 v -2.36316 z m 55.84362,0 v 0.25993 h 0.62839 v 2.08773 c 0,0.17333 0.0546,0.31045 0.16329,0.41134 0.11124,0.1009 0.25867,0.15142 0.44235,0.15142 0.19403,0 0.35538,-0.035 0.48473,-0.1049 l -0.0853,-0.23668 c -0.12159,0.0466 -0.23551,0.0698 -0.34158,0.0698 -0.22507,0 -0.33745,-0.0918 -0.33745,-0.27544 v -2.36316 z m 2.32647,0 v 0.25993 h 0.6289 v 2.08773 c 0,0.17333 0.0541,0.31045 0.16279,0.41134 0.11124,0.1009 0.25867,0.15142 0.44235,0.15142 0.19403,0 0.35589,-0.035 0.48524,-0.1049 l -0.0853,-0.23668 c -0.12159,0.0466 -0.23551,0.0698 -0.34158,0.0698 -0.22507,0 -0.33745,-0.0918 -0.33745,-0.27544 v -2.36316 z m -41.013515,0.32195 -0.325561,0.0388 v 0.46147 h -0.469739 v 0.25631 h 0.469739 v 1.21853 c 0,0.18368 0.06083,0.33266 0.182419,0.44649 0.121589,0.11124 0.289637,0.16691 0.504362,0.16691 0.09831,0 0.196766,-0.0134 0.295071,-0.0393 0.100894,-0.0259 0.18595,-0.0619 0.2558,-0.10852 l -0.128159,-0.22117 c -0.12159,0.0647 -0.252008,0.0971 -0.391708,0.0971 -0.137112,0 -0.236601,-0.0284 -0.298688,-0.0853 -0.06209,-0.0569 -0.09354,-0.14352 -0.09354,-0.25994 v -1.21491 h 0.667661 l 0.04289,-0.25631 h -0.710552 z m -41.669291,0.45785 c -0.199202,0 -0.370858,0.0464 -0.515731,0.13953 -0.144875,0.0931 -0.25622,0.22148 -0.33383,0.38447 -0.07503,0.16298 -0.112654,0.34649 -0.112654,0.55087 0,0.32338 0.08402,0.5806 0.252179,0.77204 0.170746,0.18886 0.407353,0.28371 0.710036,0.28371 0.119004,0 0.242205,-0.0222 0.36897,-0.0662 0.126764,-0.044 0.232955,-0.10378 0.318325,-0.1788 l -0.155546,-0.21343 c -0.175919,0.11901 -0.353245,0.1788 -0.531749,0.1788 -0.186267,0 -0.334724,-0.0634 -0.445968,-0.19016 -0.108657,-0.12936 -0.16278,-0.32473 -0.16278,-0.58601 0,-0.2613 0.05412,-0.45924 0.16278,-0.59377 0.111244,-0.13711 0.25867,-0.20567 0.442351,-0.20567 0.173331,0 0.34911,0.0593 0.527616,0.17828 l 0.159163,-0.21342 c -0.191442,-0.16039 -0.419285,-0.24029 -0.683162,-0.24029 z m 4.533573,0 c -0.178503,0 -0.335211,0.0464 -0.469738,0.13953 -0.134525,0.0905 -0.23762,0.21735 -0.310058,0.38033 -0.07244,0.1604 -0.109037,0.34288 -0.109037,0.54726 0,0.32338 0.08145,0.58215 0.24443,0.77618 0.165568,0.19144 0.395991,0.28732 0.690912,0.28732 0.124179,0 0.24738,-0.0211 0.368972,-0.0625 0.124177,-0.0414 0.233974,-0.0996 0.329694,-0.17467 l -0.151413,-0.21704 c -0.09572,0.0621 -0.186444,0.10848 -0.271817,0.13953 -0.08279,0.0285 -0.17454,0.0429 -0.275436,0.0429 -0.168156,0 -0.307853,-0.0572 -0.419095,-0.17105 -0.108656,-0.11383 -0.166904,-0.28291 -0.174667,-0.50798 h 1.374076 c 0.0052,-0.0569 0.0078,-0.11517 0.0078,-0.17467 0,-0.31044 -0.07526,-0.55478 -0.225309,-0.73328 -0.147463,-0.1811 -0.350562,-0.27182 -0.609267,-0.27182 z m 2.44688,0 c -0.199202,0 -0.370856,0.0464 -0.515731,0.13953 -0.144872,0.0931 -0.256217,0.22148 -0.33383,0.38447 -0.07502,0.16298 -0.112654,0.34649 -0.112654,0.55087 0,0.32338 0.08402,0.5806 0.252182,0.77204 0.170744,0.18886 0.40735,0.28371 0.710033,0.28371 0.119005,0 0.242205,-0.0222 0.36897,-0.0662 0.126764,-0.044 0.232955,-0.10378 0.318328,-0.1788 l -0.155546,-0.21343 c -0.175919,0.11901 -0.353245,0.1788 -0.531752,0.1788 -0.186266,0 -0.334724,-0.0634 -0.445968,-0.19016 -0.108654,-0.12936 -0.16278,-0.32473 -0.16278,-0.58601 0,-0.2613 0.05413,-0.45924 0.16278,-0.59377 0.111244,-0.13711 0.258672,-0.20567 0.442351,-0.20567 0.173332,0 0.34911,0.0593 0.527617,0.17828 l 0.159162,-0.21342 c -0.191439,-0.16044 -0.419285,-0.24034 -0.683162,-0.24034 z m 16.063103,0 c -0.206962,0 -0.431199,0.0428 -0.671793,0.12816 l 0.0894,0.24804 c 0.1992,-0.0699 0.376526,-0.10438 0.531749,-0.10438 0.157811,0 0.277916,0.032 0.360701,0.0966 0.08279,0.0621 0.124542,0.1657 0.124542,0.31057 v 0.16687 h -0.302826 c -0.307856,0 -0.544462,0.0567 -0.710033,0.17053 -0.162983,0.11384 -0.24443,0.2757 -0.24443,0.48525 0,0.19144 0.05825,0.34402 0.174667,0.45785 0.119005,0.11383 0.28035,0.17105 0.484725,0.17105 0.134525,0 0.25618,-0.0247 0.364837,-0.0739 0.111241,-0.0492 0.202996,-0.12029 0.275433,-0.21342 0.04915,0.16815 0.173387,0.26506 0.372589,0.29093 l 0.08165,-0.23306 c -0.0595,-0.0181 -0.102288,-0.0449 -0.128159,-0.0811 -0.02588,-0.0388 -0.03876,-0.0986 -0.03876,-0.1788 v -0.98185 c 0,-0.20696 -0.06598,-0.36831 -0.197922,-0.48472 -0.129352,-0.11642 -0.318018,-0.17467 -0.566372,-0.17467 z m 7.084838,0 c -0.178506,0 -0.334695,0.0464 -0.469223,0.13953 -0.134524,0.0905 -0.238138,0.21735 -0.310573,0.38033 -0.07244,0.1604 -0.108521,0.34288 -0.108521,0.54726 0,0.32338 0.08145,0.58215 0.24443,0.77618 0.165571,0.19144 0.395475,0.28732 0.690395,0.28732 0.12418,0 0.247381,-0.0211 0.36897,-0.0625 0.124179,-0.0414 0.233976,-0.0996 0.329697,-0.17467 l -0.151413,-0.21709 c -0.09572,0.0621 -0.185928,0.10848 -0.271301,0.13953 -0.08279,0.0285 -0.175056,0.0429 -0.275953,0.0429 -0.168155,0 -0.307853,-0.0572 -0.419094,-0.17105 -0.108657,-0.11383 -0.166389,-0.28291 -0.174149,-0.50798 h 1.373558 c 0.0052,-0.0569 0.0078,-0.11516 0.0078,-0.17467 0,-0.31044 -0.07526,-0.55478 -0.225308,-0.73328 -0.147463,-0.18109 -0.350563,-0.27182 -0.609267,-0.27182 z m 6.961333,0 c -0.232833,0 -0.420471,0.0505 -0.562756,0.15141 -0.142287,0.1009 -0.213426,0.23647 -0.213426,0.40721 0,0.16557 0.0567,0.29135 0.170535,0.37672 0.113829,0.0828 0.290123,0.15392 0.528132,0.21343 0.142288,0.0362 0.24796,0.0723 0.31781,0.10852 0.06985,0.0336 0.11676,0.0723 0.140044,0.11627 0.02328,0.0414 0.03462,0.096 0.03462,0.1633 0,0.0983 -0.04536,0.17717 -0.135909,0.23667 -0.09055,0.0595 -0.213233,0.0889 -0.368453,0.0889 -0.116417,0 -0.227761,-0.0191 -0.33383,-0.0579 -0.106069,-0.0414 -0.200401,-0.096 -0.283186,-0.16329 l -0.18242,0.21342 c 0.212138,0.18368 0.478642,0.27595 0.799436,0.27595 0.240594,0 0.443693,-0.0505 0.609264,-0.15141 0.165571,-0.1009 0.248563,-0.25348 0.248563,-0.45785 0,-0.17592 -0.05567,-0.30943 -0.166913,-0.39998 -0.108656,-0.0931 -0.274127,-0.16942 -0.496612,-0.22893 -0.14746,-0.0414 -0.258805,-0.0765 -0.33383,-0.1049 -0.07243,-0.031 -0.125532,-0.0656 -0.159163,-0.10438 -0.03104,-0.0388 -0.04651,-0.0893 -0.04651,-0.15142 0,-0.1785 0.147428,-0.26768 0.442349,-0.26768 0.121592,0 0.228811,0.0165 0.321945,0.0501 0.09313,0.031 0.182311,0.0764 0.267684,0.13591 l 0.147794,-0.22531 c -0.212135,-0.15005 -0.4606,-0.22479 -0.745173,-0.22479 z m 9.326563,0 c -0.178507,0 -0.335214,0.0464 -0.469739,0.13953 -0.134527,0.0905 -0.237622,0.21735 -0.31006,0.38033 -0.07244,0.1604 -0.109037,0.34288 -0.109037,0.54726 0,0.32338 0.08145,0.58215 0.24443,0.77618 0.165571,0.19144 0.395991,0.28732 0.690914,0.28732 0.124177,0 0.24738,-0.0211 0.368969,-0.0625 0.124177,-0.0414 0.233977,-0.0996 0.329695,-0.17467 l -0.15141,-0.21704 c -0.09572,0.0621 -0.186447,0.10848 -0.27182,0.13953 -0.08278,0.0285 -0.17454,0.0429 -0.275434,0.0429 -0.168159,0 -0.307853,-0.0572 -0.419097,-0.17105 -0.108654,-0.11383 -0.166905,-0.28291 -0.174665,-0.50798 h 1.374076 c 0.0052,-0.0569 0.0078,-0.11517 0.0078,-0.17467 2e-6,-0.31044 -0.07526,-0.55478 -0.225309,-0.73328 -0.14746,-0.1811 -0.35056,-0.27182 -0.609264,-0.27182 z m 4.634341,0 c -0.232834,0 -0.420468,0.0505 -0.562756,0.15141 -0.142288,0.1009 -0.213423,0.23647 -0.213423,0.40721 0,0.16557 0.0567,0.29135 0.170532,0.37672 0.113829,0.0828 0.290126,0.15392 0.528132,0.21343 0.142287,0.0362 0.247962,0.0723 0.317812,0.10852 0.06985,0.0336 0.116758,0.0723 0.140041,0.11627 0.02328,0.0414 0.03462,0.096 0.03462,0.1633 0,0.0983 -0.04536,0.17717 -0.135909,0.23667 -0.09055,0.0595 -0.21323,0.0889 -0.368453,0.0889 -0.116417,0 -0.227762,-0.0191 -0.333831,-0.0579 -0.106068,-0.0414 -0.2004,-0.096 -0.283186,-0.16329 l -0.182417,0.21342 c 0.212138,0.18368 0.478642,0.27595 0.799434,0.27595 0.240596,0 0.443695,-0.0505 0.609266,-0.15141 0.165569,-0.1009 0.248563,-0.25348 0.248563,-0.45785 0,-0.17592 -0.05567,-0.30943 -0.166915,-0.39998 -0.108656,-0.0931 -0.274124,-0.16942 -0.49661,-0.22893 -0.147463,-0.0414 -0.258807,-0.0765 -0.33383,-0.1049 -0.07244,-0.031 -0.125531,-0.0656 -0.159163,-0.10438 -0.03105,-0.0388 -0.04651,-0.0893 -0.04651,-0.15142 0,-0.1785 0.147426,-0.26768 0.442349,-0.26768 0.121592,0 0.228812,0.0165 0.321945,0.0501 0.09313,0.031 0.182311,0.0764 0.267684,0.13591 l 0.1478,-0.22536 c -0.212138,-0.15005 -0.4606,-0.22479 -0.745175,-0.22479 z m 2.2412079,0 c -0.206965,0 -0.4306829,0.0428 -0.6712769,0.12816 l 0.0894,0.24804 c 0.199203,-0.0699 0.3765289,-0.10438 0.5317489,-0.10438 0.157811,0 0.277919,0.032 0.360702,0.0966 0.08279,0.0621 0.124023,0.1657 0.124023,0.31057 v 0.16687 h -0.302305 c -0.307859,0 -0.5449809,0.0567 -0.7105519,0.17053 -0.162983,0.11384 -0.24443,0.2757 -0.24443,0.48525 0,0.19144 0.05825,0.34402 0.174668,0.45785 0.119004,0.11383 0.280865,0.17105 0.4852399,0.17105 0.134527,0 0.25618,-0.0247 0.364837,-0.0739 0.111241,-0.0492 0.202999,-0.12029 0.275434,-0.21342 0.04915,0.16815 0.173386,0.26506 0.372588,0.29093 l 0.08165,-0.23306 c -0.0595,-0.0181 -0.102288,-0.0449 -0.128156,-0.0811 -0.02588,-0.0388 -0.03876,-0.0986 -0.03876,-0.1788 v -0.98185 c 0,-0.20696 -0.06598,-0.36831 -0.197921,-0.48472 -0.12935,-0.11642 -0.318535,-0.17467 -0.566889,-0.17467 z m 2.152322,0 c -0.09572,0 -0.178713,0.0247 -0.248563,0.0739 -0.06726,0.0491 -0.131699,0.11875 -0.193786,0.20929 l -0.02326,-0.24081 h -0.252182 v 2.04535 h 0.298691 v -1.58704 c 0.106069,-0.16298 0.225144,-0.24494 0.357084,-0.24494 0.06985,0 0.113665,0.0263 0.131773,0.078 0.0181,0.0491 0.02739,0.14451 0.02739,0.2868 v 1.46709 h 0.302308 v -1.58698 c 0.106068,-0.16298 0.225144,-0.24494 0.357084,-0.24494 0.06985,0 0.114181,0.0263 0.132292,0.078 0.0181,0.0491 0.02687,0.14451 0.02687,0.2868 v 1.46709 h 0.29869 v -1.52135 c 0,-0.21472 -0.03712,-0.36215 -0.112138,-0.44235 -0.07244,-0.0828 -0.167288,-0.12402 -0.283705,-0.12402 -0.09831,0 -0.182329,0.0232 -0.252179,0.0698 -0.06985,0.0466 -0.135832,0.1141 -0.197922,0.20206 -0.05433,-0.1811 -0.177011,-0.27182 -0.368453,-0.27182 z m 2.606043,0 c -0.178507,0 -0.334695,0.0464 -0.469223,0.13953 -0.134525,0.0905 -0.238138,0.21735 -0.310573,0.38033 -0.07244,0.1604 -0.108521,0.34288 -0.108521,0.54726 0,0.32338 0.08145,0.58215 0.24443,0.77618 0.16557,0.19144 0.395475,0.28732 0.690395,0.28732 0.12418,0 0.24738,-0.0211 0.36897,-0.0625 0.124179,-0.0414 0.233976,-0.0996 0.329697,-0.17467 l -0.151413,-0.21709 c -0.09572,0.0621 -0.185928,0.10848 -0.271301,0.13953 -0.08279,0.0285 -0.175056,0.0429 -0.275953,0.0429 -0.168156,0 -0.307853,-0.0572 -0.419094,-0.17105 -0.108657,-0.11383 -0.166389,-0.28291 -0.174152,-0.50798 h 1.373561 c 0.0052,-0.0569 0.0078,-0.11516 0.0078,-0.17467 0,-0.31044 -0.07526,-0.55478 -0.225308,-0.73328 -0.147463,-0.18109 -0.350563,-0.27182 -0.609267,-0.27182 z m 4.54907599,0 c -0.206962,0 -0.430683,0.0428 -0.67127699,0.12816 l 0.0894,0.24804 c 0.199203,-0.0699 0.376013,-0.10438 0.531233,-0.10438 0.157811,0 0.278435,0.032 0.36122,0.0966 0.08279,0.0621 0.124024,0.1657 0.124024,0.31057 v 0.16687 h -0.302824 c -0.307858,0 -0.544465,0.0567 -0.710036,0.17053 -0.162983,0.11384 -0.244427,0.2757 -0.244427,0.48525 0,0.19144 0.05825,0.34402 0.174665,0.45785 0.119004,0.11383 0.280865,0.17105 0.485243,0.17105 0.134525,0 0.255661,-0.0247 0.364318,-0.0739 0.111241,-0.0492 0.203515,-0.12029 0.275952,-0.21342 0.04915,0.16815 0.172868,0.26506 0.372071,0.29093 l 0.08165,-0.23306 c -0.0595,-0.0181 -0.102288,-0.0449 -0.128156,-0.0811 -0.02588,-0.0388 -0.03876,-0.0986 -0.03876,-0.1788 v -0.98185 c 0,-0.20696 -0.06598,-0.36831 -0.197919,-0.48472 -0.129352,-0.11642 -0.318018,-0.17467 -0.566375,-0.17467 z m 2.55178201,0 c -0.199202,0 -0.371372,0.0464 -0.516247,0.13953 -0.144875,0.0931 -0.255701,0.22148 -0.333314,0.38447 -0.07502,0.16298 -0.112654,0.34649 -0.112654,0.55087 0,0.32338 0.08402,0.5806 0.252182,0.77204 0.170744,0.18886 0.40735,0.28371 0.710033,0.28371 0.119005,0 0.242205,-0.0222 0.36897,-0.0662 0.126764,-0.044 0.232439,-0.10378 0.317809,-0.1788 l -0.155027,-0.21343 c -0.175919,0.11901 -0.353245,0.1788 -0.531752,0.1788 -0.186266,0 -0.334724,-0.0634 -0.445966,-0.19016 -0.108656,-0.12936 -0.163298,-0.32473 -0.163298,-0.58601 0,-0.2613 0.05464,-0.45924 0.163298,-0.59377 0.111242,-0.13711 0.25867,-0.20567 0.442349,-0.20567 0.173332,0 0.34911,0.0593 0.527617,0.17828 l 0.159162,-0.21342 c -0.191439,-0.16039 -0.419282,-0.24029 -0.683162,-0.24029 z m 2.78071,0 c -0.175919,0 -0.321799,0.0438 -0.438216,0.13177 -0.113829,0.088 -0.212288,0.21993 -0.295074,0.39585 l -0.06201,-0.48525 h -0.566375 v 0.2527 h 0.321945 v 1.54048 h -0.321945 v 0.25218 h 1.062984 v -0.25218 h -0.414961 v -0.86145 c 0.131939,-0.45015 0.355658,-0.67541 0.671277,-0.67541 h 0.01913 v 0.43873 h 0.264065 l 0.04651,-0.69505 c -0.108654,-0.0285 -0.204533,-0.0424 -0.287319,-0.0424 z m 1.725475,0 c -0.281987,0 -0.500552,0.0969 -0.655772,0.29094 -0.152636,0.19403 -0.228928,0.4528 -0.228928,0.77618 0,0.32855 0.07629,0.58835 0.228928,0.77979 0.152635,0.18886 0.370168,0.28371 0.652155,0.28371 0.2794,0 0.495388,-0.0974 0.648023,-0.29146 0.155223,-0.19661 0.232542,-0.45538 0.232542,-0.77618 0,-0.32855 -0.07629,-0.58681 -0.228925,-0.77566 -0.150048,-0.19144 -0.366035,-0.28732 -0.648023,-0.28732 z m 2.334742,0 c -0.232834,0 -0.420468,0.0505 -0.562756,0.15141 -0.142287,0.1009 -0.213423,0.23647 -0.213423,0.40721 0,0.16557 0.0567,0.29135 0.170532,0.37672 0.113829,0.0828 0.290126,0.15392 0.528132,0.21343 0.142287,0.0362 0.247959,0.0723 0.317809,0.10852 0.06985,0.0336 0.116761,0.0723 0.140044,0.11627 0.02328,0.0414 0.03462,0.096 0.03462,0.1633 0,0.0983 -0.04536,0.17717 -0.135909,0.23667 -0.09055,0.0595 -0.21323,0.0889 -0.368453,0.0889 -0.116417,0 -0.227762,-0.0191 -0.33383,-0.0579 -0.106069,-0.0414 -0.200401,-0.096 -0.283187,-0.16329 l -0.182417,0.21342 c 0.212135,0.18368 0.478642,0.27595 0.799434,0.27595 0.240593,0 0.443695,-0.0505 0.609264,-0.15141 0.165571,-0.1009 0.248565,-0.25348 0.248565,-0.45785 0,-0.17592 -0.05567,-0.30943 -0.166915,-0.39998 -0.108656,-0.0931 -0.274127,-0.16942 -0.49661,-0.22893 -0.147463,-0.0414 -0.258807,-0.0765 -0.33383,-0.1049 -0.07244,-0.031 -0.125534,-0.0656 -0.159165,-0.10438 -0.03104,-0.0388 -0.04651,-0.0893 -0.04651,-0.15142 0,-0.1785 0.147429,-0.26768 0.442352,-0.26768 0.121589,0 0.228809,0.0165 0.321942,0.0501 0.09313,0.031 0.182314,0.0764 0.267685,0.13591 l 0.147796,-0.22531 c -0.212133,-0.1501 -0.460595,-0.22484 -0.74517,-0.22484 z m 2.3264731,0 c -0.232833,0 -0.419952,0.0505 -0.56224,0.15141 -0.142287,0.1009 -0.213423,0.23647 -0.213423,0.40721 0,0.16557 0.0567,0.29135 0.170532,0.37672 0.113829,0.0828 0.28961,0.15392 0.527616,0.21343 0.142288,0.0362 0.248478,0.0723 0.318328,0.10852 0.06985,0.0336 0.116242,0.0723 0.139521,0.11627 0.0233,0.0414 0.0351,0.096 0.0351,0.1633 0,0.0983 -0.0454,0.17717 -0.135905,0.23667 -0.09054,0.0595 -0.21323,0.0889 -0.368453,0.0889 -0.116417,0 -0.227761,-0.0191 -0.33383,-0.0579 -0.106069,-0.0414 -0.200401,-0.096 -0.283186,-0.16329 l -0.182417,0.21342 c 0.212137,0.18368 0.478641,0.27595 0.799433,0.27595 0.240596,0 0.443696,-0.0505 0.609268,-0.15141 0.16557,-0.1009 0.24805,-0.25348 0.24805,-0.45785 0,-0.17592 -0.0557,-0.30943 -0.16692,-0.39998 -0.10866,-0.0931 -0.274126,-0.16942 -0.496612,-0.22893 -0.14746,-0.0414 -0.258805,-0.0765 -0.33383,-0.1049 -0.07243,-0.031 -0.125013,-0.0656 -0.158644,-0.10438 -0.03105,-0.0388 -0.04703,-0.0893 -0.04703,-0.15142 0,-0.1785 0.147944,-0.26768 0.442867,-0.26768 0.12159,0 0.228812,0.0165 0.321945,0.0501 0.09313,0.031 0.182314,0.0764 0.267684,0.13591 l 0.14728,-0.22531 c -0.2121,-0.1501 -0.460561,-0.22484 -0.745134,-0.22484 z m 4.568714,0 c -0.20696,0 -0.4312,0.0428 -0.67179,0.12816 l 0.0894,0.24804 c 0.1992,-0.0699 0.37652,-0.10438 0.53175,-0.10438 0.15781,0 0.27791,0.032 0.3607,0.0966 0.0828,0.0621 0.12454,0.1657 0.12454,0.31057 v 0.16687 h -0.30283 c -0.30785,0 -0.54446,0.0567 -0.71003,0.17053 -0.16298,0.11384 -0.24443,0.2757 -0.24443,0.48525 0,0.19144 0.0583,0.34402 0.17467,0.45785 0.119,0.11383 0.28035,0.17105 0.48472,0.17105 0.13453,0 0.25618,-0.0247 0.36484,-0.0739 0.11124,-0.0492 0.20299,-0.12029 0.27543,-0.21342 0.0492,0.16815 0.17339,0.26506 0.37259,0.29093 l 0.0816,-0.23306 c -0.0595,-0.0181 -0.10229,-0.0449 -0.12816,-0.0811 -0.0259,-0.0388 -0.0388,-0.0986 -0.0388,-0.1788 v -0.98185 c 0,-0.20696 -0.066,-0.36831 -0.19792,-0.48472 -0.12935,-0.11642 -0.31802,-0.17467 -0.56637,-0.17467 z m 9.39219,0 c -0.23283,0 -0.41995,0.0505 -0.56224,0.15141 -0.14228,0.1009 -0.21342,0.23647 -0.21342,0.40721 0,0.16557 0.0567,0.29135 0.17053,0.37672 0.11383,0.0828 0.28961,0.15392 0.52762,0.21343 0.14228,0.0362 0.24847,0.0723 0.31832,0.10852 0.0699,0.0336 0.11624,0.0723 0.13953,0.11627 0.0233,0.0414 0.0351,0.096 0.0351,0.1633 0,0.0983 -0.0454,0.17717 -0.13591,0.23667 -0.0906,0.0595 -0.21323,0.0889 -0.36845,0.0889 -0.11642,0 -0.22776,-0.0191 -0.33383,-0.0579 -0.10607,-0.0414 -0.20041,-0.096 -0.28319,-0.16329 l -0.18242,0.21342 c 0.21214,0.18368 0.47864,0.27595 0.79944,0.27595 0.24059,0 0.44369,-0.0505 0.60926,-0.15141 0.16557,-0.1009 0.24805,-0.25348 0.24805,-0.45785 0,-0.17592 -0.0557,-0.30943 -0.16692,-0.39998 -0.10865,-0.0931 -0.27412,-0.16942 -0.49661,-0.22893 -0.14746,-0.0414 -0.2588,-0.0765 -0.33383,-0.1049 -0.0724,-0.031 -0.12501,-0.0656 -0.15864,-0.10438 -0.0311,-0.0388 -0.047,-0.0893 -0.047,-0.15142 0,-0.1785 0.14795,-0.26768 0.44287,-0.26768 0.12159,0 0.22881,0.0165 0.32194,0.0501 0.0931,0.031 0.18231,0.0764 0.26769,0.13591 l 0.14727,-0.22531 c -0.21213,-0.15005 -0.4606,-0.22479 -0.74517,-0.22479 z m 2.31924,0 c -0.28199,0 -0.50055,0.0969 -0.65578,0.29094 -0.15263,0.19403 -0.22892,0.4528 -0.22892,0.77618 0,0.32855 0.0763,0.58835 0.22892,0.77979 0.15264,0.18886 0.37017,0.28371 0.65216,0.28371 0.2794,0 0.49539,-0.0974 0.64803,-0.29146 0.15522,-0.19661 0.23254,-0.45538 0.23254,-0.77618 0,-0.32855 -0.0763,-0.58681 -0.22893,-0.77566 -0.15005,-0.19144 -0.36603,-0.28732 -0.64802,-0.28732 z m 5.25498,0 c -0.17592,0 -0.3218,0.0438 -0.43822,0.13177 -0.11383,0.088 -0.21229,0.21993 -0.29507,0.39585 l -0.062,-0.48525 h -0.56638 v 0.2527 h 0.32195 v 1.54048 h -0.32195 v 0.25218 h 1.06299 v -0.25218 h -0.41497 v -0.86145 c 0.13194,-0.45015 0.35566,-0.67541 0.67128,-0.67541 h 0.0191 v 0.43873 h 0.26406 l 0.0465,-0.69505 c -0.10866,-0.0285 -0.20454,-0.0424 -0.28733,-0.0424 z m 1.87275,0 c -0.1992,0 -0.37086,0.0464 -0.51573,0.13953 -0.14487,0.0931 -0.25622,0.22148 -0.33383,0.38447 -0.075,0.16298 -0.11266,0.34649 -0.11266,0.55087 0,0.32338 0.084,0.5806 0.25219,0.77204 0.17074,0.18886 0.40735,0.28371 0.71003,0.28371 0.119,0 0.2422,-0.0222 0.36897,-0.0662 0.12676,-0.044 0.23295,-0.10378 0.31833,-0.1788 l -0.15555,-0.21343 c -0.17592,0.11901 -0.35324,0.1788 -0.53175,0.1788 -0.18627,0 -0.33473,-0.0634 -0.44597,-0.19016 -0.10865,-0.12936 -0.16278,-0.32473 -0.16278,-0.58601 0,-0.2613 0.0541,-0.45924 0.16278,-0.59377 0.11124,-0.13711 0.25867,-0.20567 0.44235,-0.20567 0.17333,0 0.34911,0.0593 0.52762,0.17828 l 0.15916,-0.21342 c -0.19144,-0.16039 -0.41928,-0.24029 -0.68316,-0.24029 z m 2.20658,0 c -0.1785,0 -0.33469,0.0464 -0.46922,0.13953 -0.13453,0.0905 -0.23814,0.21735 -0.31057,0.38033 -0.0724,0.1604 -0.10853,0.34288 -0.10853,0.54726 0,0.32338 0.0815,0.58215 0.24443,0.77618 0.16558,0.19144 0.39548,0.28732 0.6904,0.28732 0.12418,0 0.24738,-0.0211 0.36897,-0.0625 0.12418,-0.0414 0.23398,-0.0996 0.3297,-0.17467 l -0.15141,-0.21704 c -0.0957,0.0621 -0.18593,0.10848 -0.27131,0.13953 -0.0828,0.0285 -0.17505,0.0429 -0.27595,0.0429 -0.16816,0 -0.30785,-0.0572 -0.41909,-0.17105 -0.10866,-0.11383 -0.16639,-0.28291 -0.17415,-0.50798 h 1.37356 c 0.005,-0.0569 0.008,-0.11517 0.008,-0.17467 0,-0.31044 -0.0753,-0.55478 -0.22531,-0.73328 -0.14746,-0.1811 -0.35056,-0.27182 -0.60926,-0.27182 z m 2.30736,0 c -0.23284,0 -0.41996,0.0505 -0.56224,0.15141 -0.14229,0.1009 -0.21343,0.23647 -0.21343,0.40721 0,0.16557 0.0567,0.29135 0.17053,0.37672 0.11383,0.0828 0.28962,0.15392 0.52762,0.21343 0.14229,0.0362 0.24848,0.0723 0.31833,0.10852 0.0699,0.0336 0.11624,0.0723 0.13952,0.11627 0.0233,0.0414 0.0351,0.096 0.0351,0.1633 0,0.0983 -0.0454,0.17717 -0.1359,0.23667 -0.0906,0.0595 -0.21324,0.0889 -0.36846,0.0889 -0.11641,0 -0.22776,-0.0191 -0.33383,-0.0579 -0.10607,-0.0414 -0.2004,-0.096 -0.28318,-0.16329 l -0.18242,0.21342 c 0.21214,0.18368 0.47864,0.27595 0.79943,0.27595 0.2406,0 0.4437,-0.0505 0.60927,-0.15141 0.16557,-0.1009 0.24805,-0.25348 0.24805,-0.45785 0,-0.17592 -0.0557,-0.30943 -0.16692,-0.39998 -0.10866,-0.0931 -0.27413,-0.16942 -0.49661,-0.22893 -0.14746,-0.0414 -0.25881,-0.0765 -0.33383,-0.1049 -0.0724,-0.031 -0.12502,-0.0656 -0.15865,-0.10438 -0.031,-0.0388 -0.047,-0.0893 -0.047,-0.15142 0,-0.1785 0.14794,-0.26768 0.44286,-0.26768 0.12159,0 0.22882,0.0165 0.32195,0.0501 0.0931,0.031 0.18231,0.0764 0.26768,0.13591 l 0.14728,-0.22531 c -0.21214,-0.15005 -0.4606,-0.22479 -0.74517,-0.22479 z m -92.567997,0.0424 -0.907955,0.92759 1.005107,1.11776 h 0.430464 l -1.024226,-1.12137 0.915705,-0.92398 z m 3.462322,0 v 0.26045 h 0.609264 v 1.52497 h -0.628902 v 0.25993 h 1.529104 v -0.25993 h -0.574124 v -1.78542 z m 6.724136,0 0.741556,2.04535 h 0.376206 l 0.745172,-2.04535 h -0.341579 l -0.581877,1.75028 -0.590146,-1.75028 z m 7.135998,0 v 1.48673 c 0,0.19403 0.04897,0.34249 0.147278,0.44597 0.100896,0.10348 0.248322,0.15555 0.442351,0.15555 0.12159,0 0.240668,-0.0273 0.357085,-0.0816 0.119001,-0.0569 0.21849,-0.13579 0.298688,-0.23668 l 0.02739,0.27543 h 0.279054 v -2.04535 h -0.325562 v 1.50585 c -0.0595,0.0931 -0.13992,0.17097 -0.240813,0.23306 -0.100894,0.0621 -0.205536,0.093 -0.314193,0.093 -0.119004,0 -0.207153,-0.0299 -0.264067,-0.0894 -0.05433,-0.0621 -0.08113,-0.159 -0.08113,-0.29094 v -1.45159 z m 7.081221,0 v 0.26045 h 0.609267 v 1.52497 h -0.628904 v 0.25993 h 1.529106 v -0.25993 h -0.574124 v -1.78542 z m 58.06932,0 v 1.48673 c 0,0.19403 0.0495,0.34249 0.1478,0.44597 0.10089,0.10348 0.24832,0.15555 0.44235,0.15555 0.12159,0 0.24067,-0.0273 0.35708,-0.0816 0.11901,-0.0569 0.2185,-0.13579 0.29869,-0.23668 l 0.0269,0.27543 h 0.27956 v -2.04535 h -0.32607 v 1.50585 c -0.0595,0.0931 -0.1394,0.17097 -0.2403,0.23306 -0.10089,0.0621 -0.20554,0.093 -0.31419,0.093 -0.119,0 -0.20715,-0.0299 -0.26407,-0.0894 -0.0543,-0.0621 -0.0816,-0.159 -0.0816,-0.29094 v -1.45159 z m -87.607567,0.22531 c 0.157808,0 0.281524,0.0567 0.37207,0.17053 0.09055,0.11383 0.137456,0.27827 0.140041,0.493 h -1.0635 c 0.01294,-0.21732 0.06861,-0.38176 0.166915,-0.493 0.09831,-0.11383 0.226663,-0.17053 0.384474,-0.17053 z m 25.59482,0 c 0.157809,0 0.282041,0.0567 0.372587,0.17053 0.09054,0.11383 0.13694,0.27827 0.139525,0.493 h -1.062982 c 0.01294,-0.21732 0.06809,-0.38176 0.166396,-0.493 0.09831,-0.11383 0.226664,-0.17053 0.384474,-0.17053 z m 16.287893,0 c 0.157811,0 0.281525,0.0567 0.372071,0.17053 0.09055,0.11383 0.137456,0.27827 0.140044,0.493 h -1.063501 c 0.01294,-0.21732 0.06861,-0.38176 0.166915,-0.493 0.09831,-0.11383 0.226663,-0.17053 0.384471,-0.17053 z m 11.6339169,0 c 0.157808,0 0.282041,0.0567 0.372587,0.17053 0.09055,0.11383 0.13694,0.27827 0.139525,0.493 h -1.062985 c 0.01294,-0.21732 0.06809,-0.38176 0.166399,-0.493 0.09831,-0.11383 0.226664,-0.17053 0.384474,-0.17053 z m 11.602908,0 c 0.175919,0 0.306853,0.066 0.392224,0.19792 0.08796,0.12935 0.131776,0.32833 0.131776,0.59738 0,0.27164 -0.04382,0.47371 -0.131776,0.60565 -0.08537,0.12935 -0.217334,0.19378 -0.395841,0.19378 -0.178506,0 -0.312015,-0.0644 -0.399976,-0.19378 -0.08537,-0.13194 -0.128156,-0.33246 -0.128156,-0.60152 0,-0.26905 0.04433,-0.46957 0.132292,-0.60151 0.08796,-0.13194 0.220953,-0.19792 0.399457,-0.19792 z m 20.9413591,0 c 0.17592,0 0.30685,0.066 0.39222,0.19792 0.088,0.12935 0.13178,0.32833 0.13178,0.59738 0,0.27164 -0.0438,0.47371 -0.13178,0.60565 -0.0854,0.12935 -0.21733,0.19378 -0.39584,0.19378 -0.1785,0 -0.31202,-0.0644 -0.39997,-0.19378 -0.0854,-0.13194 -0.12816,-0.33246 -0.12816,-0.60152 0,-0.26905 0.0443,-0.46957 0.13229,-0.60151 0.088,-0.13194 0.22095,-0.19792 0.39946,-0.19792 z m 9.33845,0 c 0.15781,0 0.28204,0.0567 0.37258,0.17053 0.0905,0.11383 0.13694,0.27827 0.13953,0.493 h -1.06298 c 0.0129,-0.21732 0.0681,-0.38176 0.1664,-0.493 0.0983,-0.11383 0.22666,-0.17053 0.38447,-0.17053 z m -76.753974,0.80305 h 0.295073 v 0.524 c -0.0595,0.0906 -0.135794,0.16168 -0.228928,0.21342 -0.09054,0.0517 -0.186425,0.0775 -0.287321,0.0775 -0.26129,0 -0.392224,-0.12938 -0.392224,-0.38809 0,-0.1397 0.04794,-0.24537 0.143661,-0.31781 0.09572,-0.0724 0.252428,-0.10903 0.469739,-0.10903 z m 30.2487989,0 h 0.294555 v 0.524 c -0.0595,0.0906 -0.135792,0.16168 -0.228925,0.21342 -0.09055,0.0517 -0.18591,0.0775 -0.286803,0.0775 -0.2612919,0 -0.3922269,-0.12938 -0.3922269,-0.38809 0,-0.1397 0.04794,-0.24537 0.143661,-0.31781 0.09572,-0.0724 0.2524279,-0.10903 0.4697389,-0.10903 z m 9.30692499,0 h 0.295074 v 0.524 c -0.0595,0.0906 -0.135795,0.16168 -0.228928,0.21342 -0.09055,0.0517 -0.186426,0.0775 -0.287319,0.0775 -0.261292,0 -0.391708,-0.12938 -0.391708,-0.38809 0,-0.1397 0.04794,-0.24537 0.143661,-0.31781 0.09572,-0.0724 0.25191,-0.10903 0.46922,-0.10903 z m 16.28790011,0 h 0.29507 v 0.524 c -0.0595,0.0906 -0.1358,0.16168 -0.22893,0.21342 -0.0905,0.0517 -0.18642,0.0775 -0.28732,0.0775 -0.26129,0 -0.39222,-0.12938 -0.39222,-0.38809 0,-0.1397 0.0479,-0.24537 0.14366,-0.31781 0.0957,-0.0724 0.25243,-0.10903 0.46974,-0.10903 z"
       style="font-style:normal;font-variant:normal;font-weight:300;font-stretch:normal;font-size:3.88055563px;line-height:1.25;font-family:Titillium;-inkscape-font-specification:'Titillium Light';text-align:start;letter-spacing:0px;word-spacing:0px;text-anchor:start;display:inline;opacity:1;fill:#999999;fill-opacity:1;stroke:none;stroke-width:0.15033114" />
  </g>
</svg>
