<?xml version="1.0" encoding="UTF-8" standalone="no"?>
<svg
   xmlns:dc="http://purl.org/dc/elements/1.1/"
   xmlns:cc="http://creativecommons.org/ns#"
   xmlns:rdf="http://www.w3.org/1999/02/22-rdf-syntax-ns#"
   xmlns:svg="http://www.w3.org/2000/svg"
   xmlns="http://www.w3.org/2000/svg"
   id="svg1214"
   version="1.1"
   width="29.9mm"
   height="30mm"
   viewBox="0 0 29.9 30">
  <metadata
     id="metadata1220">
    <rdf:RDF>
      <cc:Work
         rdf:about="">
        <dc:format>image/svg+xml</dc:format>
        <dc:type
           rdf:resource="http://purl.org/dc/dcmitype/StillImage" />
        <dc:title></dc:title>
      </cc:Work>
    </rdf:RDF>
  </metadata>
  <defs
     id="defs1218" />
  <g
     id="g1212"
     stroke-width=".789"
     transform="matrix(4.76518 0 0 4.7728 -26.425 -82.531)">
    <path
       id="path1206"
       fill="#1a1a1a"
       d="M8.672 17.292a3.148 3.148 0 0 0-3.148 3.148 3.148 3.148 0 0 0 2.907 3.136v-1.189a1.648 1.648 0 0 1-1.402-1.625c0-.368.122-.708.327-.983a.424.424 0 0 1-.366.016c-.232-.114-.299-.636-.284-1l.07-.001c.357-.004.823.068.93.285a.424.424 0 0 1-.016.367c.214-.16.468-.27.744-.31a.423.423 0 0 1-.268-.248c-.083-.244.239-.66.506-.907.268.246.59.663.506.907a.423.423 0 0 1-.267.247c.276.04.53.15.744.31a.424.424 0 0 1-.016-.366c.107-.218.573-.29.93-.285.023 0 .047 0 .07.002.014.363-.052.885-.284.999a.424.424 0 0 1-.367-.016c.206.275.328.615.328.983 0 .823-.611 1.508-1.403 1.626v1.19a3.148 3.148 0 0 0 2.907-3.138 3.148 3.148 0 0 0-3.148-3.148z" />
    <path
       id="path1208"
       fill="#1a1a1a"
       d="M8.672 19.6c-.644 0-1.16.518-1.16 1.162 0 .644.516 1.16 1.16 1.16.644 0 1.161-.516 1.161-1.16 0-.644-.517-1.161-1.16-1.161z" />
    <rect
       id="rect1210"
       paint-order="markers fill stroke"
       fill="#1a6cfb"
       width="1.206"
       height="1.206"
       x="20.21"
       y="7.946"
       transform="rotate(45)"
       ry=".209"
       rx=".209" />
  </g>
</svg>
