<svg width="69" height="69" viewBox="0 0 69 69" fill="none" xmlns="http://www.w3.org/2000/svg">
<circle cx="34.5" cy="34.5" r="34.5" fill="#C5C2C2"/>
<path d="M52.5 32.3077H35.9135V16.4423C35.9135 15.6447 35.2673 15 34.4712 15C33.675 15 33.0288 15.6447 33.0288 16.4423V32.3077H16.4423C15.6462 32.3077 15 32.9524 15 33.75C15 34.5476 15.6462 35.1923 16.4423 35.1923H33.0288V52.5C33.0288 53.2976 33.675 53.9423 34.4712 53.9423C35.2673 53.9423 35.9135 53.2976 35.9135 52.5V35.1923H52.5C53.2961 35.1923 53.9423 34.5476 53.9423 33.75C53.9423 32.9524 53.2961 32.3077 52.5 32.3077Z" fill="white"/>
</svg>
