<?xml version="1.0" encoding="UTF-8" standalone="no"?>
<svg
   xmlns:dc="http://purl.org/dc/elements/1.1/"
   xmlns:cc="http://creativecommons.org/ns#"
   xmlns:rdf="http://www.w3.org/1999/02/22-rdf-syntax-ns#"
   xmlns:svg="http://www.w3.org/2000/svg"
   xmlns="http://www.w3.org/2000/svg"
   id="svg7773"
   version="1.1"
   viewBox="0 0 285.75 38.569435"
   height="38.569435mm"
   width="285.75mm">
  <defs
     id="defs7767" />
  <metadata
     id="metadata7770">
    <rdf:RDF>
      <cc:Work
         rdf:about="">
        <dc:format>image/svg+xml</dc:format>
        <dc:type
           rdf:resource="http://purl.org/dc/dcmitype/StillImage" />
        <dc:title></dc:title>
      </cc:Work>
    </rdf:RDF>
  </metadata>
  <g
     transform="translate(85.19644,-120.26841)"
     id="layer1">
    <rect
       style="display:inline;opacity:1;fill:#333333;fill-opacity:1;stroke:#000000;stroke-width:0.26458332;stroke-linecap:round;stroke-linejoin:miter;stroke-miterlimit:4;stroke-dasharray:none;stroke-dashoffset:0;stroke-opacity:1;paint-order:markers fill stroke"
       id="rect15141"
       width="285.48541"
       height="38.304852"
       x="-85.064148"
       y="120.4007"
       rx="0.52916676"
       ry="0.52916658" />
    <path
       id="text15205"
       transform="matrix(0.26458333,0,0,0.26458333,-85.19644,120.26841)"
       d="M 123.70508 18.087891 C 122.82508 18.087891 122.10811 18.239858 121.55078 18.542969 C 120.99345 18.84608 120.71484 19.358476 120.71484 20.082031 C 120.71484 20.209142 120.71874 20.306556 120.72852 20.375 L 121.03711 23.191406 C 121.04689 23.259851 121.05078 23.35337 121.05078 23.470703 C 121.05078 23.900925 120.89103 24.218495 120.56836 24.423828 C 120.24569 24.619384 119.65731 24.716797 118.80664 24.716797 L 118.80664 25.714844 C 119.65731 25.714844 120.24569 25.816151 120.56836 26.021484 C 120.89103 26.226818 121.05078 26.54634 121.05078 26.976562 C 121.05078 27.103674 121.04689 27.201087 121.03711 27.269531 L 120.72852 30.056641 C 120.71874 30.125085 120.71484 30.222498 120.71484 30.349609 C 120.71484 31.073165 120.99345 31.585561 121.55078 31.888672 C 122.10811 32.191783 122.82508 32.34375 123.70508 32.34375 L 123.70508 31.361328 C 123.10863 31.361328 122.64494 31.273656 122.3125 31.097656 C 121.98006 30.921656 121.83394 30.617722 121.87305 30.1875 L 122.16602 27.181641 C 122.17579 27.083863 122.18164 26.951378 122.18164 26.785156 C 122.18164 26.306045 122.06864 25.94951 121.84375 25.714844 C 121.62864 25.470399 121.28185 25.302844 120.80273 25.214844 C 121.27207 25.126844 121.61886 24.961241 121.84375 24.716797 C 122.06864 24.462575 122.18164 24.100193 122.18164 23.630859 C 122.18164 23.464637 122.17579 23.338 122.16602 23.25 L 121.87305 20.244141 C 121.79482 19.461918 122.40463 19.070312 123.70508 19.070312 L 123.70508 18.087891 z M 140.29688 55.123047 C 139.43643 55.817269 138.7331 56.503068 138.18555 57.177734 C 137.64777 57.852401 137.23279 58.604436 136.93945 59.435547 C 136.6559 60.266658 136.51367 61.225214 136.51367 62.310547 C 136.51367 63.39588 136.6559 64.354436 136.93945 65.185547 C 137.23279 66.016658 137.64777 66.768693 138.18555 67.443359 C 138.7331 68.118026 139.43643 68.801872 140.29688 69.496094 L 140.92773 68.822266 C 140.18462 68.157377 139.58845 67.526132 139.13867 66.929688 C 138.69867 66.323465 138.36551 65.653255 138.14062 64.919922 C 137.91574 64.176811 137.80469 63.30788 137.80469 62.310547 C 137.80469 61.303436 137.91184 60.432552 138.12695 59.699219 C 138.35184 58.956108 138.68305 58.285898 139.12305 57.689453 C 139.57282 57.093009 140.17485 56.463717 140.92773 55.798828 L 140.29688 55.123047 z M 252.1875 55.123047 L 251.55664 55.798828 C 252.30953 56.463717 252.90766 57.093009 253.34766 57.689453 C 253.79743 58.285898 254.12864 58.956108 254.34375 59.699219 C 254.56864 60.432552 254.68164 61.303436 254.68164 62.310547 C 254.68164 63.30788 254.56864 64.176811 254.34375 64.919922 C 254.11886 65.653255 253.78181 66.323465 253.33203 66.929688 C 252.89203 67.526132 252.29975 68.157377 251.55664 68.822266 L 252.1875 69.496094 C 253.04794 68.801872 253.74738 68.118026 254.28516 67.443359 C 254.83271 66.768693 255.24769 66.016658 255.53125 65.185547 C 255.82458 64.354436 255.97266 63.39588 255.97266 62.310547 C 255.97266 61.225214 255.82458 60.266658 255.53125 59.435547 C 255.24769 58.604436 254.83271 57.852401 254.28516 57.177734 C 253.74738 56.503068 253.04794 55.817269 252.1875 55.123047 z M 48.921875 92.277344 L 48.921875 93.259766 C 50.222319 93.259766 50.834082 93.651372 50.755859 94.433594 L 50.462891 97.439453 C 50.453113 97.527453 50.447266 97.650196 50.447266 97.806641 C 50.447266 98.285752 50.570009 98.652028 50.814453 98.90625 C 51.068675 99.150694 51.460281 99.322144 51.988281 99.419922 C 51.440726 99.498144 51.045226 99.654005 50.800781 99.888672 C 50.556337 100.12334 50.433594 100.48572 50.433594 100.97461 C 50.433594 101.04305 50.443335 101.17359 50.462891 101.36914 L 50.755859 104.37695 C 50.79497 104.80718 50.648851 105.10916 50.316406 105.28516 C 49.983962 105.46116 49.518319 105.55078 48.921875 105.55078 L 48.921875 106.5332 C 49.801875 106.5332 50.520792 106.38124 51.078125 106.07812 C 51.635458 105.77501 51.914062 105.26066 51.914062 104.53711 C 51.914062 104.41 51.910168 104.31259 51.900391 104.24414 L 51.591797 101.45703 C 51.582019 101.39836 51.578125 101.32043 51.578125 101.22266 C 51.578125 100.77288 51.747622 100.44167 52.089844 100.22656 C 52.432066 100.01145 53.008757 99.904297 53.820312 99.904297 L 53.820312 98.90625 C 53.018535 98.90625 52.441844 98.799095 52.089844 98.583984 C 51.747622 98.368873 51.578125 98.041563 51.578125 97.601562 C 51.578125 97.503785 51.582019 97.429748 51.591797 97.380859 L 51.900391 94.564453 C 51.910168 94.496009 51.914062 94.398595 51.914062 94.271484 C 51.914063 93.547929 51.635458 93.03358 51.078125 92.730469 C 50.520792 92.427358 49.801875 92.277344 48.921875 92.277344 z "
       style="font-style:normal;font-variant:normal;font-weight:300;font-stretch:normal;font-size:3.88055563px;line-height:1.25;font-family:Titillium;-inkscape-font-specification:'Titillium Light';text-align:start;letter-spacing:0px;word-spacing:0px;text-anchor:start;display:inline;opacity:1;fill:#ffffff;fill-opacity:1;stroke:none;stroke-width:0.56818068" />
    <path
       style="display:inline;opacity:1;fill:#4d4d4d;fill-opacity:1;stroke:none;stroke-width:0.26458332;stroke-linecap:round;stroke-linejoin:miter;stroke-miterlimit:4;stroke-dasharray:none;stroke-dashoffset:0;stroke-opacity:1;paint-order:markers fill stroke"
       d="m -84.534999,120.40045 c -0.29315,0 -0.52916,0.23601 -0.52916,0.52917 v 37.19342 c 0,0.29315 0.23665,0.50967 0.52916,0.52917 h 7.9375 v -38.25176 z"
       id="path15207" />
    <path
       id="text15255"
       transform="matrix(0.26458333,0,0,0.26458333,-85.19644,120.26841)"
       d="M 21.740234 22.082031 L 19.279297 23.617188 L 19.724609 24.324219 L 21.607422 23.185547 L 21.607422 29.533203 L 19.580078 29.533203 L 19.580078 30.349609 L 24.34375 30.349609 L 24.34375 29.533203 L 22.628906 29.533203 L 22.628906 22.082031 L 21.740234 22.082031 z M 21.367188 40.576172 C 20.823188 40.576172 20.347453 40.671281 19.939453 40.863281 C 19.539453 41.055281 19.175656 41.355672 18.847656 41.763672 L 19.544922 42.304688 C 19.816922 41.984688 20.079938 41.758859 20.335938 41.630859 C 20.599937 41.494859 20.928313 41.427734 21.320312 41.427734 C 21.784312 41.427734 22.148109 41.560219 22.412109 41.824219 C 22.676109 42.088219 22.808594 42.452016 22.808594 42.916016 C 22.808594 43.380016 22.707812 43.820328 22.507812 44.236328 C 22.307813 44.652328 21.944016 45.152328 21.416016 45.736328 C 20.896016 46.320328 20.095625 47.128156 19.015625 48.160156 L 19.015625 48.976562 L 23.935547 48.976562 L 24.056641 48.111328 L 20.167969 48.111328 C 21.119969 47.239328 21.856953 46.519172 22.376953 45.951172 C 22.896953 45.375172 23.271906 44.847187 23.503906 44.367188 C 23.743906 43.887188 23.863281 43.390906 23.863281 42.878906 C 23.863281 42.438906 23.764453 42.047125 23.564453 41.703125 C 23.364453 41.351125 23.0715 41.075 22.6875 40.875 C 22.3115 40.675 21.871187 40.576172 21.367188 40.576172 z M 21.367188 59.203125 C 20.471188 59.203125 19.687625 59.522109 19.015625 60.162109 L 19.568359 60.775391 C 19.856359 60.511391 20.132484 60.319219 20.396484 60.199219 C 20.668484 60.079219 20.976313 60.017578 21.320312 60.017578 C 21.776312 60.017578 22.147547 60.142625 22.435547 60.390625 C 22.731547 60.630625 22.880859 60.970156 22.880859 61.410156 C 22.880859 61.882156 22.727828 62.242234 22.423828 62.490234 C 22.119828 62.730234 21.752312 62.849609 21.320312 62.849609 L 20.828125 62.849609 L 20.708984 63.654297 L 21.392578 63.654297 C 22.536578 63.654297 23.107422 64.178563 23.107422 65.226562 C 23.107422 65.746562 22.943234 66.158891 22.615234 66.462891 C 22.295234 66.758891 21.847484 66.90625 21.271484 66.90625 C 20.919484 66.90625 20.579953 66.839125 20.251953 66.703125 C 19.931953 66.559125 19.659547 66.353844 19.435547 66.089844 L 18.763672 66.642578 C 19.059672 67.002578 19.432859 67.274984 19.880859 67.458984 C 20.336859 67.642984 20.808875 67.734375 21.296875 67.734375 C 21.856875 67.734375 22.351203 67.626156 22.783203 67.410156 C 23.223203 67.194156 23.564688 66.893766 23.804688 66.509766 C 24.044687 66.125766 24.164062 65.698562 24.164062 65.226562 C 24.164062 64.618563 23.979328 64.139109 23.611328 63.787109 C 23.251328 63.435109 22.812969 63.239219 22.292969 63.199219 C 22.740969 63.111219 23.119641 62.891062 23.431641 62.539062 C 23.743641 62.179063 23.900391 61.759297 23.900391 61.279297 C 23.900391 60.903297 23.795891 60.558094 23.587891 60.246094 C 23.379891 59.926094 23.083219 59.674234 22.699219 59.490234 C 22.315219 59.298234 21.871187 59.203125 21.367188 59.203125 z M 21.427734 77.830078 L 19.003906 83.480469 L 19.003906 84.224609 L 22.435547 84.224609 L 22.435547 86.228516 L 23.408203 86.228516 L 23.408203 84.224609 L 24.476562 84.224609 L 24.476562 83.408203 L 23.408203 83.408203 L 23.408203 81.068359 L 22.53125 81.068359 L 22.447266 83.408203 L 20.072266 83.408203 L 22.267578 78.189453 L 21.427734 77.830078 z M 19.603516 96.587891 L 19.603516 100.71484 L 20.419922 100.71484 C 20.707922 100.61084 20.939234 100.54 21.115234 100.5 C 21.291234 100.46 21.487125 100.43945 21.703125 100.43945 C 22.159125 100.43945 22.524875 100.57938 22.796875 100.85938 C 23.068875 101.13137 23.203125 101.57913 23.203125 102.20312 C 23.203125 102.83512 23.052047 103.32025 22.748047 103.65625 C 22.444047 103.99225 22.016844 104.16016 21.464844 104.16016 C 20.784844 104.16016 20.1915 103.90458 19.6875 103.39258 L 19.064453 104.00391 C 19.744453 104.65991 20.544844 104.98828 21.464844 104.98828 C 22.024844 104.98828 22.515453 104.87634 22.939453 104.65234 C 23.363453 104.42034 23.688109 104.09569 23.912109 103.67969 C 24.144109 103.26369 24.259766 102.78423 24.259766 102.24023 C 24.259766 101.42423 24.052719 100.78803 23.636719 100.33203 C 23.228719 99.876031 22.680187 99.648438 21.992188 99.648438 C 21.736188 99.648437 21.491766 99.676422 21.259766 99.732422 C 21.035766 99.780422 20.808172 99.871813 20.576172 100.00781 L 20.576172 97.404297 L 23.839844 97.404297 L 23.984375 96.587891 L 19.603516 96.587891 z M 22.160156 115.08203 C 21.520156 115.08203 20.967906 115.26677 20.503906 115.63477 C 20.047906 116.00277 19.695266 116.52703 19.447266 117.20703 C 19.207266 117.87903 19.087891 118.67003 19.087891 119.58203 C 19.087891 120.87803 19.304328 121.87431 19.736328 122.57031 C 20.176328 123.26631 20.875938 123.61523 21.835938 123.61523 C 22.323937 123.61523 22.76425 123.49762 23.15625 123.26562 C 23.54825 123.03363 23.859797 122.69781 24.091797 122.25781 C 24.323797 121.80981 24.439453 121.29122 24.439453 120.69922 C 24.439453 120.13122 24.336906 119.65353 24.128906 119.26953 C 23.920906 118.87753 23.635391 118.58653 23.275391 118.39453 C 22.923391 118.20253 22.531609 118.10547 22.099609 118.10547 C 21.683609 118.10547 21.312375 118.19509 20.984375 118.37109 C 20.656375 118.54709 20.363422 118.82694 20.107422 119.21094 C 20.123422 118.19494 20.311875 117.39083 20.671875 116.79883 C 21.031875 116.19883 21.524438 115.89844 22.148438 115.89844 C 22.596437 115.89844 23.016203 116.01409 23.408203 116.24609 L 23.804688 115.57422 C 23.308688 115.24622 22.760156 115.08203 22.160156 115.08203 z M 21.943359 118.92188 C 22.919359 118.92188 23.408203 119.52638 23.408203 120.73438 C 23.408203 121.38237 23.272 121.88981 23 122.25781 C 22.736 122.61781 22.347937 122.79883 21.835938 122.79883 C 21.251938 122.79883 20.824734 122.58239 20.552734 122.15039 C 20.280734 121.71839 20.135141 121.02994 20.119141 120.08594 C 20.335141 119.72594 20.596391 119.44237 20.900391 119.23438 C 21.212391 119.02638 21.559359 118.92188 21.943359 118.92188 z "
       style="font-style:normal;font-variant:normal;font-weight:300;font-stretch:normal;font-size:3.88055563px;line-height:1.26999998;font-family:Titillium;-inkscape-font-specification:'Titillium Light';text-align:start;letter-spacing:0px;word-spacing:0px;text-anchor:start;display:inline;opacity:1;fill:#999999;fill-opacity:1;stroke:none;stroke-width:0.56818068" />
    <rect
       ry="0.52916658"
       rx="0.52916676"
       y="120.4007"
       x="-85.064148"
       height="38.304852"
       width="285.48541"
       id="rect15257"
       style="display:inline;opacity:1;fill:none;fill-opacity:1;stroke:#000000;stroke-width:0.26458332;stroke-linecap:round;stroke-linejoin:miter;stroke-miterlimit:4;stroke-dasharray:none;stroke-dashoffset:0;stroke-opacity:1;paint-order:markers fill stroke" />
    <path
       transform="matrix(0.26458333,0,0,0.26458333,-85.19644,120.26841)"
       id="rect8366"
       d="M 77.519531 19.011719 C 77.255531 19.011719 77.041222 19.095497 76.875 19.261719 C 76.718556 19.418163 76.640625 19.622731 76.640625 19.876953 C 76.640625 20.131175 76.718556 20.34159 76.875 20.507812 C 77.041222 20.664257 77.255531 20.742188 77.519531 20.742188 C 77.793309 20.742188 78.013465 20.664257 78.179688 20.507812 C 78.34591 20.34159 78.429688 20.131175 78.429688 19.876953 C 78.429688 19.622731 78.34591 19.418163 78.179688 19.261719 C 78.013465 19.095497 77.793309 19.011719 77.519531 19.011719 z M 52.837891 19.363281 L 52.837891 23.382812 C 52.300113 22.766812 51.606526 22.458984 50.755859 22.458984 C 50.139859 22.458984 49.602134 22.634328 49.142578 22.986328 C 48.6928 23.32855 48.346007 23.807828 48.101562 24.423828 C 47.857118 25.03005 47.734375 25.719743 47.734375 26.492188 C 47.734375 27.743743 47.979861 28.725675 48.46875 29.439453 C 48.967417 30.153231 49.703863 30.509766 50.681641 30.509766 C 51.111863 30.509766 51.51321 30.412352 51.884766 30.216797 C 52.256321 30.021241 52.583632 29.729002 52.867188 29.337891 L 52.984375 30.349609 L 54.070312 30.349609 L 54.070312 19.509766 L 52.837891 19.363281 z M 65.205078 19.509766 L 65.205078 20.492188 L 67.582031 20.492188 L 67.582031 28.382812 C 67.582031 29.037924 67.786599 29.556167 68.197266 29.9375 C 68.61771 30.318833 69.174918 30.509766 69.869141 30.509766 C 70.602474 30.509766 71.214236 30.379234 71.703125 30.115234 L 71.380859 29.220703 C 70.921304 29.396703 70.490733 29.484375 70.089844 29.484375 C 69.239177 29.484375 68.814453 29.137582 68.814453 28.443359 L 68.814453 19.509766 L 65.205078 19.509766 z M 60.048828 22.458984 C 59.374161 22.458984 58.781882 22.634328 58.273438 22.986328 C 57.764993 23.32855 57.37534 23.807828 57.101562 24.423828 C 56.827785 25.03005 56.689453 25.719743 56.689453 26.492188 C 56.689453 27.71441 56.997281 28.692448 57.613281 29.425781 C 58.239059 30.149337 59.109943 30.509766 60.224609 30.509766 C 60.693943 30.509766 61.157632 30.431835 61.617188 30.275391 C 62.086521 30.118946 62.503457 29.89879 62.865234 29.615234 L 62.292969 28.794922 C 61.931191 29.029589 61.588292 29.204932 61.265625 29.322266 C 60.952736 29.429821 60.605943 29.484375 60.224609 29.484375 C 59.589054 29.484375 59.061069 29.268113 58.640625 28.837891 C 58.229958 28.407668 58.009802 27.768635 57.980469 26.917969 L 63.171875 26.917969 C 63.191431 26.702858 63.203125 26.482701 63.203125 26.257812 C 63.203125 25.084479 62.918674 24.159042 62.351562 23.484375 C 61.794229 22.799931 61.026606 22.458984 60.048828 22.458984 z M 95.226562 22.458984 C 94.551896 22.458984 93.959616 22.634328 93.451172 22.986328 C 92.942727 23.32855 92.551122 23.807828 92.277344 24.423828 C 92.003566 25.03005 91.867188 25.719743 91.867188 26.492188 C 91.867187 27.71441 92.175016 28.692448 92.791016 29.425781 C 93.416793 30.149337 94.287677 30.509766 95.402344 30.509766 C 95.871677 30.509766 96.335366 30.431835 96.794922 30.275391 C 97.264255 30.118946 97.679238 29.89879 98.041016 29.615234 L 97.470703 28.794922 C 97.108925 29.029589 96.766026 29.204932 96.443359 29.322266 C 96.13047 29.429821 95.783677 29.484375 95.402344 29.484375 C 94.766788 29.484375 94.238804 29.268113 93.818359 28.837891 C 93.407693 28.407668 93.187536 27.768635 93.158203 26.917969 L 98.349609 26.917969 C 98.369165 26.702858 98.378906 26.482701 98.378906 26.257812 C 98.378906 25.084479 98.096408 24.159042 97.529297 23.484375 C 96.971964 22.799931 96.20434 22.458984 95.226562 22.458984 z M 106.19141 22.458984 C 105.52652 22.458984 104.9732 22.624587 104.5332 22.957031 C 104.10298 23.289476 103.73086 23.788236 103.41797 24.453125 L 103.18359 22.619141 L 101.04297 22.619141 L 101.04297 23.572266 L 102.25977 23.572266 L 102.25977 29.396484 L 101.04297 29.396484 L 101.04297 30.349609 L 105.06055 30.349609 L 105.06055 29.396484 L 103.49219 29.396484 L 103.49219 26.140625 C 103.99085 24.439292 104.83641 23.587891 106.0293 23.587891 L 106.10352 23.587891 L 106.10352 25.244141 L 107.09961 25.244141 L 107.27539 22.619141 C 106.86472 22.511585 106.5043 22.458984 106.19141 22.458984 z M 74.96875 22.619141 L 74.96875 23.601562 L 77.271484 23.601562 L 77.271484 29.367188 L 74.894531 29.367188 L 74.894531 30.349609 L 80.673828 30.349609 L 80.673828 29.367188 L 78.501953 29.367188 L 78.501953 22.619141 L 74.96875 22.619141 z M 82.794922 22.619141 L 85.595703 30.349609 L 87.017578 30.349609 L 89.833984 22.619141 L 88.542969 22.619141 L 86.34375 29.234375 L 84.115234 22.619141 L 82.794922 22.619141 z M 51.078125 23.455078 C 51.430125 23.455078 51.757436 23.544703 52.060547 23.720703 C 52.363658 23.886925 52.62278 24.130458 52.837891 24.453125 L 52.837891 28.294922 C 52.300113 29.116255 51.664974 29.527344 50.931641 29.527344 C 50.325418 29.527344 49.861729 29.274069 49.539062 28.765625 C 49.226174 28.247403 49.068359 27.489521 49.068359 26.492188 C 49.068359 25.485076 49.239809 24.727194 49.582031 24.21875 C 49.934031 23.710306 50.432792 23.455078 51.078125 23.455078 z M 60.064453 23.470703 C 60.660898 23.470703 61.128481 23.685012 61.470703 24.115234 C 61.812925 24.545457 61.990222 25.16696 62 25.978516 L 57.980469 25.978516 C 58.029358 25.157182 58.239773 24.535679 58.611328 24.115234 C 58.982884 23.685012 59.468009 23.470703 60.064453 23.470703 z M 95.240234 23.470703 C 95.836679 23.470703 96.306215 23.685012 96.648438 24.115234 C 96.99066 24.545457 97.166003 25.16696 97.175781 25.978516 L 93.158203 25.978516 C 93.207092 25.157182 93.417507 24.535679 93.789062 24.115234 C 94.160618 23.685012 94.64379 23.470703 95.240234 23.470703 z M 93.408203 56.488281 L 92.175781 56.619141 L 92.175781 67.443359 L 93.408203 67.443359 L 93.408203 61.8125 C 93.64287 61.470278 93.944851 61.170238 94.316406 60.916016 C 94.687962 60.661793 95.07372 60.535156 95.474609 60.535156 C 95.943943 60.535156 96.286842 60.642311 96.501953 60.857422 C 96.717064 61.062755 96.824219 61.395913 96.824219 61.855469 L 96.824219 67.443359 L 98.056641 67.443359 L 98.056641 61.841797 C 98.056641 60.316464 97.33383 59.552734 95.886719 59.552734 C 95.417385 59.552734 94.961484 59.659889 94.521484 59.875 C 94.081484 60.090111 93.711314 60.394045 93.408203 60.785156 L 93.408203 56.488281 z M 68.490234 57.177734 C 67.80579 57.177734 67.121944 57.308266 66.4375 57.572266 C 65.753056 57.826488 65.092587 58.227835 64.457031 58.775391 L 65.175781 59.611328 C 65.742892 59.102884 66.300101 58.750243 66.847656 58.554688 C 67.395212 58.359132 67.948526 58.261719 68.505859 58.261719 C 69.376082 58.261719 70.040444 58.487722 70.5 58.9375 C 70.959556 59.3775 71.26349 59.973674 71.410156 60.726562 C 71.566601 61.469674 71.644531 62.399005 71.644531 63.513672 C 71.644531 64.520783 71.628943 65.307889 71.599609 65.875 C 71.570276 66.432333 71.488451 66.890175 71.351562 67.251953 C 71.224451 67.603953 71.017931 67.78125 70.734375 67.78125 C 70.411708 67.78125 70.158434 67.644872 69.972656 67.371094 C 69.796656 67.087538 69.708984 66.582931 69.708984 65.859375 L 69.708984 61.517578 C 69.317873 61.312245 68.965233 61.171972 68.652344 61.09375 C 68.339455 61.015528 68.002403 60.974609 67.640625 60.974609 C 66.711736 60.974609 65.998667 61.294132 65.5 61.929688 C 65.011111 62.555465 64.765625 63.498432 64.765625 64.759766 C 64.765625 65.79621 64.940969 66.616434 65.292969 67.222656 C 65.644969 67.819101 66.202177 68.119141 66.964844 68.119141 C 67.913288 68.119141 68.583498 67.639863 68.974609 66.681641 L 69.033203 66.681641 C 69.023425 66.955418 69.081873 67.253505 69.208984 67.576172 C 69.336095 67.908616 69.532875 68.191115 69.796875 68.425781 C 70.060875 68.660448 70.382339 68.777344 70.763672 68.777344 C 71.340561 68.777344 71.78672 68.578623 72.099609 68.177734 C 72.412498 67.786623 72.626807 67.198238 72.744141 66.416016 C 72.861474 65.624016 72.919922 64.573894 72.919922 63.263672 C 72.919922 61.445005 72.6082 59.977948 71.982422 58.863281 C 71.366422 57.738837 70.201346 57.177734 68.490234 57.177734 z M 101.20508 57.337891 L 101.20508 67.443359 L 102.46484 67.443359 L 102.46484 63.689453 L 103.77148 63.689453 C 104.98393 63.689453 105.93664 63.430332 106.63086 62.912109 C 107.32508 62.393887 107.67188 61.57171 107.67188 60.447266 C 107.67188 59.410821 107.33093 58.633457 106.64648 58.115234 C 105.97182 57.597012 105.01326 57.337891 103.77148 57.337891 L 101.20508 57.337891 z M 86.080078 57.822266 L 84.847656 57.96875 L 84.847656 59.714844 L 83.072266 59.714844 L 83.072266 60.681641 L 84.847656 60.681641 L 84.847656 65.287109 C 84.847656 65.981332 85.077554 66.544387 85.537109 66.974609 C 85.996665 67.395054 86.631804 67.605469 87.443359 67.605469 C 87.814915 67.605469 88.187038 67.556762 88.558594 67.458984 C 88.939927 67.361207 89.261391 67.222875 89.525391 67.046875 L 89.042969 66.210938 C 88.583413 66.455382 88.088547 66.578125 87.560547 66.578125 C 87.042325 66.578125 86.666307 66.47097 86.431641 66.255859 C 86.196974 66.040748 86.080078 65.713438 86.080078 65.273438 L 86.080078 60.681641 L 88.601562 60.681641 L 88.763672 59.714844 L 86.080078 59.714844 L 86.080078 57.822266 z M 130.05078 57.822266 L 128.81836 57.96875 L 128.81836 59.714844 L 127.04492 59.714844 L 127.04492 60.681641 L 128.81836 60.681641 L 128.81836 65.287109 C 128.81836 65.981332 129.04826 66.544387 129.50781 66.974609 C 129.96737 67.395054 130.60251 67.605469 131.41406 67.605469 C 131.78562 67.605469 132.15774 67.556762 132.5293 67.458984 C 132.91063 67.361207 133.23405 67.222875 133.49805 67.046875 L 133.01367 66.210938 C 132.55412 66.455382 132.0612 66.578125 131.5332 66.578125 C 131.01498 66.578125 130.63701 66.47097 130.40234 66.255859 C 130.16768 66.040748 130.05078 65.713438 130.05078 65.273438 L 130.05078 60.681641 L 132.57422 60.681641 L 132.73438 59.714844 L 130.05078 59.714844 L 130.05078 57.822266 z M 102.46484 58.349609 L 103.93164 58.349609 C 104.66497 58.349609 105.24166 58.521059 105.66211 58.863281 C 106.09233 59.195726 106.30859 59.729557 106.30859 60.462891 C 106.30859 61.274446 106.09233 61.84529 105.66211 62.177734 C 105.24166 62.510179 104.65134 62.677734 103.88867 62.677734 L 102.46484 62.677734 L 102.46484 58.349609 z M 77.636719 59.552734 C 76.962052 59.552734 76.371726 59.728078 75.863281 60.080078 C 75.354837 60.4223 74.963231 60.901578 74.689453 61.517578 C 74.415675 62.1238 74.279297 62.813493 74.279297 63.585938 C 74.279297 64.80816 74.587125 65.786198 75.203125 66.519531 C 75.828903 67.243087 76.697833 67.605469 77.8125 67.605469 C 78.281833 67.605469 78.747476 67.527538 79.207031 67.371094 C 79.676365 67.214649 80.091347 66.994493 80.453125 66.710938 L 79.880859 65.888672 C 79.519082 66.123339 79.178135 66.298682 78.855469 66.416016 C 78.54258 66.523571 78.193833 66.578125 77.8125 66.578125 C 77.176944 66.578125 76.64896 66.363816 76.228516 65.933594 C 75.817849 65.503372 75.599646 64.862385 75.570312 64.011719 L 80.761719 64.011719 C 80.781274 63.796608 80.791016 63.576451 80.791016 63.351562 C 80.791016 62.178229 80.506564 61.254745 79.939453 60.580078 C 79.38212 59.895634 78.614497 59.552734 77.636719 59.552734 z M 112.71094 59.552734 C 111.64516 59.552734 110.81909 59.91901 110.23242 60.652344 C 109.65553 61.385677 109.36719 62.363715 109.36719 63.585938 C 109.36719 64.827715 109.65553 65.811601 110.23242 66.535156 C 110.80931 67.248934 111.63149 67.605469 112.69727 67.605469 C 113.75327 67.605469 114.5696 67.239193 115.14648 66.505859 C 115.73315 65.762748 116.02734 64.78471 116.02734 63.572266 C 116.02734 62.330488 115.73705 61.35245 115.16016 60.638672 C 114.59305 59.915116 113.77672 59.552734 112.71094 59.552734 z M 121.53516 59.552734 C 120.65516 59.552734 119.94598 59.743667 119.4082 60.125 C 118.87043 60.506333 118.60156 61.018729 118.60156 61.664062 C 118.60156 62.28984 118.81782 62.765224 119.24805 63.087891 C 119.67827 63.40078 120.34263 63.669642 121.24219 63.894531 C 121.77997 64.03142 122.18131 64.167799 122.44531 64.304688 C 122.70931 64.431799 122.88466 64.577918 122.97266 64.744141 C 123.06066 64.900585 123.10547 65.107106 123.10547 65.361328 C 123.10547 65.732884 122.93402 66.03097 122.5918 66.255859 C 122.24957 66.480748 121.78393 66.59375 121.19727 66.59375 C 120.75727 66.59375 120.33839 66.519714 119.9375 66.373047 C 119.53661 66.216602 119.17812 66.012035 118.86523 65.757812 L 118.17578 66.564453 C 118.97756 67.258675 119.98482 67.605469 121.19727 67.605469 C 122.1066 67.605469 122.87422 67.414536 123.5 67.033203 C 124.12578 66.65187 124.43945 66.075179 124.43945 65.302734 C 124.43945 64.637845 124.22904 64.133238 123.80859 63.791016 C 123.39793 63.439016 122.77253 63.15067 121.93164 62.925781 C 121.37431 62.769337 120.95348 62.636852 120.66992 62.529297 C 120.39614 62.411964 120.19547 62.281432 120.06836 62.134766 C 119.95103 61.988099 119.89258 61.797167 119.89258 61.5625 C 119.89258 60.887833 120.44979 60.550781 121.56445 60.550781 C 122.02401 60.550781 122.42925 60.613123 122.78125 60.740234 C 123.13325 60.857568 123.47226 61.029017 123.79492 61.253906 L 124.35156 60.404297 C 123.54978 59.837186 122.61071 59.552734 121.53516 59.552734 z M 77.652344 60.564453 C 78.248788 60.564453 78.718325 60.780715 79.060547 61.210938 C 79.402769 61.64116 79.578113 62.26071 79.587891 63.072266 L 75.570312 63.072266 C 75.619201 62.250932 75.827663 61.631382 76.199219 61.210938 C 76.570774 60.780715 77.055899 60.564453 77.652344 60.564453 z M 112.71094 60.564453 C 113.37583 60.564453 113.87069 60.813833 114.19336 61.3125 C 114.5258 61.801389 114.69141 62.555377 114.69141 63.572266 C 114.69141 64.598932 114.5258 65.360708 114.19336 65.859375 C 113.87069 66.348264 113.37193 66.59375 112.69727 66.59375 C 112.0226 66.59375 111.51799 66.348264 111.18555 65.859375 C 110.86288 65.360708 110.70312 64.602826 110.70312 63.585938 C 110.70312 62.569049 110.86873 61.811167 111.20117 61.3125 C 111.53362 60.813833 112.03627 60.564453 112.71094 60.564453 z M 67.683594 61.884766 C 68.025816 61.884766 68.339491 61.952955 68.623047 62.089844 L 68.623047 65.904297 C 68.515491 66.158519 68.412231 66.368934 68.314453 66.535156 C 68.226453 66.691601 68.080333 66.841615 67.875 66.988281 C 67.679444 67.12517 67.42617 67.193359 67.113281 67.193359 C 66.692837 67.193359 66.392797 66.984898 66.216797 66.564453 C 66.040797 66.134231 65.953125 65.53221 65.953125 64.759766 C 65.953125 63.762432 66.081715 63.033774 66.335938 62.574219 C 66.59016 62.114663 67.03826 61.884766 67.683594 61.884766 z "
       style="opacity:1;fill:#cd87de;fill-opacity:1;stroke:none;stroke-width:1.19999993;stroke-linecap:round;stroke-linejoin:round;stroke-miterlimit:4;stroke-dasharray:4.79999966, 4.79999966000000011;stroke-dashoffset:0;stroke-opacity:1;paint-order:markers fill stroke" />
    <path
       id="rect8390"
       transform="matrix(0.26458333,0,0,0.26458333,-85.19644,120.26841)"
       d="M 147.55078 55.005859 L 147.55078 57.207031 C 146.97389 57.265698 146.48098 57.415712 146.07031 57.660156 C 145.66942 57.894823 145.36549 58.19291 145.16016 58.554688 C 144.9646 58.916465 144.86719 59.29833 144.86719 59.699219 C 144.86719 60.364108 145.09319 60.927163 145.54297 61.386719 C 146.00252 61.836497 146.67078 62.206667 147.55078 62.5 L 147.55078 66.548828 C 146.69034 66.480384 145.91297 66.098519 145.21875 65.404297 L 144.48633 66.226562 C 144.85788 66.58834 145.30209 66.900062 145.82031 67.164062 C 146.33853 67.418285 146.91523 67.56051 147.55078 67.589844 L 147.55078 69.6875 L 148.54883 69.6875 L 148.54883 67.546875 C 149.44838 67.429542 150.14197 67.106125 150.63086 66.578125 C 151.11975 66.040347 151.36523 65.405208 151.36523 64.671875 C 151.36523 63.840764 151.11001 63.186142 150.60156 62.707031 C 150.09312 62.22792 149.40927 61.846056 148.54883 61.5625 L 148.54883 58.232422 C 149.26261 58.320422 149.90749 58.62825 150.48438 59.15625 L 151.23242 58.378906 C 150.89998 58.075795 150.50448 57.822521 150.04492 57.617188 C 149.58537 57.402076 149.08661 57.265698 148.54883 57.207031 L 148.54883 55.005859 L 147.55078 55.005859 z M 202.3418 56.458984 L 202.3418 60.476562 C 201.80402 59.860562 201.10848 59.552734 200.25781 59.552734 C 199.64181 59.552734 199.10409 59.728078 198.64453 60.080078 C 198.19475 60.4223 197.84796 60.901578 197.60352 61.517578 C 197.35907 62.1238 197.23633 62.813493 197.23633 63.585938 C 197.23633 64.837493 197.48181 65.821378 197.9707 66.535156 C 198.46937 67.248934 199.20777 67.605469 200.18555 67.605469 C 200.61577 67.605469 201.01712 67.508056 201.38867 67.3125 C 201.76023 67.116944 202.08754 66.822752 202.37109 66.431641 L 202.48828 67.443359 L 203.57227 67.443359 L 203.57227 56.605469 L 202.3418 56.458984 z M 211.13477 56.458984 L 211.13477 60.476562 C 210.59699 59.860562 209.9034 59.552734 209.05273 59.552734 C 208.43673 59.552734 207.89901 59.728078 207.43945 60.080078 C 206.98968 60.4223 206.64288 60.901578 206.39844 61.517578 C 206.15399 62.1238 206.03125 62.813493 206.03125 63.585938 C 206.03125 64.837493 206.27674 65.821378 206.76562 66.535156 C 207.26429 67.248934 208.00074 67.605469 208.97852 67.605469 C 209.40874 67.605469 209.81009 67.508056 210.18164 67.3125 C 210.5532 67.116944 210.88051 66.822752 211.16406 66.431641 L 211.28125 67.443359 L 212.36719 67.443359 L 212.36719 56.605469 L 211.13477 56.458984 z M 172.55664 56.488281 L 171.32422 56.619141 L 171.32422 67.443359 L 172.55664 67.443359 L 172.55664 61.8125 C 172.79131 61.470278 173.09329 61.170238 173.46484 60.916016 C 173.8364 60.661793 174.22216 60.535156 174.62305 60.535156 C 175.09238 60.535156 175.43528 60.642311 175.65039 60.857422 C 175.8655 61.062755 175.97266 61.395913 175.97266 61.855469 L 175.97266 67.443359 L 177.20508 67.443359 L 177.20508 61.841797 C 177.20508 60.316464 176.48227 59.552734 175.03516 59.552734 C 174.56582 59.552734 174.10992 59.659889 173.66992 59.875 C 173.22992 60.090111 172.85975 60.394045 172.55664 60.785156 L 172.55664 56.488281 z M 165.22852 57.822266 L 163.99609 57.96875 L 163.99609 59.714844 L 162.2207 59.714844 L 162.2207 60.681641 L 163.99609 60.681641 L 163.99609 65.287109 C 163.99609 65.981332 164.22599 66.544387 164.68555 66.974609 C 165.1451 67.395054 165.78024 67.605469 166.5918 67.605469 C 166.96335 67.605469 167.33548 67.556762 167.70703 67.458984 C 168.08836 67.361207 168.40983 67.222875 168.67383 67.046875 L 168.19141 66.210938 C 167.73185 66.455382 167.23698 66.578125 166.70898 66.578125 C 166.19076 66.578125 165.81474 66.47097 165.58008 66.255859 C 165.34541 66.040748 165.22852 65.713438 165.22852 65.273438 L 165.22852 60.681641 L 167.75 60.681641 L 167.91211 59.714844 L 165.22852 59.714844 L 165.22852 57.822266 z M 147.55078 58.261719 L 147.55078 61.240234 C 147.03256 61.034901 146.67213 60.814745 146.4668 60.580078 C 146.27124 60.345411 146.17383 60.047325 146.17383 59.685547 C 146.17383 59.284658 146.29462 58.967089 146.53906 58.732422 C 146.79328 58.487977 147.13034 58.330163 147.55078 58.261719 z M 156.78516 59.552734 C 156.11049 59.552734 155.52016 59.728078 155.01172 60.080078 C 154.50327 60.4223 154.11167 60.901578 153.83789 61.517578 C 153.56411 62.1238 153.42773 62.813493 153.42773 63.585938 C 153.42773 64.80816 153.73556 65.786198 154.35156 66.519531 C 154.97734 67.243087 155.84627 67.605469 156.96094 67.605469 C 157.43027 67.605469 157.89591 67.527538 158.35547 67.371094 C 158.8248 67.214649 159.23978 66.994493 159.60156 66.710938 L 159.0293 65.888672 C 158.66752 66.123339 158.32657 66.298682 158.00391 66.416016 C 157.69102 66.523571 157.34227 66.578125 156.96094 66.578125 C 156.32538 66.578125 155.7974 66.363816 155.37695 65.933594 C 154.96629 65.503372 154.74808 64.862385 154.71875 64.011719 L 159.91016 64.011719 C 159.92971 63.796608 159.93945 63.576451 159.93945 63.351562 C 159.93945 62.178229 159.655 61.254745 159.08789 60.580078 C 158.53056 59.895634 157.76293 59.552734 156.78516 59.552734 z M 191.56641 59.552734 C 190.78418 59.552734 189.93863 59.714443 189.0293 60.037109 L 189.36719 60.974609 C 190.12008 60.710609 190.79029 60.580078 191.37695 60.580078 C 191.9734 60.580078 192.42735 60.700868 192.74023 60.945312 C 193.05312 61.179979 193.20898 61.571585 193.20898 62.119141 L 193.20898 62.75 L 192.06641 62.75 C 190.90285 62.75 190.00664 62.966262 189.38086 63.396484 C 188.76486 63.826707 188.45703 64.436516 188.45703 65.228516 C 188.45703 65.952071 188.67719 66.528762 189.11719 66.958984 C 189.56697 67.389207 190.17873 67.605469 190.95117 67.605469 C 191.45962 67.605469 191.91941 67.51195 192.33008 67.326172 C 192.75052 67.140394 193.09732 66.871531 193.37109 66.519531 C 193.55687 67.155087 194.02641 67.521363 194.7793 67.619141 L 195.08594 66.740234 C 194.86105 66.67179 194.70129 66.56853 194.60352 66.431641 C 194.50574 66.284974 194.45703 66.060924 194.45703 65.757812 L 194.45703 62.046875 C 194.45703 61.264653 194.20765 60.652891 193.70898 60.212891 C 193.2201 59.772891 192.50507 59.552734 191.56641 59.552734 z M 220.51562 59.552734 C 219.85074 59.552734 219.29938 59.718337 218.85938 60.050781 C 218.42915 60.383226 218.05703 60.881986 217.74414 61.546875 L 217.50977 59.714844 L 215.36914 59.714844 L 215.36914 60.667969 L 216.58594 60.667969 L 216.58594 66.490234 L 215.36914 66.490234 L 215.36914 67.443359 L 219.38672 67.443359 L 219.38672 66.490234 L 217.81836 66.490234 L 217.81836 63.234375 C 218.31703 61.533042 219.16258 60.681641 220.35547 60.681641 L 220.42773 60.681641 L 220.42773 62.339844 L 221.42578 62.339844 L 221.60156 59.714844 C 221.1909 59.607288 220.82851 59.552734 220.51562 59.552734 z M 227.14062 59.552734 C 226.46596 59.552734 225.87368 59.728078 225.36523 60.080078 C 224.85679 60.4223 224.46518 60.901578 224.19141 61.517578 C 223.91763 62.1238 223.78125 62.813493 223.78125 63.585938 C 223.78125 64.80816 224.08908 65.786198 224.70508 66.519531 C 225.33086 67.243087 226.20174 67.605469 227.31641 67.605469 C 227.78574 67.605469 228.24943 67.527538 228.70898 67.371094 C 229.17832 67.214649 229.5933 66.994493 229.95508 66.710938 L 229.38477 65.888672 C 229.02299 66.123339 228.68009 66.298682 228.35742 66.416016 C 228.04453 66.523571 227.69774 66.578125 227.31641 66.578125 C 226.68085 66.578125 226.15287 66.363816 225.73242 65.933594 C 225.32176 65.503372 225.1016 64.862385 225.07227 64.011719 L 230.26367 64.011719 C 230.28323 63.796608 230.29297 63.576451 230.29297 63.351562 C 230.29297 62.178229 230.01047 61.254745 229.44336 60.580078 C 228.88603 59.895634 228.1184 59.552734 227.14062 59.552734 z M 235.86133 59.552734 C 234.98133 59.552734 234.27215 59.743667 233.73438 60.125 C 233.1966 60.506333 232.92773 61.018729 232.92773 61.664062 C 232.92773 62.28984 233.14204 62.765224 233.57227 63.087891 C 234.00249 63.40078 234.6688 63.669642 235.56836 63.894531 C 236.10614 64.03142 236.50553 64.167799 236.76953 64.304688 C 237.03353 64.431799 237.21083 64.577918 237.29883 64.744141 C 237.38683 64.900585 237.42969 65.107106 237.42969 65.361328 C 237.42969 65.732884 237.25824 66.03097 236.91602 66.255859 C 236.57379 66.480748 236.1101 66.59375 235.52344 66.59375 C 235.08344 66.59375 234.66261 66.519714 234.26172 66.373047 C 233.86083 66.216602 233.5043 66.012035 233.19141 65.757812 L 232.50195 66.564453 C 233.30373 67.258675 234.31099 67.605469 235.52344 67.605469 C 236.43277 67.605469 237.20039 67.414536 237.82617 67.033203 C 238.45195 66.65187 238.76562 66.075179 238.76562 65.302734 C 238.76563 64.637845 238.55521 64.133238 238.13477 63.791016 C 237.7241 63.439016 237.0987 63.15067 236.25781 62.925781 C 235.70048 62.769337 235.27965 62.636852 234.99609 62.529297 C 234.72232 62.411964 234.52164 62.281432 234.39453 62.134766 C 234.2772 61.988099 234.21875 61.797167 234.21875 61.5625 C 234.21875 60.887833 234.77596 60.550781 235.89062 60.550781 C 236.35018 60.550781 236.75542 60.613123 237.10742 60.740234 C 237.45942 60.857568 237.79647 61.029017 238.11914 61.253906 L 238.67773 60.404297 C 237.87596 59.837186 236.93688 59.552734 235.86133 59.552734 z M 244.6543 59.552734 C 243.7743 59.552734 243.06707 59.743667 242.5293 60.125 C 241.99152 60.506333 241.72266 61.018729 241.72266 61.664062 C 241.72266 62.28984 241.93697 62.765224 242.36719 63.087891 C 242.79741 63.40078 243.46177 63.669642 244.36133 63.894531 C 244.89911 64.03142 245.30045 64.167799 245.56445 64.304688 C 245.82845 64.431799 246.0038 64.577918 246.0918 64.744141 C 246.1798 64.900585 246.22461 65.107106 246.22461 65.361328 C 246.22461 65.732884 246.05316 66.03097 245.71094 66.255859 C 245.36872 66.480748 244.90503 66.59375 244.31836 66.59375 C 243.87836 66.59375 243.45753 66.519714 243.05664 66.373047 C 242.65575 66.216602 242.29922 66.012035 241.98633 65.757812 L 241.29688 66.564453 C 242.09865 67.258675 243.10591 67.605469 244.31836 67.605469 C 245.22769 67.605469 245.99532 67.414536 246.62109 67.033203 C 247.24687 66.65187 247.55859 66.075179 247.55859 65.302734 C 247.55859 64.637845 247.34818 64.133238 246.92773 63.791016 C 246.51707 63.439016 245.89167 63.15067 245.05078 62.925781 C 244.49345 62.769337 244.07262 62.636852 243.78906 62.529297 C 243.51528 62.411964 243.31656 62.281432 243.18945 62.134766 C 243.07212 61.988099 243.01172 61.797167 243.01172 61.5625 C 243.01172 60.887833 243.56893 60.550781 244.68359 60.550781 C 245.14315 60.550781 245.55034 60.613123 245.90234 60.740234 C 246.25434 60.857568 246.5914 61.029017 246.91406 61.253906 L 247.4707 60.404297 C 246.66893 59.837186 245.72985 59.552734 244.6543 59.552734 z M 200.58203 60.550781 C 200.93403 60.550781 201.26134 60.638453 201.56445 60.814453 C 201.86756 60.980675 202.12669 61.224208 202.3418 61.546875 L 202.3418 65.390625 C 201.80402 66.211958 201.16693 66.623047 200.43359 66.623047 C 199.82737 66.623047 199.36368 66.367819 199.04102 65.859375 C 198.72813 65.341153 198.57227 64.583271 198.57227 63.585938 C 198.57227 62.578826 198.74372 61.820944 199.08594 61.3125 C 199.43794 60.804056 199.9367 60.550781 200.58203 60.550781 z M 209.375 60.550781 C 209.727 60.550781 210.05431 60.638453 210.35742 60.814453 C 210.66053 60.980675 210.91965 61.224208 211.13477 61.546875 L 211.13477 65.390625 C 210.59699 66.211958 209.96185 66.623047 209.22852 66.623047 C 208.62229 66.623047 208.1586 66.367819 207.83594 65.859375 C 207.52305 65.341153 207.36523 64.583271 207.36523 63.585938 C 207.36523 62.578826 207.53668 61.820944 207.87891 61.3125 C 208.23091 60.804056 208.72967 60.550781 209.375 60.550781 z M 156.80078 60.564453 C 157.39723 60.564453 157.86676 60.780715 158.20898 61.210938 C 158.55121 61.64116 158.72655 62.26071 158.73633 63.072266 L 154.71875 63.072266 C 154.76764 62.250932 154.9761 61.631382 155.34766 61.210938 C 155.71921 60.780715 156.20434 60.564453 156.80078 60.564453 z M 227.1543 60.564453 C 227.75074 60.564453 228.22028 60.780715 228.5625 61.210938 C 228.90472 61.64116 229.08007 62.26071 229.08984 63.072266 L 225.07227 63.072266 C 225.12115 62.250932 225.33157 61.631382 225.70312 61.210938 C 226.07468 60.780715 226.55785 60.564453 227.1543 60.564453 z M 148.54883 62.837891 C 149.08661 63.06278 149.46847 63.321901 149.69336 63.615234 C 149.91825 63.908568 150.0293 64.265102 150.0293 64.685547 C 150.0293 65.692658 149.53638 66.294679 148.54883 66.490234 L 148.54883 62.837891 z M 192.0957 63.601562 L 193.20898 63.601562 L 193.20898 65.580078 C 192.9841 65.9223 192.69575 66.191163 192.34375 66.386719 C 192.00153 66.582274 191.6411 66.681641 191.25977 66.681641 C 190.27221 66.681641 189.77734 66.192622 189.77734 65.214844 C 189.77734 64.686844 189.95853 64.285497 190.32031 64.011719 C 190.68209 63.737941 191.27437 63.601562 192.0957 63.601562 z M 179.38477 69.027344 L 179.38477 70.113281 L 186.71875 70.113281 L 186.71875 69.027344 L 179.38477 69.027344 z "
       style="opacity:1;fill:#55ddff;fill-opacity:1;stroke:none;stroke-width:1.19999993;stroke-linecap:round;stroke-linejoin:round;stroke-miterlimit:4;stroke-dasharray:4.7999997, 4.7999997;stroke-dashoffset:0;stroke-opacity:1;paint-order:markers fill stroke" />
  </g>
</svg>
