<svg width="46" height="36" viewBox="0 0 46 36" fill="none" xmlns="http://www.w3.org/2000/svg">
<path d="M27 12.5C27 12.5 28.2421 11 30 11C32.5361 11 36.1456 11 38.6471 11C42.8824 11 45 14.25 45 17.5C45 20.75 42.8824 24 38.6471 24C36.1456 24 32.5361 24 30 24C28.2421 24 27 22.5 27 22.5" stroke="#C0C0C0" stroke-width="2"/>
<path d="M19 12.5C19 12.5 17.7579 11 16 11C13.4639 11 9.85439 11 7.35294 11C3.11765 11 1 14.25 1 17.5C1 20.75 3.11765 24 7.35294 24C9.85439 24 13.4639 24 16 24C17.7579 24 19 22.5 19 22.5" stroke="#C0C0C0" stroke-width="2"/>
<path d="M14.7071 1L18.7071 5" stroke="#C0C0C0" stroke-width="2"/>
<path d="M31 1L27 5" stroke="#C0C0C0" stroke-width="2"/>
<path d="M23 1V5" stroke="#C0C0C0" stroke-width="2"/>
<path d="M14.7071 34.7071L18.7071 30.7071" stroke="#C0C0C0" stroke-width="2"/>
<path d="M31.2929 34.7071L27.2929 30.7071" stroke="#C0C0C0" stroke-width="2"/>
<path d="M23 36V32" stroke="#C0C0C0" stroke-width="2"/>
</svg>
