<svg width="46" height="36" viewBox="0 0 46 36" fill="none" xmlns="http://www.w3.org/2000/svg">
<path d="M27 11C27 11 34.4118 11 38.6471 11C42.8824 11 45 14.25 45 17.5C45 20.75 42.8824 24 38.6471 24C34.4118 24 27 24 27 24" stroke="#666578" stroke-width="2"/>
<path d="M19 11C19 11 11.5882 11 7.35294 11C3.11765 11 1 14.25 1 17.5C1 20.75 3.11765 24 7.35294 24C11.5882 24 19 24 19 24" stroke="#666578" stroke-width="2"/>
<line x1="14.7071" y1="1.29289" x2="18.7071" y2="5.29289" stroke="#666578" stroke-width="2"/>
<line y1="-1" x2="5.65685" y2="-1" transform="matrix(-0.707107 0.707107 0.707107 0.707107 32 2)" stroke="#666578" stroke-width="2"/>
<line x1="23" x2="23" y2="4" stroke="#666578" stroke-width="2"/>
<line y1="-1" x2="5.65685" y2="-1" transform="matrix(0.707107 -0.707107 -0.707107 -0.707107 14 34)" stroke="#666578" stroke-width="2"/>
<line x1="31.2929" y1="34.7071" x2="27.2929" y2="30.7071" stroke="#666578" stroke-width="2"/>
<line y1="-1" x2="4" y2="-1" transform="matrix(0 -1 -1 0 22 36)" stroke="#666578" stroke-width="2"/>
</svg>
