<svg width="67" height="63" viewBox="0 0 67 63" fill="none" xmlns="http://www.w3.org/2000/svg">
<rect x="2.5" y="2.5" width="62" height="58" fill="#2E6EF2" stroke="#2E6EF2" stroke-width="5" stroke-linejoin="round"/>
<path d="M52.5 29.3077H35.9135V13.4423C35.9135 12.6447 35.2673 12 34.4712 12C33.675 12 33.0288 12.6447 33.0288 13.4423V29.3077H16.4423C15.6462 29.3077 15 29.9524 15 30.75C15 31.5476 15.6462 32.1923 16.4423 32.1923H33.0288V49.5C33.0288 50.2976 33.675 50.9423 34.4712 50.9423C35.2673 50.9423 35.9135 50.2976 35.9135 49.5V32.1923H52.5C53.2961 32.1923 53.9423 31.5476 53.9423 30.75C53.9423 29.9524 53.2961 29.3077 52.5 29.3077Z" fill="white"/>
</svg>
