<svg width="95" height="32" viewBox="0 0 95 32" fill="none" xmlns="http://www.w3.org/2000/svg">
<path d="M0.94 21.1C1.39333 21.38 2.03333 21.6467 2.86 21.9C3.7 22.14 4.4 22.26 4.96 22.26C6.02667 22.26 6.94 22.1 7.7 21.78C8.47333 21.46 9.05333 21.02 9.44 20.46C9.84 19.9 10.04 19.2533 10.04 18.52C10.04 17.8667 9.88 17.3 9.56 16.82C9.25333 16.3267 8.86667 15.9133 8.4 15.58C7.93333 15.2333 7.30667 14.8333 6.52 14.38L5.94 14.04L5.3 13.68C4.62 13.28 4.12667 12.9533 3.82 12.7C3.52667 12.4333 3.38 12.1067 3.38 11.72C3.38 11.2667 3.56667 10.9267 3.94 10.7C4.32667 10.46 4.82 10.34 5.42 10.34C5.94 10.34 6.42 10.4133 6.86 10.56C7.31333 10.7067 7.81333 10.9133 8.36 11.18L9.22 9.1C7.80667 8.42 6.52667 8.08 5.38 8.08C4.40667 8.08 3.56667 8.24 2.86 8.56C2.16667 8.86667 1.63333 9.3 1.26 9.86C0.886667 10.4067 0.7 11.0267 0.7 11.72C0.7 12.3733 0.886667 12.9667 1.26 13.5C1.64667 14.02 2.1 14.4733 2.62 14.86C3.15333 15.2467 3.86667 15.7067 4.76 16.24L5.36 16.6C6.04 16.9733 6.54 17.3 6.86 17.58C7.19333 17.8467 7.36 18.1467 7.36 18.48C7.36 18.96 7.15333 19.3267 6.74 19.58C6.32667 19.8333 5.72 19.96 4.92 19.96C4.4 19.96 3.82667 19.8667 3.2 19.68C2.57333 19.48 2.01333 19.2533 1.52 19L0.94 21.1ZM17.3069 11.98C18.5335 11.98 19.3935 12.3267 19.8869 13.02C20.3802 13.7133 20.6269 14.68 20.6269 15.92V22H18.0269V16.04C18.0269 15.44 17.9002 14.9733 17.6469 14.64C17.4069 14.3067 17.0669 14.14 16.6269 14.14C16.1735 14.14 15.7469 14.2467 15.3469 14.46C14.9469 14.66 14.5069 14.9333 14.0269 15.28V22H11.4469V8.1L14.0269 7.88V13.04C14.5735 12.7067 15.1402 12.4467 15.7269 12.26C16.3135 12.0733 16.8402 11.98 17.3069 11.98ZM31.0508 17.12C31.0508 16.1733 30.8908 15.32 30.5708 14.56C30.2508 13.7867 29.7574 13.1733 29.0908 12.72C28.4241 12.2667 27.6041 12.04 26.6308 12.04C25.6308 12.04 24.7641 12.2533 24.0308 12.68C23.2974 13.0933 22.7308 13.6867 22.3308 14.46C21.9441 15.2333 21.7508 16.1333 21.7508 17.16C21.7508 18.7467 22.2241 19.9933 23.1708 20.9C24.1308 21.7933 25.5308 22.24 27.3708 22.24C28.1574 22.24 28.8374 22.14 29.4108 21.94C29.9841 21.7267 30.5174 21.4267 31.0108 21.04L30.2508 19.16C29.7574 19.44 29.2974 19.6533 28.8708 19.8C28.4441 19.9467 27.9641 20.02 27.4308 20.02C26.5108 20.02 25.8241 19.84 25.3708 19.48C24.9308 19.12 24.6441 18.6 24.5108 17.92H31.0508V17.12ZM24.5308 16.18C24.6374 15.5533 24.8708 15.08 25.2308 14.76C25.5908 14.4267 26.0374 14.26 26.5708 14.26C27.1041 14.26 27.5374 14.42 27.8708 14.74C28.2174 15.06 28.4574 15.54 28.5908 16.18H24.5308ZM33.5237 10.92C33.9371 10.92 34.2837 10.78 34.5637 10.5C34.8571 10.22 35.0037 9.87333 35.0037 9.46C35.0037 9.04667 34.8571 8.7 34.5637 8.42C34.2837 8.14 33.9371 8 33.5237 8C33.1237 8 32.7837 8.14 32.5037 8.42C32.2237 8.7 32.0837 9.04667 32.0837 9.46C32.0837 9.87333 32.2237 10.22 32.5037 10.5C32.7837 10.78 33.1237 10.92 33.5237 10.92ZM34.8437 22V12.3H32.2437V22H34.8437ZM39.4284 22V18.82L40.4684 17.9L42.9084 22H45.8884L42.3284 16.24L45.0484 13.86L43.5884 12.02L39.4284 15.84V7.88L36.8484 8.1V22H39.4284ZM47.5205 15.08C47.8938 14.9067 48.3471 14.76 48.8805 14.64C49.4138 14.5067 49.9005 14.44 50.3405 14.44C50.8205 14.44 51.1938 14.58 51.4605 14.86C51.7405 15.1267 51.8871 15.5067 51.9005 16H50.0005C48.8805 16 47.9871 16.2733 47.3205 16.82C46.6538 17.3533 46.3205 18.1133 46.3205 19.1C46.3205 20.06 46.6138 20.8267 47.2005 21.4C47.7871 21.96 48.6605 22.24 49.8205 22.24C50.7138 22.24 51.5671 21.8133 52.3805 20.96L52.8205 22H54.5205V15.62C54.5205 14.94 54.3271 14.3267 53.9405 13.78C53.5671 13.2333 53.0605 12.8067 52.4205 12.5C51.7805 12.1933 51.0738 12.04 50.3005 12.04C49.8471 12.04 49.2405 12.1333 48.4805 12.32C47.7205 12.4933 47.1671 12.6933 46.8205 12.92L47.5205 15.08ZM48.5405 19.1C48.5405 18.7267 48.6671 18.4067 48.9205 18.14C49.1871 17.8733 49.5338 17.74 49.9605 17.74H51.9205V19.22C51.2671 19.86 50.5538 20.18 49.7805 20.18C49.4205 20.18 49.1205 20.0733 48.8805 19.86C48.6538 19.6467 48.5405 19.3933 48.5405 19.1ZM62.2991 11.98C63.5257 11.98 64.3857 12.3267 64.8791 13.02C65.3724 13.7133 65.6191 14.68 65.6191 15.92V22H63.0191V16.04C63.0191 15.44 62.8924 14.9733 62.6391 14.64C62.3991 14.3067 62.0591 14.14 61.6191 14.14C61.1657 14.14 60.7391 14.2467 60.3391 14.46C59.9391 14.66 59.4991 14.9333 59.0191 15.28V22H56.4391V8.1L59.0191 7.88V13.04C59.5657 12.7067 60.1324 12.4467 60.7191 12.26C61.3057 12.0733 61.8324 11.98 62.2991 11.98Z" fill="#444258"/>
<path d="M76.214 21.7878L78.888 14.9978H76.97L75.486 19.1138L73.918 14.7458L72.14 15.2778L74.646 21.7878H76.214ZM82.9893 21.7878V13.8638H81.7713L78.8873 15.1378L79.5733 16.4958L81.1693 15.8798V21.7878H82.9893ZM85.0776 21.7878C85.367 21.7878 85.605 21.6898 85.7916 21.4938C85.9876 21.2978 86.0856 21.0552 86.0856 20.7658C86.0856 20.4765 85.9876 20.2338 85.7916 20.0378C85.605 19.8418 85.367 19.7438 85.0776 19.7438C84.7883 19.7438 84.541 19.8418 84.3356 20.0378C84.1396 20.2338 84.0416 20.4765 84.0416 20.7658C84.0416 21.0552 84.1396 21.2978 84.3356 21.4938C84.541 21.6898 84.7883 21.7878 85.0776 21.7878ZM86.5764 17.7978C86.5764 18.5912 86.7444 19.3052 87.0804 19.9398C87.4164 20.5745 87.8784 21.0738 88.4664 21.4378C89.0637 21.7925 89.7311 21.9698 90.4684 21.9698C91.2057 21.9698 91.8684 21.7925 92.4564 21.4378C93.0537 21.0738 93.5204 20.5745 93.8564 19.9398C94.1924 19.2958 94.3604 18.5725 94.3604 17.7698C94.3604 16.9952 94.1924 16.2952 93.8564 15.6698C93.5297 15.0445 93.0677 14.5592 92.4704 14.2138C91.8824 13.8592 91.2197 13.6818 90.4824 13.6818C89.7357 13.6818 89.0637 13.8592 88.4664 14.2138C87.8784 14.5685 87.4164 15.0585 87.0804 15.6838C86.7444 16.3092 86.5764 17.0138 86.5764 17.7978ZM88.2424 17.7558C88.2424 17.2705 88.3357 16.8365 88.5224 16.4538C88.7184 16.0712 88.9844 15.7725 89.3204 15.5578C89.6657 15.3338 90.0484 15.2218 90.4684 15.2218C90.8977 15.2218 91.2804 15.3338 91.6164 15.5578C91.9617 15.7818 92.2324 16.0945 92.4284 16.4958C92.6244 16.8878 92.7224 17.3312 92.7224 17.8258C92.7224 18.3205 92.6244 18.7638 92.4284 19.1558C92.2417 19.5478 91.9757 19.8558 91.6304 20.0798C91.2944 20.3038 90.9117 20.4158 90.4824 20.4158C90.0531 20.4158 89.6657 20.3038 89.3204 20.0798C88.9844 19.8465 88.7184 19.5292 88.5224 19.1278C88.3357 18.7172 88.2424 18.2598 88.2424 17.7558Z" fill="#8280A4"/>
</svg>
