<svg width="31" height="31" viewBox="0 0 31 31" fill="none" xmlns="http://www.w3.org/2000/svg">
<path d="M15.4277 2.78632e-05C13.4017 3.4002e-05 11.3955 0.396512 9.52374 1.16684C7.65197 1.93716 5.95123 3.06624 4.51863 4.4896C3.08604 5.91297 1.94965 7.60276 1.17434 9.46248C0.39903 11.3222 -1.01689e-05 13.3154 1.94357e-10 15.3284C0.00348063 19.1878 1.47218 22.9039 4.11276 25.7344C6.75335 28.565 10.3715 30.3017 14.2445 30.5977V24.812C10.3665 24.24 7.37201 20.9023 7.37201 16.8952C7.37201 15.1043 7.97018 13.4471 8.97794 12.1107C8.40007 12.3805 7.74187 12.46 7.18115 12.1869C6.04378 11.6327 5.71858 9.08934 5.7919 7.32164C5.9031 7.3171 6.01735 7.31384 6.13397 7.31287C7.88325 7.29242 10.1658 7.64263 10.6888 8.70196C10.9638 9.25914 10.8835 9.9131 10.6119 10.4873C11.6612 9.70621 12.907 9.17331 14.2598 8.97645C13.6644 8.7601 13.1481 8.3556 12.9474 7.77253C12.5375 6.58158 14.1178 4.55473 15.4277 3.35629C16.7376 4.55473 18.3177 6.58158 17.908 7.77253C17.7073 8.35566 17.1909 8.76014 16.5954 8.97645C17.9482 9.17327 19.194 9.70615 20.2432 10.4872C19.9717 9.913 19.8917 9.25905 20.1667 8.70196C20.6895 7.64255 22.9721 7.29248 24.7214 7.31287C24.838 7.31412 24.9523 7.31725 25.0635 7.32164C25.1368 9.08934 24.8117 11.6327 23.6743 12.187C23.1136 12.4601 22.4554 12.3805 21.8774 12.1107C22.8852 13.4471 23.4834 15.1043 23.4834 16.8952C23.4834 20.9034 20.4873 24.2417 16.6078 24.8123V30.6075C20.483 30.3121 24.1033 28.5743 26.7448 25.7416C29.3863 22.9089 30.8543 19.1899 30.8554 15.3283C30.8554 13.3154 30.4563 11.3222 29.681 9.46245C28.9057 7.60273 27.7693 5.91295 26.3367 4.48959C24.9041 3.06622 23.2034 1.93714 21.3316 1.16682C19.4599 0.396493 17.4537 6.20279e-06 15.4277 0L15.4277 2.78632e-05Z" fill="#1A1A1A"/>
<path d="M15.4277 11.2421C12.2712 11.2421 9.73773 13.759 9.73773 16.8952C9.73773 20.0313 12.2712 22.5484 15.4277 22.5484C18.5842 22.5484 21.1176 20.0313 21.1176 16.8952C21.1176 13.759 18.5842 11.2421 15.4277 11.2421Z" fill="#1A6CFB"/>
<path d="M18.883 16.1766L16.151 13.4622C15.7515 13.0653 15.1038 13.0652 14.7043 13.4622L11.9722 16.1766C11.5727 16.5735 11.5727 17.2171 11.9722 17.614L14.7043 20.3284C15.1038 20.7253 15.7515 20.7253 16.151 20.3284L18.883 17.614C19.2825 17.2171 19.2825 16.5735 18.883 16.1766Z" fill="white"/>
</svg>
