<?xml version="1.0" encoding="UTF-8" standalone="no"?>
<svg
   xmlns:dc="http://purl.org/dc/elements/1.1/"
   xmlns:cc="http://creativecommons.org/ns#"
   xmlns:rdf="http://www.w3.org/1999/02/22-rdf-syntax-ns#"
   xmlns:svg="http://www.w3.org/2000/svg"
   xmlns="http://www.w3.org/2000/svg"
   width="34.089909mm"
   height="7.9676576mm"
   viewBox="0 0 34.089909 7.9676576"
   version="1.1"
   id="svg9684">
  <defs
     id="defs9678" />
  <metadata
     id="metadata9681">
    <rdf:RDF>
      <cc:Work
         rdf:about="">
        <dc:format>image/svg+xml</dc:format>
        <dc:type
           rdf:resource="http://purl.org/dc/dcmitype/StillImage" />
        <dc:title></dc:title>
      </cc:Work>
    </rdf:RDF>
  </metadata>
  <g
     id="layer1"
     transform="translate(-39.158168,-85.129267)">
    <g
       id="g4349"
       transform="matrix(1.2676007,0,0,1.2676007,32.155342,63.209923)"
       style="display:inline;stroke-width:0.78889197">
      <path
         style="font-style:normal;font-variant:normal;font-weight:600;font-stretch:normal;font-size:5.67593861px;line-height:1;font-family:'Titillium Web';-inkscape-font-specification:'Titillium Web Semi-Bold';text-align:end;letter-spacing:-0.17646012px;word-spacing:0px;text-anchor:end;fill:#1a1a1a;fill-opacity:1;stroke:none;stroke-width:0.60310423"
         d="M 60.150391,6.9746094 56.642578,7.2734375 V 26.173828 h 3.507813 v -9.136719 c 0.652632,-0.471346 1.251061,-0.843304 1.794921,-1.115234 0.543861,-0.290059 1.123859,-0.435547 1.740235,-0.435547 0.598247,0 1.060402,0.22647 1.386719,0.679688 0.344445,0.453217 0.517578,1.088505 0.517578,1.904296 v 8.103516 H 69.125 V 17.90625 c 0,-1.685968 -0.337051,-3.000668 -1.007812,-3.943359 -0.670762,-0.942692 -1.839974,-1.414063 -3.507813,-1.414063 -0.634504,0 -1.350775,0.127058 -2.148437,0.38086 -0.797663,0.253801 -1.567271,0.607329 -2.310547,1.060546 z m 33.632812,0 -3.507812,0.2988281 V 26.173828 h 3.507812 v -4.324219 l 1.414063,-1.251953 3.318359,5.576172 h 4.050785 l -4.839848,-7.832031 3.697268,-3.236328 -1.984377,-2.501953 -5.65625,5.193359 z m 26.085937,0 -3.50781,0.2988281 V 26.173828 h 3.50781 v -9.136719 c 0.65263,-0.471346 1.25106,-0.843304 1.79492,-1.115234 0.54386,-0.290059 1.12386,-0.435547 1.74024,-0.435547 0.59824,0 1.0604,0.22647 1.38672,0.679688 0.34444,0.453217 0.51757,1.088505 0.51757,1.904296 v 8.103516 h 3.53516 V 17.90625 c 0,-1.685968 -0.3351,-3.000668 -1.00586,-3.943359 -0.67076,-0.942692 -1.83997,-1.414063 -3.50781,-1.414063 -0.63451,0 -1.35078,0.127058 -2.14844,0.38086 -0.79766,0.253801 -1.56922,0.607329 -2.3125,1.060546 z M 86.056641,7.1386719 c -0.543861,0 -1.006017,0.18961 -1.386719,0.5703125 -0.380703,0.3807025 -0.572266,0.8520731 -0.572266,1.4140625 0,0.5619894 0.191563,1.0333601 0.572266,1.4140621 0.380702,0.380703 0.842858,0.570313 1.386719,0.570313 0.561989,0 1.03336,-0.18961 1.414062,-0.570313 0.398831,-0.380702 0.597656,-0.8520727 0.597656,-1.4140621 0,-0.5619894 -0.198825,-1.03336 -0.597656,-1.4140625 C 87.090001,7.3282819 86.61863,7.1386719 86.056641,7.1386719 Z M 48.695312,7.2460938 c -1.323394,0 -2.46496,0.2192083 -3.425781,0.6542968 -0.942692,0.4169599 -1.668178,1.0042201 -2.175781,1.765625 -0.507603,0.7432764 -0.761719,1.5866054 -0.761719,2.5292964 0,0.888306 0.254116,1.694775 0.761719,2.419922 0.525732,0.707019 1.14259,1.323878 1.849609,1.84961 0.725148,0.525732 1.693581,1.151805 2.908203,1.876953 l 0.816407,0.488281 c 0.924563,0.507603 1.603974,0.953282 2.039062,1.333984 0.453217,0.362574 0.679688,0.76944 0.679688,1.222657 0,0.652633 -0.279808,1.151648 -0.841797,1.496093 -0.56199,0.344446 -1.386888,0.517579 -2.47461,0.517579 -0.707018,0 -1.487795,-0.127058 -2.339843,-0.38086 -0.852049,-0.27193 -1.612442,-0.581336 -2.283203,-0.925781 l -0.789063,2.855469 c 0.616376,0.380702 1.487349,0.743445 2.611328,1.08789 1.142108,0.326317 2.094064,0.490235 2.855469,0.490235 1.450295,0 2.691274,-0.217255 3.724609,-0.652344 1.051464,-0.435089 1.839503,-1.033517 2.365235,-1.794922 0.54386,-0.761405 0.816406,-1.641594 0.816406,-2.638672 0,-0.888306 -0.217255,-1.657914 -0.652344,-2.310547 -0.41696,-0.670761 -0.943621,-1.234282 -1.578125,-1.6875 -0.634504,-0.471346 -1.485095,-1.014484 -2.554687,-1.630859 l -0.789063,-0.462891 -0.871093,-0.488281 c -0.924564,-0.543861 -1.594759,-0.987586 -2.011719,-1.332031 -0.398831,-0.362574 -0.597656,-0.808252 -0.597657,-1.333985 0,-0.616375 0.254116,-1.078531 0.761719,-1.386718 0.525732,-0.326317 1.195928,-0.488282 2.011719,-0.488282 0.707019,0 1.358784,0.09941 1.957031,0.298829 0.616376,0.199415 1.295786,0.479223 2.039063,0.841797 L 53.916016,8.6328125 C 51.994375,7.7082493 50.25438,7.2460938 48.695312,7.2460938 Z m 28.263672,5.3847652 c -1.359651,0 -2.538078,0.290976 -3.535156,0.871094 -0.997078,0.56199 -1.766686,1.368458 -2.310547,2.419922 -0.525732,1.051464 -0.789062,2.274013 -0.789062,3.669922 0,2.157314 0.64255,3.853186 1.929687,5.085937 1.305266,1.214623 3.209179,1.822266 5.710938,1.822266 1.069592,0 1.993904,-0.136273 2.773437,-0.408203 0.779534,-0.290059 1.50502,-0.698877 2.175781,-1.224609 L 81.880859,22.3125 c -0.670761,0.380702 -1.296835,0.669725 -1.876953,0.869141 -0.580118,0.199415 -1.231883,0.298828 -1.957031,0.298828 -1.25088,0 -2.184406,-0.244901 -2.800781,-0.734375 C 74.647847,22.256619 74.257459,21.549563 74.076172,20.625 h 8.892578 v -1.087891 c 0,-1.287137 -0.217255,-2.447133 -0.652344,-3.480468 -0.435088,-1.051464 -1.105284,-1.885578 -2.011718,-2.501953 -0.906435,-0.616376 -2.022309,-0.923829 -3.345704,-0.923829 z m 31.332036,0 c -0.61638,0 -1.44128,0.127058 -2.47461,0.38086 -1.03334,0.235673 -1.78647,0.508218 -2.25782,0.816406 l 0.95118,2.935547 c 0.5076,-0.235673 1.12446,-0.434498 1.84961,-0.597656 0.72514,-0.181287 1.38612,-0.271485 1.98437,-0.271485 0.65263,0 1.16086,0.18961 1.52344,0.570313 0.3807,0.362574 0.57953,0.880019 0.59765,1.550781 h -2.58203 c -1.52281,0 -2.73809,0.371958 -3.64453,1.115234 -0.90643,0.725148 -1.35937,1.758087 -1.35937,3.09961 0,1.305265 0.3996,2.347419 1.19726,3.126953 0.79766,0.761405 1.98335,1.142578 3.56055,1.142578 1.21462,0 2.37657,-0.579998 3.48242,-1.740234 l 0.59766,1.414062 h 2.31054 v -8.675781 c 0,-0.924563 -0.26137,-1.758677 -0.78711,-2.501953 -0.5076,-0.743277 -1.19818,-1.323275 -2.06835,-1.740235 -0.87018,-0.416959 -1.8294,-0.625 -2.88086,-0.625 z m -23.974614,0.353516 v 13.189453 h 3.535156 V 12.984375 Z m -7.439453,2.666016 c 0.725148,0 1.314361,0.217255 1.767578,0.652343 0.471346,0.435089 0.799182,1.086855 0.980469,1.957032 h -5.521484 c 0.145029,-0.852049 0.46365,-1.494599 0.953125,-1.929688 0.489474,-0.453217 1.095165,-0.679687 1.820312,-0.679687 z m 30.951167,4.730468 h 2.66407 v 2.011719 c -0.88831,0.870177 -1.85674,1.306641 -2.90821,1.306641 -0.48947,0 -0.89829,-0.145488 -1.2246,-0.435547 -0.30819,-0.290059 -0.4629,-0.634372 -0.4629,-1.033203 0,-0.507604 0.17314,-0.942114 0.51758,-1.304688 0.36258,-0.362574 0.83395,-0.544922 1.41406,-0.544922 z"
         transform="matrix(0.20872766,0,0,0.20872766,5.5244731,17.291994)"
         id="text819" />
      <g
         id="g3837"
         style="stroke-width:0.78889197">
        <path
           style="fill:#1a1a1a;fill-opacity:1;stroke:none;stroke-width:0.51014215;stroke-linecap:round;stroke-linejoin:round;stroke-miterlimit:4;stroke-dasharray:none;stroke-opacity:1"
           d="m 8.6723076,17.291999 a 3.1478442,3.1478442 0 0 0 -3.1478346,3.14786 3.1478442,3.1478442 0 0 0 2.9064195,3.135752 V 22.387435 C 7.6396264,22.269976 7.0286443,21.584547 7.0286443,20.761627 c -2e-7,-0.367779 0.1220489,-0.708108 0.3276694,-0.98255 -0.1179069,0.05541 -0.2522037,0.07174 -0.3666124,0.01564 C 6.757634,19.680918 6.691281,19.158602 6.7062401,18.795582 c 0.022689,-9.32e-4 0.046002,-0.0016 0.069797,-0.0018 0.3569194,-0.0042 0.822654,0.06772 0.9293633,0.285267 0.056099,0.114424 0.039728,0.248723 -0.015694,0.366638 0.2140854,-0.160404 0.4682875,-0.269843 0.7443147,-0.31027 -0.1214956,-0.04443 -0.2268452,-0.127499 -0.2677925,-0.24724 -0.083637,-0.244576 0.2388092,-0.660815 0.5060792,-0.906929 0.2672761,0.246114 0.58968,0.662353 0.5060793,0.906929 -0.040959,0.119753 -0.1463109,0.202818 -0.2678183,0.24724 0.2760179,0.04042 0.5302071,0.149855 0.7442897,0.310245 -0.055396,-0.117912 -0.071719,-0.252207 -0.01562,-0.366613 0.106686,-0.217562 0.5724165,-0.289455 0.9293375,-0.285267 0.02379,2.57e-4 0.04711,9e-4 0.0698,0.0018 0.01496,0.36302 -0.05138,0.885337 -0.283436,0.99916 -0.114416,0.05609 -0.248721,0.03974 -0.3666375,-0.01567 0.2056195,0.274442 0.3276685,0.614771 0.3276685,0.98255 0,0.823139 -0.6113095,1.508696 -1.4028832,1.625883 v 1.19011 a 3.1478442,3.1478442 0 0 0 2.9070552,-3.137761 3.1478442,3.1478442 0 0 0 -3.1478345,-3.14786 z"
           id="path3830" />
        <path
           style="fill:#1a6cfb;fill-opacity:1;stroke:none;stroke-width:0.51014215;stroke-linecap:round;stroke-linejoin:round;stroke-miterlimit:4;stroke-dasharray:none;stroke-opacity:1"
           d="m 8.6723076,19.600692 c -0.6440461,0 -1.1609603,0.516889 -1.1609602,1.160935 2e-7,0.644046 0.5169143,1.16096 1.1609602,1.16096 0.644046,0 1.1609599,-0.516914 1.1609599,-1.16096 0,-0.644046 -0.5169138,-1.160935 -1.1609599,-1.160935 z"
           id="path3828" />
        <rect
           style="opacity:1;fill:#ffffff;fill-opacity:1;stroke:none;stroke-width:0.20872767;stroke-linecap:round;stroke-linejoin:miter;stroke-miterlimit:4;stroke-dasharray:0.20872766, 0.20872766;stroke-dashoffset:0;stroke-opacity:1;paint-order:markers fill stroke"
           id="rect3832"
           width="1.2057931"
           height="1.2057931"
           x="20.210047"
           y="7.9455523"
           transform="rotate(45)"
           ry="0.20872767"
           rx="0.20872767" />
      </g>
    </g>
  </g>
</svg>
