<svg width="141" height="33" viewBox="0 0 141 33" fill="none" xmlns="http://www.w3.org/2000/svg">
<g clip-path="url(#clip0)">
<path d="M65.8255 7.64258L61.9867 7.97004V28.6818H65.8255V18.6694C66.5397 18.1529 67.1946 17.7453 67.7898 17.4473C68.3849 17.1295 69.0197 16.97 69.6942 16.97C70.3489 16.97 70.8546 17.2182 71.2117 17.7149C71.5887 18.2115 71.7782 18.9077 71.7782 19.8017V28.6818H75.6468V19.6219C75.6468 17.7743 75.278 16.3336 74.5439 15.3006C73.8099 14.2676 72.5304 13.751 70.7052 13.751C70.0108 13.751 69.227 13.8902 68.354 14.1684C67.4811 14.4465 66.6389 14.8339 65.8255 15.3306V7.64258ZM102.632 7.64258L98.7927 7.97004V28.6818H102.632V23.9431L104.179 22.5712L107.81 28.6818H112.243L106.947 20.0992L110.993 16.5527L108.821 13.8109L102.632 19.502V7.64258ZM131.179 7.64258L127.34 7.97004V28.6818H131.179V18.6694C131.893 18.1529 132.548 17.7453 133.143 17.4473C133.738 17.1295 134.373 16.97 135.047 16.97C135.702 16.97 136.208 17.2182 136.565 17.7149C136.942 18.2115 137.131 18.9077 137.131 19.8017V28.6818H141V19.6219C141 17.7743 140.633 16.3336 139.899 15.3006C139.165 14.2676 137.886 13.751 136.06 13.751C135.366 13.751 134.582 13.8902 133.709 14.1684C132.836 14.4465 131.992 14.8339 131.179 15.3306V7.64258ZM94.176 7.82236C93.5808 7.82236 93.075 8.03015 92.6584 8.44733C92.2418 8.86452 92.0322 9.38107 92.0322 9.99691C92.0322 10.6128 92.2418 11.1293 92.6584 11.5465C93.075 11.9637 93.5808 12.1715 94.176 12.1715C94.791 12.1715 95.3068 11.9637 95.7234 11.5465C96.1599 11.1293 96.3775 10.6128 96.3775 9.99691C96.3775 9.38107 96.1599 8.86452 95.7234 8.44733C95.3068 8.03015 94.791 7.82236 94.176 7.82236ZM53.2896 7.94008C51.8414 7.94008 50.5921 8.1803 49.5406 8.65708C48.509 9.114 47.7151 9.75754 47.1596 10.5919C46.6041 11.4064 46.326 12.3306 46.326 13.3636C46.326 14.3371 46.6041 15.2208 47.1596 16.0155C47.7349 16.7902 48.41 17.4662 49.1837 18.0423C49.9773 18.6184 51.0371 19.3045 52.3663 20.0992L53.2597 20.6342C54.2715 21.1905 55.015 21.6789 55.4912 22.0961C55.9871 22.4934 56.235 22.9392 56.235 23.4359C56.235 24.1511 55.9288 24.6979 55.3138 25.0754C54.6987 25.4528 53.796 25.6425 52.6057 25.6425C51.832 25.6425 50.9775 25.5033 50.0451 25.2252C49.1126 24.9272 48.2805 24.5881 47.5465 24.2107L46.6829 27.3398C47.3575 27.757 48.3106 28.1545 49.5406 28.532C50.7905 28.8895 51.8323 29.0692 52.6655 29.0692C54.2527 29.0692 55.6107 28.8311 56.7415 28.3543C57.8922 27.8775 58.7546 27.2217 59.3299 26.3874C59.9251 25.553 60.2234 24.5885 60.2234 23.4958C60.2234 22.5224 59.9856 21.679 59.5095 20.9638C59.0532 20.2288 58.4768 19.6113 57.7825 19.1146C57.0881 18.5981 56.1572 18.0029 54.9867 17.3275L54.1232 16.8202L53.17 16.2851C52.1582 15.6891 51.4247 15.2029 50.9684 14.8254C50.532 14.4281 50.3144 13.9397 50.3144 13.3636C50.3144 12.6882 50.5925 12.1817 51.148 11.844C51.7233 11.4864 52.4567 11.3089 53.3495 11.3089C54.1232 11.3089 54.8365 11.4179 55.4912 11.6364C56.1657 11.8549 56.9092 12.1615 57.7226 12.5589L59.0029 9.4597C56.9 8.44653 54.9958 7.94008 53.2896 7.94008ZM84.22 13.8409C82.732 13.8409 81.4424 14.1598 80.3513 14.7955C79.2601 15.4113 78.4179 16.2951 77.8227 17.4473C77.2474 18.5996 76.9592 19.9393 76.9592 21.469C76.9592 23.833 77.6624 25.6914 79.071 27.0423C80.4994 28.3733 82.5829 29.0392 85.3207 29.0392C86.4912 29.0392 87.5027 28.8899 88.3558 28.5919C89.2089 28.274 90.0028 27.826 90.7369 27.2499L89.6062 24.4504C88.8722 24.8676 88.187 25.1843 87.5522 25.4028C86.9173 25.6214 86.2041 25.7303 85.4105 25.7303C84.0416 25.7303 83.02 25.4619 82.3455 24.9255C81.6908 24.3892 81.2635 23.6143 81.0652 22.6012H90.7967V21.409C90.7967 19.9985 90.559 18.7274 90.0828 17.595C89.6067 16.4428 88.8733 15.5287 87.8813 14.8533C86.8894 14.1778 85.6682 13.8409 84.22 13.8409V13.8409ZM118.508 13.8409C117.834 13.8409 116.931 13.9801 115.8 14.2583C114.669 14.5165 113.845 14.8152 113.329 15.1529L114.37 18.3698C114.926 18.1115 115.601 17.8937 116.394 17.7149C117.188 17.5162 117.911 17.4174 118.566 17.4174C119.28 17.4174 119.836 17.6251 120.233 18.0423C120.65 18.4396 120.867 19.0067 120.887 19.7417H118.061C116.395 19.7417 115.065 20.1493 114.073 20.9638C113.081 21.7585 112.585 22.8904 112.585 24.3605C112.585 25.7909 113.023 26.9329 113.896 27.7871C114.769 28.6215 116.066 29.0392 117.792 29.0392C119.121 29.0392 120.393 28.4036 121.603 27.1322L122.257 28.6818H124.786V19.1745C124.786 18.1614 124.5 17.2473 123.924 16.4328C123.369 15.6183 122.613 14.9827 121.661 14.5258C120.709 14.0689 119.659 13.8409 118.508 13.8409V13.8409ZM92.2715 14.2283V28.6818H96.1402V14.2283H92.2715ZM84.1302 17.1498C84.9238 17.1498 85.5686 17.3879 86.0645 17.8647C86.5804 18.3415 86.9391 19.0557 87.1375 20.0093H81.0951C81.2538 19.0756 81.6025 18.3714 82.1381 17.8946C82.6738 17.398 83.3366 17.1498 84.1302 17.1498V17.1498ZM118.002 22.3336H120.917V24.5381C119.945 25.4917 118.885 25.97 117.734 25.97C117.199 25.97 116.751 25.8106 116.394 25.4927C116.057 25.1749 115.888 24.7976 115.888 24.3605C115.888 23.8043 116.077 23.3281 116.454 22.9308C116.851 22.5335 117.367 22.3336 118.002 22.3336Z" fill="#1A1A1A"/>
<path d="M16.5039 3.00412e-05C14.3366 3.66599e-05 12.1905 0.427506 10.1881 1.25804C8.18578 2.08858 6.36639 3.30592 4.83386 4.84055C3.30133 6.37517 2.08566 8.19705 1.25626 10.2021C0.426867 12.2072 -1.08783e-05 14.3563 2.07916e-10 16.5265C0.00372344 20.6876 1.57488 24.6942 4.39967 27.746C7.22447 30.7979 11.095 32.6703 15.2382 32.9895V26.7515C11.0896 26.1348 7.88629 22.5362 7.88629 18.2158C7.88629 16.285 8.52619 14.4982 9.60425 13.0574C8.98607 13.3483 8.28196 13.434 7.68212 13.1395C6.4654 12.542 6.11752 9.79984 6.19595 7.89395C6.3149 7.88906 6.43713 7.88555 6.56189 7.8845C8.4332 7.86245 10.875 8.24003 11.4345 9.38217C11.7286 9.98291 11.6428 10.688 11.3522 11.3071C12.4746 10.4649 13.8074 9.89036 15.2546 9.67812C14.6176 9.44486 14.0653 9.00874 13.8506 8.38009C13.4121 7.09605 15.1027 4.91076 16.5039 3.61864C17.9053 4.91076 19.5956 7.09605 19.1573 8.38009C18.9425 9.0088 18.3902 9.4449 17.7531 9.67812C19.2003 9.89033 20.533 10.4649 21.6554 11.3069C21.365 10.6879 21.2794 9.98281 21.5735 9.38217C22.1329 8.23996 24.5747 7.86251 26.446 7.8845C26.5707 7.88585 26.693 7.88923 26.8119 7.89395C26.8904 9.79984 26.5426 12.542 25.3259 13.1396C24.726 13.4341 24.0219 13.3483 23.4036 13.0574C24.4817 14.4982 25.1216 16.2849 25.1216 18.2158C25.1216 22.5374 21.9165 26.1366 17.7663 26.7518V33C21.912 32.6815 25.7848 30.8079 28.6106 27.7538C31.4363 24.6996 33.0067 20.69 33.0079 16.5265C33.0079 14.3562 32.581 12.2072 31.7516 10.2021C30.9222 8.19702 29.7066 6.37515 28.174 4.84053C26.6415 3.3059 24.8221 2.08856 22.8197 1.25802C20.8174 0.427486 18.6713 6.68765e-06 16.5039 0L16.5039 3.00412e-05Z" fill="#1A1A1A"/>
<path d="M16.5039 12.1201C13.1272 12.1201 10.4171 14.8338 10.4171 18.2151C10.4171 21.5964 13.1272 24.3102 16.5039 24.3102C19.8806 24.3102 22.5908 21.5964 22.5908 18.2151C22.5908 14.8338 19.8806 12.1201 16.5039 12.1201Z" fill="#9B51E0"/>
<path d="M20.2004 17.4412L17.2778 14.5146C16.8504 14.0867 16.1575 14.0867 15.7301 14.5146L12.8075 17.4412C12.3801 17.8692 12.3801 18.563 12.8075 18.991L15.7301 21.9176C16.1575 22.3455 16.8504 22.3455 17.2778 21.9176L20.2004 18.991C20.6278 18.563 20.6278 17.8692 20.2004 17.4412Z" fill="white"/>
</g>
<defs>
<clipPath id="clip0">
<rect width="141" height="33" fill="white"/>
</clipPath>
</defs>
</svg>
