<svg width="66px" height="16px" viewBox="0 0 66 16" fill="none" xmlns="http://www.w3.org/2000/svg" >
<g id="Sheikah" stroke="none" stroke-width="1" fill="none" fill-rule="evenodd">
    <g id="sheikah" fill="#444258" fill-rule="nonzero">
        <path d="M0.94,14.1 C1.39333,14.38 2.03333,14.6467 2.86,14.9 C3.7,15.14 4.4,15.26 4.96,15.26 C6.02667,15.26 6.94,15.1 7.7,14.78 C8.47333,14.46 9.05333,14.02 9.44,13.46 C9.84,12.9 10.04,12.2533 10.04,11.52 C10.04,10.8667 9.88,10.3 9.56,9.82 C9.25333,9.3267 8.86667,8.9133 8.4,8.58 C7.93333,8.2333 7.30667,7.8333 6.52,7.38 L5.94,7.04 L5.3,6.68 C4.62,6.28 4.12667,5.9533 3.82,5.7 C3.52667,5.4333 3.38,5.1067 3.38,4.72 C3.38,4.2667 3.56667,3.9267 3.94,3.7 C4.32667,3.46 4.82,3.34 5.42,3.34 C5.94,3.34 6.42,3.4133 6.86,3.56 C7.31333,3.7067 7.81333,3.9133 8.36,4.18 L9.22,2.1 C7.80667,1.42 6.52667,1.08 5.38,1.08 C4.40667,1.08 3.56667,1.24 2.86,1.56 C2.16667,1.86667 1.63333,2.3 1.26,2.86 C0.886667,3.4067 0.7,4.0267 0.7,4.72 C0.7,5.3733 0.886667,5.9667 1.26,6.5 C1.64667,7.02 2.1,7.4733 2.62,7.86 C3.15333,8.2467 3.86667,8.7067 4.76,9.24 L5.36,9.6 C6.04,9.9733 6.54,10.3 6.86,10.58 C7.19333,10.8467 7.36,11.1467 7.36,11.48 C7.36,11.96 7.15333,12.3267 6.74,12.58 C6.32667,12.8333 5.72,12.96 4.92,12.96 C4.4,12.96 3.82667,12.8667 3.2,12.68 C2.57333,12.48 2.01333,12.2533 1.52,12 L0.94,14.1 Z M17.3069,4.98 C18.5335,4.98 19.3935,5.3267 19.8869,6.02 C20.3802,6.7133 20.6269,7.68 20.6269,8.92 L20.6269,15 L18.0269,15 L18.0269,9.04 C18.0269,8.44 17.9002,7.9733 17.6469,7.64 C17.4069,7.3067 17.0669,7.14 16.6269,7.14 C16.1735,7.14 15.7469,7.2467 15.3469,7.46 C14.9469,7.66 14.5069,7.9333 14.0269,8.28 L14.0269,15 L11.4469,15 L11.4469,1.1 L14.0269,0.88 L14.0269,6.04 C14.5735,5.7067 15.1402,5.4467 15.7269,5.26 C16.3135,5.0733 16.8402,4.98 17.3069,4.98 Z M31.0508,10.12 C31.0508,9.1733 30.8908,8.32 30.5708,7.56 C30.2508,6.7867 29.7574,6.1733 29.0908,5.72 C28.4241,5.2667 27.6041,5.04 26.6308,5.04 C25.6308,5.04 24.7641,5.2533 24.0308,5.68 C23.2974,6.0933 22.7308,6.6867 22.3308,7.46 C21.9441,8.2333 21.7508,9.1333 21.7508,10.16 C21.7508,11.7467 22.2241,12.9933 23.1708,13.9 C24.1308,14.7933 25.5308,15.24 27.3708,15.24 C28.1574,15.24 28.8374,15.14 29.4108,14.94 C29.9841,14.7267 30.5174,14.4267 31.0108,14.04 L30.2508,12.16 C29.7574,12.44 29.2974,12.6533 28.8708,12.8 C28.4441,12.9467 27.9641,13.02 27.4308,13.02 C26.5108,13.02 25.8241,12.84 25.3708,12.48 C24.9308,12.12 24.6441,11.6 24.5108,10.92 L31.0508,10.92 L31.0508,10.12 Z M24.5308,9.18 C24.6374,8.5533 24.8708,8.08 25.2308,7.76 C25.5908,7.4267 26.0374,7.26 26.5708,7.26 C27.1041,7.26 27.5374,7.42 27.8708,7.74 C28.2174,8.06 28.4574,8.54 28.5908,9.18 L24.5308,9.18 Z M33.5237,3.92 C33.9371,3.92 34.2837,3.78 34.5637,3.5 C34.8571,3.22 35.0037,2.87333 35.0037,2.46 C35.0037,2.04667 34.8571,1.7 34.5637,1.42 C34.2837,1.14 33.9371,1 33.5237,1 C33.1237,1 32.7837,1.14 32.5037,1.42 C32.2237,1.7 32.0837,2.04667 32.0837,2.46 C32.0837,2.87333 32.2237,3.22 32.5037,3.5 C32.7837,3.78 33.1237,3.92 33.5237,3.92 Z M34.8437,15 L34.8437,5.3 L32.2437,5.3 L32.2437,15 L34.8437,15 Z M39.4284,15 L39.4284,11.82 L40.4684,10.9 L42.9084,15 L45.8884,15 L42.3284,9.24 L45.0484,6.86 L43.5884,5.02 L39.4284,8.84 L39.4284,0.88 L36.8484,1.1 L36.8484,15 L39.4284,15 Z M47.5205,8.08 C47.8938,7.9067 48.3471,7.76 48.8805,7.64 C49.4138,7.5067 49.9005,7.44 50.3405,7.44 C50.8205,7.44 51.1938,7.58 51.4605,7.86 C51.7405,8.1267 51.8871,8.5067 51.9005,9 L50.0005,9 C48.8805,9 47.9871,9.2733 47.3205,9.82 C46.6538,10.3533 46.3205,11.1133 46.3205,12.1 C46.3205,13.06 46.6138,13.8267 47.2005,14.4 C47.7871,14.96 48.6605,15.24 49.8205,15.24 C50.7138,15.24 51.5671,14.8133 52.3805,13.96 L52.8205,15 L54.5205,15 L54.5205,8.62 C54.5205,7.94 54.3271,7.3267 53.9405,6.78 C53.5671,6.2333 53.0605,5.8067 52.4205,5.5 C51.7805,5.1933 51.0738,5.04 50.3005,5.04 C49.8471,5.04 49.2405,5.1333 48.4805,5.32 C47.7205,5.4933 47.1671,5.6933 46.8205,5.92 L47.5205,8.08 Z M48.5405,12.1 C48.5405,11.7267 48.6671,11.4067 48.9205,11.14 C49.1871,10.8733 49.5338,10.74 49.9605,10.74 L51.9205,10.74 L51.9205,12.22 C51.2671,12.86 50.5538,13.18 49.7805,13.18 C49.4205,13.18 49.1205,13.0733 48.8805,12.86 C48.6538,12.6467 48.5405,12.3933 48.5405,12.1 Z M62.2991,4.98 C63.5257,4.98 64.3857,5.3267 64.8791,6.02 C65.3724,6.7133 65.6191,7.68 65.6191,8.92 L65.6191,15 L63.0191,15 L63.0191,9.04 C63.0191,8.44 62.8924,7.9733 62.6391,7.64 C62.3991,7.3067 62.0591,7.14 61.6191,7.14 C61.1657,7.14 60.7391,7.2467 60.3391,7.46 C59.9391,7.66 59.4991,7.9333 59.0191,8.28 L59.0191,15 L56.4391,15 L56.4391,1.1 L59.0191,0.88 L59.0191,6.04 C59.5657,5.7067 60.1324,5.4467 60.7191,5.26 C61.3057,5.0733 61.8324,4.98 62.2991,4.98 Z" id="Shape"></path>
    </g>
</g>
</svg>