<svg width="34" height="33" viewBox="0 0 34 33" fill="none" xmlns="http://www.w3.org/2000/svg">
<path d="M16.5039 3.00412e-05C14.3366 3.66599e-05 12.1905 0.427506 10.1881 1.25804C8.18578 2.08858 6.36639 3.30592 4.83386 4.84055C3.30133 6.37517 2.08566 8.19705 1.25626 10.2021C0.426867 12.2072 -1.08783e-05 14.3563 2.07916e-10 16.5265C0.00372344 20.6876 1.57488 24.6942 4.39967 27.746C7.22447 30.7979 11.095 32.6703 15.2382 32.9895V26.7515C11.0896 26.1348 7.88629 22.5362 7.88629 18.2158C7.88629 16.285 8.52619 14.4982 9.60425 13.0574C8.98607 13.3483 8.28196 13.434 7.68212 13.1395C6.4654 12.542 6.11752 9.79984 6.19595 7.89395C6.3149 7.88906 6.43713 7.88555 6.56189 7.8845C8.4332 7.86245 10.875 8.24003 11.4345 9.38217C11.7286 9.98291 11.6428 10.688 11.3522 11.3071C12.4746 10.4649 13.8074 9.89036 15.2546 9.67812C14.6176 9.44486 14.0653 9.00874 13.8506 8.38009C13.4121 7.09605 15.1027 4.91076 16.5039 3.61864C17.9053 4.91076 19.5956 7.09605 19.1573 8.38009C18.9425 9.0088 18.3902 9.4449 17.7531 9.67812C19.2003 9.89033 20.533 10.4649 21.6554 11.3069C21.365 10.6879 21.2794 9.98281 21.5735 9.38217C22.1329 8.23996 24.5747 7.86251 26.446 7.8845C26.5707 7.88585 26.693 7.88923 26.8119 7.89395C26.8904 9.79984 26.5426 12.542 25.3259 13.1396C24.726 13.4341 24.0219 13.3483 23.4036 13.0574C24.4817 14.4982 25.1216 16.2849 25.1216 18.2158C25.1216 22.5374 21.9165 26.1366 17.7663 26.7518V33C21.912 32.6815 25.7848 30.8079 28.6106 27.7538C31.4363 24.6996 33.0067 20.69 33.0079 16.5265C33.0079 14.3562 32.581 12.2072 31.7516 10.2021C30.9222 8.19702 29.7066 6.37515 28.174 4.84053C26.6415 3.3059 24.8221 2.08856 22.8197 1.25802C20.8174 0.427486 18.6713 6.68765e-06 16.5039 0L16.5039 3.00412e-05Z" fill="#1A1A1A"/>
<path d="M16.5039 12.1201C13.1272 12.1201 10.4171 14.8338 10.4171 18.2151C10.4171 21.5964 13.1272 24.3102 16.5039 24.3102C19.8806 24.3102 22.5908 21.5964 22.5908 18.2151C22.5908 14.8338 19.8806 12.1201 16.5039 12.1201Z" fill="#9B51E0"/>
<path d="M20.2004 17.4412L17.2778 14.5146C16.8504 14.0867 16.1575 14.0867 15.7301 14.5146L12.8075 17.4412C12.3801 17.8692 12.3801 18.563 12.8075 18.991L15.7301 21.9176C16.1575 22.3455 16.8504 22.3455 17.2778 21.9176L20.2004 18.991C20.6278 18.563 20.6278 17.8692 20.2004 17.4412Z" fill="white"/>
</svg>
