<?xml version="1.0" encoding="UTF-8" standalone="no"?>
<svg
   xmlns:dc="http://purl.org/dc/elements/1.1/"
   xmlns:cc="http://creativecommons.org/ns#"
   xmlns:rdf="http://www.w3.org/1999/02/22-rdf-syntax-ns#"
   xmlns:svg="http://www.w3.org/2000/svg"
   xmlns="http://www.w3.org/2000/svg"
   id="svg7768"
   version="1.1"
   viewBox="0 0 414.86676 16.404167"
   height="16.404167mm"
   width="414.86676mm">
  <defs
     id="defs7762" />
  <metadata
     id="metadata7765">
    <rdf:RDF>
      <cc:Work
         rdf:about="">
        <dc:format>image/svg+xml</dc:format>
        <dc:type
           rdf:resource="http://purl.org/dc/dcmitype/StillImage" />
        <dc:title></dc:title>
      </cc:Work>
    </rdf:RDF>
  </metadata>
  <g
     transform="translate(-26.155901,-80.911011)"
     id="layer1">
    <path
       style="display:inline;fill:none;stroke:#e6e6e6;stroke-width:0.26458338px;stroke-linecap:butt;stroke-linejoin:miter;stroke-opacity:1"
       d="M 26.155901,81.043303 H 441.02267"
       id="path1836-0" />
    <path
       style="display:inline;fill:none;stroke:#e6e6e6;stroke-width:0.26458338px;stroke-linecap:butt;stroke-linejoin:miter;stroke-opacity:1"
       d="M 26.155904,81.043303 H 441.02257"
       id="path1836" />
    <path
       id="path4612"
       d="M 26.155901,97.182887 H 441.02257"
       style="display:inline;fill:none;stroke:#e6e6e6;stroke-width:0.26458338px;stroke-linecap:butt;stroke-linejoin:miter;stroke-opacity:1" />
    <path
       id="rect4580-8"
       d="M 26.155901,-97.050598 H 441.02254 v 15.875 H 26.155901 Z"
       style="display:inline;opacity:1;fill:#f2f2f2;fill-opacity:1;stroke:none;stroke-width:2.45073509;stroke-linecap:round;stroke-linejoin:miter;stroke-miterlimit:4;stroke-dasharray:none;stroke-dashoffset:0;stroke-opacity:1;paint-order:markers fill stroke"
       transform="scale(1,-1)" />
    <path
       id="rect4705"
       d="m 26.155905,81.175608 v 15.875 H 127.46186 l 5.29167,-7.9375 -5.29167,-7.9375 z"
       style="display:inline;opacity:1;fill:#ececec;fill-opacity:1;stroke:none;stroke-width:2.45073509;stroke-linecap:round;stroke-linejoin:miter;stroke-miterlimit:4;stroke-dasharray:none;stroke-dashoffset:0;stroke-opacity:1;paint-order:markers fill stroke" />
    <g
       transform="translate(-65.919096,62.390191)"
       id="g4715"
       style="display:inline">
      <g
         id="text4634"
         style="font-style:normal;font-variant:normal;font-weight:300;font-stretch:normal;font-size:4.23333359px;line-height:1.25;font-family:Titillium;-inkscape-font-specification:'Titillium Light';text-align:start;letter-spacing:0px;word-spacing:0px;text-anchor:start;display:inline;fill:#808080;fill-opacity:1;stroke:none;stroke-width:0.15033114"
         aria-label="New">
        <path
           id="path8352"
           style="font-style:normal;font-variant:normal;font-weight:600;font-stretch:normal;font-size:4.23333359px;font-family:Titillium;-inkscape-font-specification:'Titillium Semi-Bold';text-align:start;text-anchor:start;fill:#808080;fill-opacity:1;stroke-width:0.15033114"
           d="m 208.12836,28.414597 h 0.4699 v -2.489201 h 0.0593 l 0.9017,2.489201 h 0.80433 v -2.899834 h -0.4699 v 2.484967 h -0.0635 l -0.88053,-2.484967 h -0.82127 z" />
        <path
           id="path8354"
           style="font-style:normal;font-variant:normal;font-weight:600;font-stretch:normal;font-size:4.23333359px;font-family:Titillium;-inkscape-font-specification:'Titillium Semi-Bold';text-align:start;text-anchor:start;fill:#808080;fill-opacity:1;stroke-width:0.15033114"
           d="m 211.79734,28.058997 c -0.35137,0 -0.47837,-0.169334 -0.4826,-0.508 h 1.31233 l 0.0296,-0.330201 c 0,-0.6604 -0.29634,-0.969433 -0.889,-0.969433 -0.5842,0 -0.91864,0.351367 -0.91864,1.126067 0,0.745067 0.24554,1.083733 0.88054,1.083733 0.37253,0 0.85513,-0.09737 0.85513,-0.09737 l -0.008,-0.3429 c 0,0 -0.4445,0.0381 -0.77893,0.0381 z m -0.48683,-0.863601 c 0.004,-0.4064 0.14393,-0.563033 0.4572,-0.563033 0.30903,0 0.43603,0.1397 0.43603,0.563033 z" />
        <path
           id="path8356"
           style="font-style:normal;font-variant:normal;font-weight:600;font-stretch:normal;font-size:4.23333359px;font-family:Titillium;-inkscape-font-specification:'Titillium Semi-Bold';text-align:start;text-anchor:start;fill:#808080;fill-opacity:1;stroke-width:0.15033114"
           d="m 212.93531,26.29793 0.44874,2.116667 h 0.73236 l 0.3302,-1.452034 0.3302,1.452034 h 0.73237 l 0.44873,-2.116667 h -0.4572 l -0.3302,1.722967 h -0.0847 l -0.40217,-1.680634 h -0.47413 l -0.40217,1.680634 h -0.0847 l -0.33443,-1.722967 z" />
      </g>
      <path
         style="display:inline;fill:none;stroke:#e6e6e6;stroke-width:0.26458335px;stroke-linecap:butt;stroke-linejoin:miter;stroke-opacity:1"
         d="m 224.19991,22.399753 v 8.646302"
         id="path4648" />
      <g
         id="text4667"
         style="font-style:normal;font-variant:normal;font-weight:300;font-stretch:normal;font-size:4.23333359px;line-height:1.25;font-family:Titillium;-inkscape-font-specification:'Titillium Light';text-align:start;letter-spacing:0px;word-spacing:0px;text-anchor:start;display:inline;fill:#808080;fill-opacity:1;stroke:none;stroke-width:0.15033114"
         aria-label="Open">
        <path
           id="path8359"
           style="font-style:normal;font-variant:normal;font-weight:600;font-stretch:normal;font-size:4.23333359px;font-family:Titillium;-inkscape-font-specification:'Titillium Semi-Bold';text-align:start;text-anchor:start;fill:#808080;fill-opacity:1;stroke-width:0.15033114"
           d="m 233.62302,28.05053 c -0.56304,0 -0.69427,-0.347133 -0.69427,-1.071034 0,-0.719666 0.13547,-1.100666 0.69427,-1.100666 0.5588,0 0.69003,0.381 0.69003,1.100666 0,0.736601 -0.127,1.071034 -0.69003,1.071034 z m 0,0.410633 c 0.90593,0 1.17686,-0.4953 1.17686,-1.481667 0,-0.973666 -0.27093,-1.5113 -1.17686,-1.5113 -0.90594,0 -1.1811,0.541867 -1.1811,1.5113 0,0.977901 0.27093,1.481667 1.1811,1.481667 z" />
        <path
           id="path8361"
           style="font-style:normal;font-variant:normal;font-weight:600;font-stretch:normal;font-size:4.23333359px;font-family:Titillium;-inkscape-font-specification:'Titillium Semi-Bold';text-align:start;text-anchor:start;fill:#808080;fill-opacity:1;stroke-width:0.15033114"
           d="m 235.29201,29.324763 h 0.46143 v -0.9017 c 0.0254,0.0042 0.2286,0.0381 0.40217,0.0381 0.65193,0 0.94826,-0.254 0.94826,-1.126067 0,-0.770466 -0.25823,-1.083733 -0.80856,-1.083733 -0.254,0 -0.5461,0.1778 -0.5461,0.1778 V 26.29793 h -0.4572 z m 0.92286,-2.662767 c 0.26247,0 0.4191,0.1778 0.4191,0.6731 0,0.520701 -0.1143,0.728134 -0.508,0.728134 -0.14816,0 -0.35136,-0.02963 -0.37253,-0.03387 v -1.24883 c 0,0 0.23707,-0.118534 0.46143,-0.118534 z" />
        <path
           id="path8363"
           style="font-style:normal;font-variant:normal;font-weight:600;font-stretch:normal;font-size:4.23333359px;font-family:Titillium;-inkscape-font-specification:'Titillium Semi-Bold';text-align:start;text-anchor:start;fill:#808080;fill-opacity:1;stroke-width:0.15033114"
           d="m 238.41244,28.058997 c -0.35137,0 -0.47837,-0.169334 -0.4826,-0.508 h 1.31233 l 0.0296,-0.330201 c 0,-0.6604 -0.29633,-0.969433 -0.889,-0.969433 -0.5842,0 -0.91863,0.351367 -0.91863,1.126067 0,0.745067 0.24553,1.083733 0.88053,1.083733 0.37254,0 0.85514,-0.09737 0.85514,-0.09737 l -0.008,-0.3429 c 0,0 -0.4445,0.0381 -0.77893,0.0381 z m -0.48684,-0.863601 c 0.004,-0.4064 0.14394,-0.563033 0.4572,-0.563033 0.30904,0 0.43604,0.1397 0.43604,0.563033 z" />
        <path
           id="path8365"
           style="font-style:normal;font-variant:normal;font-weight:600;font-stretch:normal;font-size:4.23333359px;font-family:Titillium;-inkscape-font-specification:'Titillium Semi-Bold';text-align:start;text-anchor:start;fill:#808080;fill-opacity:1;stroke-width:0.15033114"
           d="m 240.17694,28.414597 v -1.642534 c 0,0 0.23284,-0.110067 0.47837,-0.110067 0.32173,0 0.37677,0.207434 0.37677,0.630767 v 1.121834 h 0.4572 v -1.134534 c 0,-0.694267 -0.14394,-1.0287 -0.73237,-1.0287 -0.27517,0 -0.5842,0.1778 -0.5842,0.1778 V 26.29793 h -0.4572 v 2.116667 z" />
      </g>
    </g>
    <g
       id="text4673"
       style="font-style:normal;font-variant:normal;font-weight:bold;font-stretch:normal;font-size:4.23333311px;line-height:1.25;font-family:'Titillium Web';-inkscape-font-specification:'Titillium Web Bold';text-align:start;letter-spacing:0px;word-spacing:0px;text-anchor:start;display:inline;fill:#999999;fill-opacity:1;stroke:none;stroke-width:0.15033114"
       aria-label="Editing 'Pay to Alice or Bob, based on API response'">
      <path
         id="path8368"
         style="font-style:italic;font-variant:normal;font-weight:300;font-stretch:normal;font-family:'Titillium Web';-inkscape-font-specification:'Titillium Web Light Italic';fill:#999999;stroke-width:0.15033114"
         d="m 34.415139,90.804787 0.677333,-2.942167 h 1.621367 l -0.05503,0.232833 H 35.29991 l -0.254,1.0922 h 1.126066 l -0.05503,0.232834 h -1.121833 l -0.2667,1.151466 h 1.358899 l -0.05503,0.232834 z" />
      <path
         id="path8370"
         style="font-style:italic;font-variant:normal;font-weight:300;font-stretch:normal;font-family:'Titillium Web';-inkscape-font-specification:'Titillium Web Light Italic';fill:#999999;stroke-width:0.15033114"
         d="m 37.074069,90.84712 q -0.516467,0 -0.516467,-0.588433 0,-0.372534 0.118534,-0.732367 0.122766,-0.364067 0.3683,-0.618067 0.249766,-0.258233 0.567266,-0.258233 0.211667,0 0.491067,0.05503 l 0.0889,0.01693 0.2286,-0.973667 h 0.254 l -0.7112,3.056467 h -0.245533 l 0.09313,-0.414867 q -0.2159,0.287867 -0.508,0.4064 -0.118533,0.0508 -0.2286,0.0508 z m 1.071033,-1.913467 q -0.283633,-0.0635 -0.529166,-0.0635 -0.245534,0 -0.436034,0.237067 -0.186266,0.232833 -0.275166,0.541867 -0.08467,0.309033 -0.08467,0.6096 0,0.364066 0.3302,0.364066 0.1397,0 0.321733,-0.135466 0.182034,-0.135467 0.296334,-0.275167 l 0.1143,-0.135467 z" />
      <path
         id="path8372"
         style="font-style:italic;font-variant:normal;font-weight:300;font-stretch:normal;font-family:'Titillium Web';-inkscape-font-specification:'Titillium Web Light Italic';fill:#999999;stroke-width:0.15033114"
         d="m 38.543829,90.804787 0.491067,-2.116667 h 0.254 l -0.491067,2.116667 z m 0.601133,-2.607734 0.08043,-0.338666 h 0.254 l -0.0762,0.338666 z" />
      <path
         id="path8374"
         style="font-style:italic;font-variant:normal;font-weight:300;font-stretch:normal;font-family:'Titillium Web';-inkscape-font-specification:'Titillium Web Light Italic';fill:#999999;stroke-width:0.15033114"
         d="m 39.848821,90.406853 q 0,0.2159 0.232833,0.2159 l 0.338667,-0.0254 -0.01693,0.198967 q -0.220133,0.0508 -0.410633,0.0508 -0.186267,0 -0.300567,-0.1016 -0.110066,-0.1016 -0.110066,-0.270933 0,-0.169334 0.07197,-0.4572 l 0.258234,-1.1049 h -0.287867 l 0.05503,-0.224367 h 0.287867 l 0.156633,-0.6477 h 0.254 l -0.160866,0.6477 h 0.630766 l -0.05503,0.224367 h -0.626533 l -0.262467,1.1176 q -0.05503,0.237066 -0.05503,0.376766 z" />
      <path
         id="path8376"
         style="font-style:italic;font-variant:normal;font-weight:300;font-stretch:normal;font-family:'Titillium Web';-inkscape-font-specification:'Titillium Web Light Italic';fill:#999999;stroke-width:0.15033114"
         d="m 40.710105,90.804787 0.491067,-2.116667 h 0.254 l -0.491067,2.116667 z m 0.601133,-2.607734 0.08043,-0.338666 h 0.254 l -0.0762,0.338666 z" />
      <path
         id="path8378"
         style="font-style:italic;font-variant:normal;font-weight:300;font-stretch:normal;font-family:'Titillium Web';-inkscape-font-specification:'Titillium Web Light Italic';fill:#999999;stroke-width:0.15033114"
         d="m 42.916797,88.645787 q 0.2413,0 0.3683,0.1397 0.126999,0.1397 0.126999,0.359833 0,0.220133 -0.08467,0.575733 l -0.254,1.083734 h -0.249767 l 0.249767,-1.0668 q 0.08043,-0.3429 0.08043,-0.529167 0,-0.334433 -0.3175,-0.334433 -0.1397,0 -0.3175,0.131233 -0.1778,0.131233 -0.287866,0.2667 l -0.105834,0.131233 -0.325966,1.401234 h -0.254 l 0.491066,-2.116667 h 0.245534 l -0.0889,0.410633 q 0.211666,-0.283633 0.503766,-0.402166 0.1143,-0.0508 0.220134,-0.0508 z" />
      <path
         id="path8380"
         style="font-style:italic;font-variant:normal;font-weight:300;font-stretch:normal;font-family:'Titillium Web';-inkscape-font-specification:'Titillium Web Light Italic';fill:#999999;stroke-width:0.15033114"
         d="m 44.149292,91.808087 q -0.3302,0 -0.524934,-0.1524 -0.1905,-0.148167 -0.1905,-0.397934 0,-0.359833 0.5715,-0.664633 -0.0635,-0.0635 -0.0635,-0.160867 0,-0.09737 0.05503,-0.198966 0.05503,-0.105834 0.1143,-0.1651 l 0.05503,-0.0635 q -0.2921,-0.131234 -0.2921,-0.474134 0,-0.347133 0.2286,-0.613833 0.232833,-0.270933 0.618067,-0.270933 0.194733,0 0.334433,0.0508 l 0.04657,0.01693 0.626533,-0.0254 -0.0508,0.224367 h -0.410633 q 0.08043,0.122766 0.08043,0.309033 0,0.3175 -0.237067,0.5842 -0.232833,0.2667 -0.656166,0.2667 l -0.127,-0.0085 q -0.148167,0.186267 -0.148167,0.287867 0,0.09737 0.0762,0.131233 0.08043,0.02963 0.372533,0.06773 0.296334,0.03387 0.440267,0.143933 0.148167,0.110067 0.148167,0.3429 0,0.313267 -0.2921,0.541867 -0.2921,0.2286 -0.7747,0.2286 z m 0,-1.1176 q -0.1905,0.09737 -0.3302,0.232833 -0.1397,0.135467 -0.1397,0.2921 0,0.160867 0.127,0.2667 0.127,0.105833 0.4064,0.105833 0.283633,0 0.516466,-0.148166 0.237067,-0.148167 0.237067,-0.385234 0,-0.143933 -0.09737,-0.207433 -0.09737,-0.05927 -0.364066,-0.0889 -0.262467,-0.02963 -0.3556,-0.06773 z m 0.338666,-0.833967 q 0.296334,0 0.4572,-0.198967 0.160867,-0.2032 0.160867,-0.402166 0,-0.198967 -0.09313,-0.2921 -0.09313,-0.09737 -0.334434,-0.09737 -0.237066,0 -0.397933,0.2032 -0.160867,0.198967 -0.160867,0.423333 0,0.364067 0.3683,0.364067 z" />
      <path
         id="path8382"
         style="font-style:italic;font-variant:normal;font-weight:300;font-stretch:normal;font-family:'Titillium Web';-inkscape-font-specification:'Titillium Web Light Italic';fill:#999999;stroke-width:0.15033114"
         d="m 47.17844,88.798187 h -0.2286 l 0.2159,-0.935567 h 0.2413 z" />
      <path
         id="path8384"
         style="font-style:italic;font-variant:normal;font-weight:600;font-stretch:normal;font-family:'Titillium Web';-inkscape-font-specification:'Titillium Web Semi-Bold Italic';fill:#999999;stroke-width:0.15033114"
         d="m 48.418675,89.90732 h -0.478367 l -0.207433,0.897467 h -0.474134 l 0.6731,-2.899833 h 0.867834 q 0.427566,0 0.6223,0.182033 0.194733,0.182033 0.194733,0.579966 0,0.5842 -0.3175,0.9144 -0.3175,0.325967 -0.880533,0.325967 z m 0.06773,-0.410633 q 0.309033,0 0.478367,-0.224367 0.169333,-0.224367 0.169333,-0.601133 0,-0.182034 -0.0889,-0.2667 -0.08467,-0.0889 -0.283633,-0.0889 h -0.4572 l -0.270934,1.1811 z" />
      <path
         id="path8386"
         style="font-style:italic;font-variant:normal;font-weight:600;font-stretch:normal;font-family:'Titillium Web';-inkscape-font-specification:'Titillium Web Semi-Bold Italic';fill:#999999;stroke-width:0.15033114"
         d="m 50.204612,90.851353 q -0.2921,0 -0.4318,-0.186266 -0.1397,-0.1905 -0.1397,-0.474134 0,-0.287866 0.0635,-0.541866 0.06773,-0.254 0.1905,-0.4826 0.122766,-0.232834 0.334433,-0.376767 0.2159,-0.148167 0.4826,-0.148167 0.237067,0 0.795866,0.09313 l 0.1778,0.02963 -0.3175,1.3716 -0.1143,0.6604 -0.452966,0.01693 q 0.04657,-0.3048 0.0635,-0.385233 -0.198967,0.262467 -0.452967,0.376767 -0.1016,0.04657 -0.198966,0.04657 z m 0.948266,-1.756833 q -0.287866,-0.0635 -0.4572,-0.0635 -0.169333,0 -0.3175,0.1905 -0.2794,0.351367 -0.2794,0.922867 0,0.156633 0.05503,0.237066 0.05927,0.0762 0.1778,0.0762 0.122766,0 0.2667,-0.110066 0.143933,-0.1143 0.2413,-0.2286 l 0.09737,-0.1143 z" />
      <path
         id="path8388"
         style="font-style:italic;font-variant:normal;font-weight:600;font-stretch:normal;font-family:'Titillium Web';-inkscape-font-specification:'Titillium Web Semi-Bold Italic';fill:#999999;stroke-width:0.15033114"
         d="m 52.01489,88.68812 h 0.452967 l -0.02117,1.735667 h 0.09313 l 0.817034,-1.735667 h 0.465666 l -1.464733,3.026833 h -0.461433 l 0.4572,-0.910166 h -0.321734 z" />
      <path
         id="path8390"
         style="font-style:italic;font-variant:normal;font-weight:600;font-stretch:normal;font-family:'Titillium Web';-inkscape-font-specification:'Titillium Web Semi-Bold Italic';fill:#999999;stroke-width:0.15033114"
         d="m 55.264569,90.305253 q 0,0.156634 0.1651,0.156634 l 0.3048,-0.0254 -0.0381,0.334433 q -0.220133,0.08043 -0.4445,0.08043 -0.220133,0 -0.3429,-0.118533 -0.118533,-0.118533 -0.118533,-0.300567 0,-0.186266 0.0635,-0.448733 l 0.211666,-0.9017 h -0.245533 l 0.1016,-0.3937 h 0.2413 l 0.131233,-0.579967 h 0.461434 l -0.135467,0.579967 h 0.508 l -0.09737,0.3937 h -0.503766 l -0.220134,0.9398 q -0.04233,0.1778 -0.04233,0.283633 z" />
      <path
         id="path8392"
         style="font-style:italic;font-variant:normal;font-weight:600;font-stretch:normal;font-family:'Titillium Web';-inkscape-font-specification:'Titillium Web Semi-Bold Italic';fill:#999999;stroke-width:0.15033114"
         d="m 57.145095,88.645787 q 0.791634,0 0.791634,0.762 0,0.364066 -0.118534,0.690033 -0.118533,0.321733 -0.372533,0.537633 -0.249767,0.2159 -0.5842,0.2159 -0.783167,0 -0.783167,-0.753533 0,-0.364067 0.127,-0.690033 0.127,-0.3302 0.376767,-0.5461 0.249767,-0.2159 0.563033,-0.2159 z m -0.283633,1.8161 q 0.275167,0 0.4445,-0.321734 0.173567,-0.321733 0.173567,-0.7366 0,-0.173566 -0.08467,-0.270933 -0.08467,-0.09737 -0.249767,-0.09737 -0.270933,0 -0.440266,0.325967 -0.169334,0.325967 -0.169334,0.740833 0,0.359834 0.325967,0.359834 z" />
      <path
         id="path8394"
         style="font-style:italic;font-variant:normal;font-weight:600;font-stretch:normal;font-family:'Titillium Web';-inkscape-font-specification:'Titillium Web Semi-Bold Italic';fill:#999999;stroke-width:0.15033114"
         d="M 60.535333,90.804787 V 90.19942 h -0.948267 l -0.2921,0.605367 h -0.474133 l 1.367366,-2.899833 h 0.842434 l -0.0254,2.899833 z m -0.07197,-2.4892 -0.694267,1.468966 h 0.778934 l 0.02117,-1.468966 z" />
      <path
         id="path8396"
         style="font-style:italic;font-variant:normal;font-weight:600;font-stretch:normal;font-family:'Titillium Web';-inkscape-font-specification:'Titillium Web Semi-Bold Italic';fill:#999999;stroke-width:0.15033114"
         d="m 61.342777,90.804787 0.694266,-2.9972 h 0.4572 l -0.690033,2.9972 z" />
      <path
         id="path8398"
         style="font-style:italic;font-variant:normal;font-weight:600;font-stretch:normal;font-family:'Titillium Web';-inkscape-font-specification:'Titillium Web Semi-Bold Italic';fill:#999999;stroke-width:0.15033114"
         d="m 62.314194,90.804787 0.486833,-2.116667 h 0.4572 l -0.486833,2.116667 z m 0.554567,-2.429934 0.1143,-0.495299 h 0.465666 l -0.1143,0.495299 z" />
      <path
         id="path8400"
         style="font-style:italic;font-variant:normal;font-weight:600;font-stretch:normal;font-family:'Titillium Web';-inkscape-font-specification:'Titillium Web Semi-Bold Italic';fill:#999999;stroke-width:0.15033114"
         d="m 64.492508,88.641553 q 0.2413,0 0.499533,0.08043 l 0.0889,0.02963 -0.118533,0.338667 q -0.3048,-0.0508 -0.486833,-0.0508 -0.300567,0 -0.461434,0.309033 -0.160866,0.3048 -0.160866,0.706967 0,0.397933 0.3683,0.397933 0.182033,0 0.385233,-0.03387 l 0.0762,-0.0127 -0.03387,0.347134 q -0.300566,0.09737 -0.605366,0.09737 -0.300567,0 -0.4826,-0.182033 -0.1778,-0.182033 -0.1778,-0.512233 0,-0.651934 0.287866,-1.083734 0.287867,-0.4318 0.821267,-0.4318 z" />
      <path
         id="path8402"
         style="font-style:italic;font-variant:normal;font-weight:600;font-stretch:normal;font-family:'Titillium Web';-inkscape-font-specification:'Titillium Web Semi-Bold Italic';fill:#999999;stroke-width:0.15033114"
         d="m 65.535561,90.157087 q 0,0.1397 0.09737,0.220133 0.09737,0.08043 0.2413,0.08043 0.3048,0 0.601133,-0.0508 l 0.110067,-0.02117 -0.04657,0.347133 q -0.385233,0.118533 -0.778933,0.118533 -0.6858,0 -0.6858,-0.6858 0,-0.601133 0.2667,-1.037166 0.135466,-0.220134 0.364066,-0.351367 0.2286,-0.131233 0.5207,-0.131233 0.694267,0 0.694267,0.579966 0,0.389467 -0.2794,0.541867 -0.275167,0.1524 -0.9017,0.1524 h -0.1778 q -0.0254,0.09313 -0.0254,0.237067 z m 0.2794,-0.5842 q 0.3556,0 0.503767,-0.0762 0.148166,-0.0762 0.148166,-0.2667 0,-0.211667 -0.262466,-0.211667 -0.440267,0 -0.588434,0.554567 z" />
      <path
         id="path8404"
         style="font-style:italic;font-variant:normal;font-weight:600;font-stretch:normal;font-family:'Titillium Web';-inkscape-font-specification:'Titillium Web Semi-Bold Italic';fill:#999999;stroke-width:0.15033114"
         d="m 69.06788,88.645787 q 0.791633,0 0.791633,0.762 0,0.364066 -0.118533,0.690033 -0.118533,0.321733 -0.372533,0.537633 -0.249767,0.2159 -0.5842,0.2159 -0.783167,0 -0.783167,-0.753533 0,-0.364067 0.127,-0.690033 0.127,-0.3302 0.376767,-0.5461 0.249766,-0.2159 0.563033,-0.2159 z m -0.283633,1.8161 q 0.275166,0 0.4445,-0.321734 0.173566,-0.321733 0.173566,-0.7366 0,-0.173566 -0.08467,-0.270933 -0.08467,-0.09737 -0.249767,-0.09737 -0.270933,0 -0.440267,0.325967 -0.169333,0.325967 -0.169333,0.740833 0,0.359834 0.325967,0.359834 z" />
      <path
         id="path8406"
         style="font-style:italic;font-variant:normal;font-weight:600;font-stretch:normal;font-family:'Titillium Web';-inkscape-font-specification:'Titillium Web Semi-Bold Italic';fill:#999999;stroke-width:0.15033114"
         d="m 69.987109,90.804787 0.486833,-2.116667 h 0.452966 l -0.07197,0.309033 q 0.143933,-0.1143 0.347133,-0.220133 0.207433,-0.110067 0.359833,-0.135467 l -0.131233,0.474134 q -0.1905,0.05503 -0.5461,0.224366 l -0.110067,0.0508 -0.3302,1.413934 z" />
      <path
         id="path8408"
         style="font-style:italic;font-variant:normal;font-weight:600;font-stretch:normal;font-family:'Titillium Web';-inkscape-font-specification:'Titillium Web Semi-Bold Italic';fill:#999999;stroke-width:0.15033114"
         d="m 73.991314,87.904954 q 0.732366,0 0.732366,0.601133 0,0.529166 -0.507999,0.804333 0.173566,0.08467 0.241299,0.2032 0.06773,0.1143 0.06773,0.296333 0,0.440267 -0.2921,0.719667 -0.287867,0.275167 -0.833967,0.275167 h -1.0541 l 0.668867,-2.899833 z m -0.3175,1.629833 h -0.563033 l -0.198967,0.8636 h 0.579967 q 0.254,0 0.397933,-0.156634 0.148167,-0.156633 0.148167,-0.4191 0,-0.287866 -0.364067,-0.287866 z m 0.2413,-1.223434 h -0.5207 l -0.194733,0.8255 h 0.529166 q 0.220134,0 0.364067,-0.1524 0.148167,-0.1524 0.148167,-0.389466 0,-0.148167 -0.08043,-0.2159 -0.0762,-0.06773 -0.245533,-0.06773 z" />
      <path
         id="path8410"
         style="font-style:italic;font-variant:normal;font-weight:600;font-stretch:normal;font-family:'Titillium Web';-inkscape-font-specification:'Titillium Web Semi-Bold Italic';fill:#999999;stroke-width:0.15033114"
         d="m 75.905706,88.645787 q 0.791633,0 0.791633,0.762 0,0.364066 -0.118533,0.690033 -0.118534,0.321733 -0.372534,0.537633 -0.249766,0.2159 -0.584199,0.2159 -0.783167,0 -0.783167,-0.753533 0,-0.364067 0.127,-0.690033 0.127,-0.3302 0.376767,-0.5461 0.249766,-0.2159 0.563033,-0.2159 z m -0.283633,1.8161 q 0.275166,0 0.444499,-0.321734 0.173567,-0.321733 0.173567,-0.7366 0,-0.173566 -0.08467,-0.270933 -0.08467,-0.09737 -0.249766,-0.09737 -0.270933,0 -0.440267,0.325967 -0.169333,0.325967 -0.169333,0.740833 0,0.359834 0.325967,0.359834 z" />
      <path
         id="path8412"
         style="font-style:italic;font-variant:normal;font-weight:600;font-stretch:normal;font-family:'Titillium Web';-inkscape-font-specification:'Titillium Web Semi-Bold Italic';fill:#999999;stroke-width:0.15033114"
         d="m 78.276968,88.641553 q 0.605366,0 0.605366,0.668867 0,0.389467 -0.118533,0.732367 -0.118533,0.3429 -0.372533,0.575733 -0.254,0.2286 -0.601134,0.2286 -0.381,0 -0.804333,-0.09313 l -0.148167,-0.02963 0.668867,-2.916766 h 0.461433 l -0.254,1.096433 q 0.09737,-0.09737 0.2667,-0.1778 0.169334,-0.08467 0.296334,-0.08467 z m -0.910167,1.769534 q 0.232833,0.04657 0.4064,0.04657 0.1778,0 0.3048,-0.122766 0.131233,-0.127 0.198967,-0.309034 0.135466,-0.372533 0.135466,-0.668866 0,-0.148167 -0.05503,-0.232834 -0.05503,-0.0889 -0.186267,-0.0889 -0.127,0 -0.258233,0.06773 -0.131233,0.06773 -0.211667,0.135466 l -0.08043,0.07197 z" />
      <path
         id="path8414"
         style="font-style:italic;font-variant:normal;font-weight:600;font-stretch:normal;font-family:'Titillium Web';-inkscape-font-specification:'Titillium Web Semi-Bold Italic';fill:#999999;stroke-width:0.15033114"
         d="m 78.982346,91.35512 h -0.376767 l 0.461434,-1.121833 h 0.503766 z" />
      <path
         id="path8416"
         style="font-style:italic;font-variant:normal;font-weight:600;font-stretch:normal;font-family:'Titillium Web';-inkscape-font-specification:'Titillium Web Semi-Bold Italic';fill:#999999;stroke-width:0.15033114"
         d="m 82.154768,88.641553 q 0.605366,0 0.605366,0.668867 0,0.389467 -0.118533,0.732367 -0.118533,0.3429 -0.372533,0.575733 -0.254,0.2286 -0.601134,0.2286 -0.381,0 -0.804333,-0.09313 l -0.148167,-0.02963 0.668867,-2.916766 h 0.461433 l -0.254,1.096433 q 0.09737,-0.09737 0.2667,-0.1778 0.169334,-0.08467 0.296334,-0.08467 z m -0.910167,1.769534 q 0.232833,0.04657 0.4064,0.04657 0.1778,0 0.3048,-0.122766 0.131233,-0.127 0.198967,-0.309034 0.135466,-0.372533 0.135466,-0.668866 0,-0.148167 -0.05503,-0.232834 -0.05503,-0.0889 -0.186267,-0.0889 -0.127,0 -0.258233,0.06773 -0.131233,0.06773 -0.211667,0.135466 l -0.08043,0.07197 z" />
      <path
         id="path8418"
         style="font-style:italic;font-variant:normal;font-weight:600;font-stretch:normal;font-family:'Titillium Web';-inkscape-font-specification:'Titillium Web Semi-Bold Italic';fill:#999999;stroke-width:0.15033114"
         d="m 83.558646,90.851353 q -0.2921,0 -0.4318,-0.186266 -0.1397,-0.1905 -0.1397,-0.474134 0,-0.287866 0.0635,-0.541866 0.06773,-0.254 0.1905,-0.4826 0.122767,-0.232834 0.334433,-0.376767 0.2159,-0.148167 0.4826,-0.148167 0.237067,0 0.795867,0.09313 l 0.1778,0.02963 -0.3175,1.3716 -0.1143,0.6604 -0.452967,0.01693 q 0.04657,-0.3048 0.0635,-0.385233 -0.198966,0.262467 -0.452966,0.376767 -0.1016,0.04657 -0.198967,0.04657 z m 0.948267,-1.756833 q -0.287867,-0.0635 -0.4572,-0.0635 -0.169334,0 -0.3175,0.1905 -0.2794,0.351367 -0.2794,0.922867 0,0.156633 0.05503,0.237066 0.05927,0.0762 0.1778,0.0762 0.122767,0 0.2667,-0.110066 0.143933,-0.1143 0.2413,-0.2286 l 0.09737,-0.1143 z" />
      <path
         id="path8420"
         style="font-style:italic;font-variant:normal;font-weight:600;font-stretch:normal;font-family:'Titillium Web';-inkscape-font-specification:'Titillium Web Semi-Bold Italic';fill:#999999;stroke-width:0.15033114"
         d="m 86.109758,89.035253 q -0.1651,0 -0.262467,0.08467 -0.09313,0.08467 -0.09313,0.1905 0,0.105833 0.06773,0.148167 0.06773,0.04233 0.249767,0.09737 0.182033,0.0508 0.2667,0.08467 0.08467,0.03387 0.169333,0.0889 0.1524,0.09737 0.1524,0.334433 0,0.385234 -0.258233,0.588434 -0.258234,0.198966 -0.677334,0.198966 -0.321733,0 -0.613833,-0.09313 l -0.09313,-0.02963 0.08467,-0.3429 q 0.402167,0.0762 0.639234,0.0762 0.452966,0 0.452966,-0.309034 0,-0.08043 -0.06773,-0.118533 -0.06773,-0.0381 -0.313267,-0.1016 -0.2413,-0.0635 -0.381,-0.169333 -0.1397,-0.110067 -0.1397,-0.3175 0,-0.3683 0.249767,-0.5842 0.249767,-0.2159 0.613833,-0.2159 0.351367,0 0.639234,0.08467 l 0.09313,0.0254 -0.08467,0.3429 q -0.4191,-0.0635 -0.694266,-0.0635 z" />
      <path
         id="path8422"
         style="font-style:italic;font-variant:normal;font-weight:600;font-stretch:normal;font-family:'Titillium Web';-inkscape-font-specification:'Titillium Web Semi-Bold Italic';fill:#999999;stroke-width:0.15033114"
         d="m 87.462903,90.157087 q 0,0.1397 0.09737,0.220133 0.09737,0.08043 0.2413,0.08043 0.3048,0 0.601133,-0.0508 l 0.110067,-0.02117 -0.04657,0.347133 q -0.385233,0.118533 -0.778933,0.118533 -0.6858,0 -0.6858,-0.6858 0,-0.601133 0.2667,-1.037166 0.135467,-0.220134 0.364067,-0.351367 0.2286,-0.131233 0.5207,-0.131233 0.694266,0 0.694266,0.579966 0,0.389467 -0.2794,0.541867 -0.275166,0.1524 -0.901699,0.1524 h -0.1778 q -0.0254,0.09313 -0.0254,0.237067 z m 0.2794,-0.5842 q 0.355599,0 0.503766,-0.0762 0.148167,-0.0762 0.148167,-0.2667 0,-0.211667 -0.262467,-0.211667 -0.440266,0 -0.588433,0.554567 z" />
      <path
         id="path8424"
         style="font-style:italic;font-variant:normal;font-weight:600;font-stretch:normal;font-family:'Titillium Web';-inkscape-font-specification:'Titillium Web Semi-Bold Italic';fill:#999999;stroke-width:0.15033114"
         d="m 89.565614,90.851353 q -0.283633,0 -0.4318,-0.1778 -0.143933,-0.1778 -0.143933,-0.529166 0,-0.351367 0.1143,-0.6858 0.118533,-0.338667 0.3683,-0.575734 0.249767,-0.237066 0.579967,-0.237066 0.1651,0 0.4445,0.05927 l 0.0889,0.02117 0.211666,-0.918633 h 0.461434 l -0.694267,2.9972 h -0.4445 l 0.05503,-0.287867 q -0.02963,0.0381 -0.08467,0.09313 -0.05503,0.05503 -0.2159,0.148167 -0.160867,0.09313 -0.309034,0.09313 z m 0.935567,-1.756833 q -0.258233,-0.05927 -0.4445,-0.05927 -0.186267,0 -0.3302,0.1905 -0.1397,0.1905 -0.207433,0.4445 -0.0635,0.249767 -0.0635,0.486834 0,0.3048 0.258233,0.3048 0.09313,0 0.232833,-0.09737 0.143934,-0.09737 0.237067,-0.194733 l 0.09313,-0.09737 z" />
      <path
         id="path8426"
         style="font-style:italic;font-variant:normal;font-weight:600;font-stretch:normal;font-family:'Titillium Web';-inkscape-font-specification:'Titillium Web Semi-Bold Italic';fill:#999999;stroke-width:0.15033114"
         d="m 93.178037,88.645787 q 0.791633,0 0.791633,0.762 0,0.364066 -0.118533,0.690033 -0.118533,0.321733 -0.372533,0.537633 -0.249767,0.2159 -0.5842,0.2159 -0.783167,0 -0.783167,-0.753533 0,-0.364067 0.127,-0.690033 0.127,-0.3302 0.376767,-0.5461 0.249766,-0.2159 0.563033,-0.2159 z m -0.283633,1.8161 q 0.275166,0 0.4445,-0.321734 0.173566,-0.321733 0.173566,-0.7366 0,-0.173566 -0.08467,-0.270933 -0.08467,-0.09737 -0.249767,-0.09737 -0.270933,0 -0.440267,0.325967 -0.169333,0.325967 -0.169333,0.740833 0,0.359834 0.325967,0.359834 z" />
      <path
         id="path8428"
         style="font-style:italic;font-variant:normal;font-weight:600;font-stretch:normal;font-family:'Titillium Web';-inkscape-font-specification:'Titillium Web Semi-Bold Italic';fill:#999999;stroke-width:0.15033114"
         d="m 95.578932,88.641553 q 0.258233,0 0.381,0.156634 0.127,0.1524 0.127,0.376766 0,0.220134 -0.0889,0.575734 l -0.2413,1.0541 h -0.4572 l 0.237067,-1.020234 q 0.0762,-0.3556 0.0762,-0.4826 0,-0.127 -0.0508,-0.194733 -0.04657,-0.06773 -0.156634,-0.06773 -0.105833,0 -0.232833,0.0889 -0.127,0.08467 -0.211667,0.173566 l -0.08043,0.0889 -0.325967,1.413934 h -0.457199 l 0.486833,-2.116667 h 0.440266 l -0.04657,0.2794 q 0.03387,-0.0381 0.0889,-0.0889 0.05503,-0.05503 0.211666,-0.143933 0.160867,-0.09313 0.300567,-0.09313 z" />
      <path
         id="path8430"
         style="font-style:italic;font-variant:normal;font-weight:600;font-stretch:normal;font-family:'Titillium Web';-inkscape-font-specification:'Titillium Web Semi-Bold Italic';fill:#999999;stroke-width:0.15033114"
         d="M 98.709744,90.804787 V 90.19942 h -0.948266 l -0.2921,0.605367 h -0.474134 l 1.367367,-2.899833 h 0.842433 l -0.0254,2.899833 z m -0.07197,-2.4892 -0.694267,1.468966 h 0.778933 l 0.02117,-1.468966 z" />
      <path
         id="path8432"
         style="font-style:italic;font-variant:normal;font-weight:600;font-stretch:normal;font-family:'Titillium Web';-inkscape-font-specification:'Titillium Web Semi-Bold Italic';fill:#999999;stroke-width:0.15033114"
         d="m 100.71522,89.90732 h -0.47837 l -0.20743,0.897467 h -0.474134 l 0.673104,-2.899833 h 0.86783 q 0.42757,0 0.6223,0.182033 0.19473,0.182033 0.19473,0.579966 0,0.5842 -0.3175,0.9144 -0.3175,0.325967 -0.88053,0.325967 z m 0.0677,-0.410633 q 0.30904,0 0.47837,-0.224367 0.16933,-0.224367 0.16933,-0.601133 0,-0.182034 -0.0889,-0.2667 -0.0847,-0.0889 -0.28363,-0.0889 h -0.4572 l -0.27093,1.1811 z" />
      <path
         id="path8434"
         style="font-style:italic;font-variant:normal;font-weight:600;font-stretch:normal;font-family:'Titillium Web';-inkscape-font-specification:'Titillium Web Semi-Bold Italic';fill:#999999;stroke-width:0.15033114"
         d="m 101.8704,90.804787 0.6731,-2.899833 h 0.4699 l -0.66887,2.899833 z" />
      <path
         id="path8436"
         style="font-style:italic;font-variant:normal;font-weight:600;font-stretch:normal;font-family:'Titillium Web';-inkscape-font-specification:'Titillium Web Semi-Bold Italic';fill:#999999;stroke-width:0.15033114"
         d="m 103.82897,90.804787 0.48683,-2.116667 h 0.45297 l -0.072,0.309033 q 0.14394,-0.1143 0.34714,-0.220133 0.20743,-0.110067 0.35983,-0.135467 l -0.13123,0.474134 q -0.1905,0.05503 -0.5461,0.224366 l -0.11007,0.0508 -0.3302,1.413934 z" />
      <path
         id="path8438"
         style="font-style:italic;font-variant:normal;font-weight:600;font-stretch:normal;font-family:'Titillium Web';-inkscape-font-specification:'Titillium Web Semi-Bold Italic';fill:#999999;stroke-width:0.15033114"
         d="m 105.75222,90.157087 q 0,0.1397 0.0974,0.220133 0.0974,0.08043 0.2413,0.08043 0.3048,0 0.60113,-0.0508 l 0.11007,-0.02117 -0.0466,0.347133 q -0.38523,0.118533 -0.77893,0.118533 -0.6858,0 -0.6858,-0.6858 0,-0.601133 0.2667,-1.037166 0.13547,-0.220134 0.36407,-0.351367 0.2286,-0.131233 0.5207,-0.131233 0.69426,0 0.69426,0.579966 0,0.389467 -0.2794,0.541867 -0.27516,0.1524 -0.9017,0.1524 h -0.1778 q -0.0254,0.09313 -0.0254,0.237067 z m 0.2794,-0.5842 q 0.3556,0 0.50377,-0.0762 0.14817,-0.0762 0.14817,-0.2667 0,-0.211667 -0.26247,-0.211667 -0.44027,0 -0.58843,0.554567 z" />
      <path
         id="path8440"
         style="font-style:italic;font-variant:normal;font-weight:600;font-stretch:normal;font-family:'Titillium Web';-inkscape-font-specification:'Titillium Web Semi-Bold Italic';fill:#999999;stroke-width:0.15033114"
         d="m 108.219,89.035253 q -0.1651,0 -0.26246,0.08467 -0.0931,0.08467 -0.0931,0.1905 0,0.105833 0.0677,0.148167 0.0677,0.04233 0.24976,0.09737 0.18204,0.0508 0.2667,0.08467 0.0847,0.03387 0.16934,0.0889 0.1524,0.09737 0.1524,0.334433 0,0.385234 -0.25824,0.588434 -0.25823,0.198966 -0.67733,0.198966 -0.32173,0 -0.61383,-0.09313 l -0.0931,-0.02963 0.0847,-0.3429 q 0.40217,0.0762 0.63923,0.0762 0.45297,0 0.45297,-0.309034 0,-0.08043 -0.0677,-0.118533 -0.0677,-0.0381 -0.31327,-0.1016 -0.2413,-0.0635 -0.381,-0.169333 -0.1397,-0.110067 -0.1397,-0.3175 0,-0.3683 0.24977,-0.5842 0.24976,-0.2159 0.61383,-0.2159 0.35137,0 0.63923,0.08467 l 0.0931,0.0254 -0.0847,0.3429 q -0.4191,-0.0635 -0.69427,-0.0635 z" />
      <path
         id="path8442"
         style="font-style:italic;font-variant:normal;font-weight:600;font-stretch:normal;font-family:'Titillium Web';-inkscape-font-specification:'Titillium Web Semi-Bold Italic';fill:#999999;stroke-width:0.15033114"
         d="m 110.47808,88.641553 q 0.29633,0 0.44027,0.182034 0.14816,0.182033 0.14816,0.524933 0,0.338667 -0.11853,0.681567 -0.1143,0.338666 -0.36407,0.579966 -0.24976,0.237067 -0.57996,0.237067 -0.2159,0 -0.45297,-0.05927 l -0.0847,-0.02117 -0.22013,0.948266 h -0.45297 l 0.6985,-3.026833 h 0.44874 l -0.0593,0.287867 q 0.0339,-0.0381 0.0889,-0.09313 0.055,-0.05503 0.21167,-0.148166 0.16086,-0.09313 0.29633,-0.09313 z m -0.1397,0.3937 q -0.0889,0 -0.23283,0.09737 -0.1397,0.09737 -0.23707,0.1905 l -0.0931,0.09737 -0.22014,0.973666 q 0.25824,0.0635 0.4445,0.0635 0.18627,0 0.32597,-0.1905 0.14393,-0.194733 0.20743,-0.440266 0.0677,-0.249767 0.0677,-0.4826 0,-0.309034 -0.26247,-0.309034 z" />
      <path
         id="path8444"
         style="font-style:italic;font-variant:normal;font-weight:600;font-stretch:normal;font-family:'Titillium Web';-inkscape-font-specification:'Titillium Web Semi-Bold Italic';fill:#999999;stroke-width:0.15033114"
         d="m 112.36033,88.645787 q 0.79163,0 0.79163,0.762 0,0.364066 -0.11853,0.690033 -0.11853,0.321733 -0.37253,0.537633 -0.24977,0.2159 -0.5842,0.2159 -0.78317,0 -0.78317,-0.753533 0,-0.364067 0.127,-0.690033 0.127,-0.3302 0.37677,-0.5461 0.24976,-0.2159 0.56303,-0.2159 z m -0.28363,1.8161 q 0.27516,0 0.4445,-0.321734 0.17356,-0.321733 0.17356,-0.7366 0,-0.173566 -0.0847,-0.270933 -0.0847,-0.09737 -0.24977,-0.09737 -0.27093,0 -0.44027,0.325967 -0.16933,0.325967 -0.16933,0.740833 0,0.359834 0.32597,0.359834 z" />
      <path
         id="path8446"
         style="font-style:italic;font-variant:normal;font-weight:600;font-stretch:normal;font-family:'Titillium Web';-inkscape-font-specification:'Titillium Web Semi-Bold Italic';fill:#999999;stroke-width:0.15033114"
         d="m 114.76122,88.641553 q 0.25823,0 0.381,0.156634 0.127,0.1524 0.127,0.376766 0,0.220134 -0.0889,0.575734 l -0.2413,1.0541 h -0.4572 l 0.23707,-1.020234 q 0.0762,-0.3556 0.0762,-0.4826 0,-0.127 -0.0508,-0.194733 -0.0466,-0.06773 -0.15664,-0.06773 -0.10583,0 -0.23283,0.0889 -0.127,0.08467 -0.21167,0.173566 l -0.0804,0.0889 -0.32597,1.413934 h -0.4572 l 0.48684,-2.116667 h 0.44026 l -0.0466,0.2794 q 0.0339,-0.0381 0.0889,-0.0889 0.055,-0.05503 0.21166,-0.143933 0.16087,-0.09313 0.30057,-0.09313 z" />
      <path
         id="path8448"
         style="font-style:italic;font-variant:normal;font-weight:600;font-stretch:normal;font-family:'Titillium Web';-inkscape-font-specification:'Titillium Web Semi-Bold Italic';fill:#999999;stroke-width:0.15033114"
         d="m 116.46243,89.035253 q -0.1651,0 -0.26247,0.08467 -0.0931,0.08467 -0.0931,0.1905 0,0.105833 0.0677,0.148167 0.0677,0.04233 0.24977,0.09737 0.18203,0.0508 0.2667,0.08467 0.0847,0.03387 0.16933,0.0889 0.1524,0.09737 0.1524,0.334433 0,0.385234 -0.25823,0.588434 -0.25824,0.198966 -0.67734,0.198966 -0.32173,0 -0.61383,-0.09313 l -0.0931,-0.02963 0.0847,-0.3429 q 0.40217,0.0762 0.63924,0.0762 0.45296,0 0.45296,-0.309034 0,-0.08043 -0.0677,-0.118533 -0.0677,-0.0381 -0.31327,-0.1016 -0.2413,-0.0635 -0.381,-0.169333 -0.1397,-0.110067 -0.1397,-0.3175 0,-0.3683 0.24977,-0.5842 0.24977,-0.2159 0.61383,-0.2159 0.35137,0 0.63924,0.08467 l 0.0931,0.0254 -0.0847,0.3429 q -0.4191,-0.0635 -0.69426,-0.0635 z" />
      <path
         id="path8450"
         style="font-style:italic;font-variant:normal;font-weight:600;font-stretch:normal;font-family:'Titillium Web';-inkscape-font-specification:'Titillium Web Semi-Bold Italic';fill:#999999;stroke-width:0.15033114"
         d="m 117.81557,90.157087 q 0,0.1397 0.0974,0.220133 0.0974,0.08043 0.2413,0.08043 0.3048,0 0.60113,-0.0508 l 0.11007,-0.02117 -0.0466,0.347133 q -0.38523,0.118533 -0.77893,0.118533 -0.6858,0 -0.6858,-0.6858 0,-0.601133 0.2667,-1.037166 0.13546,-0.220134 0.36406,-0.351367 0.2286,-0.131233 0.5207,-0.131233 0.69427,0 0.69427,0.579966 0,0.389467 -0.2794,0.541867 -0.27517,0.1524 -0.9017,0.1524 h -0.1778 q -0.0254,0.09313 -0.0254,0.237067 z m 0.2794,-0.5842 q 0.3556,0 0.50377,-0.0762 0.14816,-0.0762 0.14816,-0.2667 0,-0.211667 -0.26246,-0.211667 -0.44027,0 -0.58844,0.554567 z" />
      <path
         id="path8452"
         style="font-style:italic;font-variant:normal;font-weight:300;font-stretch:normal;font-family:'Titillium Web';-inkscape-font-specification:'Titillium Web Light Italic';fill:#999999;stroke-width:0.15033114"
         d="m 119.91405,88.798187 h -0.2286 l 0.2159,-0.935567 h 0.2413 z" />
    </g>
    <path
       id="path4708"
       d="m 127.46187,81.175608 5.29167,7.9375 -5.29166,7.937486"
       style="display:inline;fill:none;stroke:#e6e6e6;stroke-width:0.26458332px;stroke-linecap:butt;stroke-linejoin:miter;stroke-opacity:1" />
  </g>
</svg>
