<?xml version="1.0" encoding="UTF-8" standalone="no"?>
<!-- Created with Inkscape (http://www.inkscape.org/) -->

<svg
  xmlns:dc="http://purl.org/dc/elements/1.1/"
  xmlns:cc="http://creativecommons.org/ns#"
  xmlns:rdf="http://www.w3.org/1999/02/22-rdf-syntax-ns#"
  xmlns:svg="http://www.w3.org/2000/svg"
  xmlns="http://www.w3.org/2000/svg"
  xmlns:sodipodi="http://sodipodi.sourceforge.net/DTD/sodipodi-0.dtd"
  xmlns:inkscape="http://www.inkscape.org/namespaces/inkscape"
  width="32"
  height="32"
  viewBox="0 0 8.4666659 8.4666659"
  version="1.1"
  id="svg1400"
  inkscape:version="0.92.2 5c3e80d, 2017-08-06"
  sodipodi:docname="twitter.svg">
  <defs
    id="defs1394" />
  <sodipodi:namedview
    id="base"
    pagecolor="#000000"
    bordercolor="#666666"
    borderopacity="1.0"
    inkscape:pageopacity="0"
    inkscape:pageshadow="2"
    inkscape:zoom="11.313708"
    inkscape:cx="24.610294"
    inkscape:cy="9.581973"
    inkscape:document-units="px"
    inkscape:current-layer="layer1"
    showgrid="false"
    inkscape:window-width="1920"
    inkscape:window-height="1080"
    inkscape:window-x="0"
    inkscape:window-y="0"
    inkscape:window-maximized="1"
    borderlayer="true"
    inkscape:showpageshadow="false"
    units="px" />
  <metadata
    id="metadata1397">
    <rdf:RDF>
      <cc:Work
        rdf:about="">
        <dc:format>image/svg+xml</dc:format>
        <dc:type
          rdf:resource="http://purl.org/dc/dcmitype/StillImage" />
        <dc:title />
      </cc:Work>
    </rdf:RDF>
  </metadata>
  <g
    inkscape:label="Layer 1"
    inkscape:groupmode="layer"
    id="layer1"
    transform="translate(0,-288.53333)">
    <path
      style="fill:#999999;stroke-width:0.01353104"
      d="m 3.6768585,294.93322 c 0.4061375,-0.0357 0.710832,-0.12277 1.0514116,-0.30026 0.5453149,-0.28418 0.9928341,-0.79004 1.2310315,-1.3915 0.1320824,-0.33351 0.1907438,-0.61261 0.2009855,-0.95624 l 0.0059,-0.19793 0.057912,-0.0425 c 0.1262938,-0.0926 0.4273901,-0.42041 0.3957865,-0.43095 -0.00533,-10e-4 -0.048706,0.0112 -0.096399,0.0288 -0.090404,0.0334 -0.2867967,0.0842 -0.3755258,0.0972 l -0.051512,0.007 0.066657,-0.049 c 0.084826,-0.0625 0.1747084,-0.15616 0.2319609,-0.24184 0.047408,-0.0709 0.1154655,-0.21341 0.1063193,-0.22255 -0.00298,-0.003 -0.052902,0.0184 -0.1109334,0.0475 -0.1123276,0.0564 -0.2875129,0.12035 -0.4099401,0.14952 l -0.074516,0.0178 -0.075087,-0.0641 c -0.1887863,-0.16066 -0.3802279,-0.23156 -0.6270718,-0.23199 -0.3638086,-5.9e-4 -0.6730171,0.18678 -0.8514709,0.51601 -0.079936,0.14747 -0.1181861,0.35557 -0.098922,0.53821 0.00635,0.0602 0.010093,0.11095 0.00832,0.11272 -0.0093,0.01 -0.2569575,-0.0213 -0.3879848,-0.0479 -0.3745079,-0.0761 -0.706839,-0.21708 -1.0171592,-0.4315 -0.1648612,-0.11392 -0.3880063,-0.31566 -0.5183839,-0.46867 -0.018133,-0.0213 -0.036593,-0.0387 -0.041022,-0.0387 -0.016228,0 -0.074235,0.14514 -0.1001069,0.25048 -0.090515,0.36851 0.046808,0.75183 0.3545042,0.98956 l 0.035467,0.0274 -0.066419,-0.006 c -0.081968,-0.006 -0.2250265,-0.0467 -0.2917757,-0.0807 -0.027478,-0.0141 -0.054175,-0.0255 -0.059324,-0.0255 -0.023183,0 -0.00463,0.16575 0.031762,0.28373 0.092738,0.30068 0.3296848,0.5408 0.6270836,0.63546 0.046778,0.0149 0.069818,0.0268 0.061283,0.0314 -0.029023,0.0162 -0.2211549,0.0288 -0.3020806,0.0197 -0.044969,-0.005 -0.083646,-0.007 -0.085949,-0.005 -0.00647,0.006 0.050927,0.13761 0.085472,0.1953 0.091751,0.15322 0.2441499,0.2917 0.4102232,0.37274 0.078034,0.038 0.2439828,0.0863 0.2977581,0.0865 0.019862,7e-5 0.046693,0.003 0.059627,0.006 0.021298,0.005 0.017546,0.0107 -0.039773,0.0523 -0.1989413,0.14477 -0.4525709,0.2566 -0.7059642,0.31127 -0.1600832,0.0345 -0.2718013,0.0447 -0.4513981,0.0409 -0.095054,-0.002 -0.1728224,-0.003 -0.172817,-0.001 5.5e-6,7.7e-4 0.03849,0.0248 0.08552,0.0532 0.4576865,0.27546 1.0580633,0.411 1.6065498,0.36271 z"
      id="path841"
      inkscape:connector-curvature="0" />
    <circle
      style="opacity:1;fill:none;fill-opacity:1;stroke:#999999;stroke-width:0.58208328;stroke-linecap:round;stroke-linejoin:miter;stroke-miterlimit:4;stroke-dasharray:none;stroke-dashoffset:0;stroke-opacity:1;paint-order:markers fill stroke"
      id="path835"
      cx="4.2333331"
      cy="292.76666"
      r="3.9422915" />
  </g>
</svg>
